<?xml version="1.0" encoding="UTF-8" standalone="no"?><svg xmlns="http://www.w3.org/2000/svg" id="pixil-frame-0-(18)" width="2048" height="1024" viewBox="0 0 2048 1024" preserveAspectRatio="xMidYMid meet" rendering="crispEdges"><rect id="10-4" x="576" y="192" width="64" height="64" shape-rendering="crispEdges" style="fill:#e8c884;opacity:255;"></rect><rect id="11-4" x="640" y="192" width="64" height="64" shape-rendering="crispEdges" style="fill:#e8c884;opacity:255;"></rect><rect id="12-4" x="704" y="192" width="64" height="64" shape-rendering="crispEdges" style="fill:#e8c884;opacity:255;"></rect><rect id="13-4" x="768" y="192" width="64" height="64" shape-rendering="crispEdges" style="fill:#e8c884;opacity:255;"></rect><rect id="14-4" x="832" y="192" width="64" height="64" shape-rendering="crispEdges" style="fill:#e8c884;opacity:255;"></rect><rect id="15-4" x="896" y="192" width="64" height="64" shape-rendering="crispEdges" style="fill:#e8c884;opacity:255;"></rect><rect id="16-4" x="960" y="192" width="64" height="64" shape-rendering="crispEdges" style="fill:#e8c884;opacity:255;"></rect><rect id="17-4" x="1024" y="192" width="64" height="64" shape-rendering="crispEdges" style="fill:#e8c884;opacity:255;"></rect><rect id="18-4" x="1088" y="192" width="64" height="64" shape-rendering="crispEdges" style="fill:#e8c884;opacity:255;"></rect><rect id="19-4" x="1152" y="192" width="64" height="64" shape-rendering="crispEdges" style="fill:#e8c884;opacity:255;"></rect><rect id="20-4" x="1216" y="192" width="64" height="64" shape-rendering="crispEdges" style="fill:#e8c884;opacity:255;"></rect><rect id="21-4" x="1280" y="192" width="64" height="64" shape-rendering="crispEdges" style="fill:#e8c884;opacity:255;"></rect><rect id="22-4" x="1344" y="192" width="64" height="64" shape-rendering="crispEdges" style="fill:#e8c884;opacity:255;"></rect><rect id="23-4" x="1408" y="192" width="64" height="64" shape-rendering="crispEdges" style="fill:#e8c884;opacity:255;"></rect><rect id="5-5" x="256" y="256" width="64" height="64" shape-rendering="crispEdges" style="fill:#dbb96e;opacity:255;"></rect><rect id="6-5" x="320" y="256" width="64" height="64" shape-rendering="crispEdges" style="fill:#dbb96e;opacity:255;"></rect><rect id="7-5" x="384" y="256" width="64" height="64" shape-rendering="crispEdges" style="fill:#dbb96e;opacity:255;"></rect><rect id="8-5" x="448" y="256" width="64" height="64" shape-rendering="crispEdges" style="fill:#dbb96e;opacity:255;"></rect><rect id="9-5" x="512" y="256" width="64" height="64" shape-rendering="crispEdges" style="fill:#dbb96e;opacity:255;"></rect><rect id="10-5" x="576" y="256" width="64" height="64" shape-rendering="crispEdges" style="fill:#f2deae;opacity:255;"></rect><rect id="11-5" x="640" y="256" width="64" height="64" shape-rendering="crispEdges" style="fill:#f2deae;opacity:255;"></rect><rect id="12-5" x="704" y="256" width="64" height="64" shape-rendering="crispEdges" style="fill:#f2deae;opacity:255;"></rect><rect id="13-5" x="768" y="256" width="64" height="64" shape-rendering="crispEdges" style="fill:#f2deae;opacity:255;"></rect><rect id="14-5" x="832" y="256" width="64" height="64" shape-rendering="crispEdges" style="fill:#e3ce9a;opacity:255;"></rect><rect id="15-5" x="896" y="256" width="64" height="64" shape-rendering="crispEdges" style="fill:#f2deae;opacity:255;"></rect><rect id="16-5" x="960" y="256" width="64" height="64" shape-rendering="crispEdges" style="fill:#f2deae;opacity:255;"></rect><rect id="17-5" x="1024" y="256" width="64" height="64" shape-rendering="crispEdges" style="fill:#f2deae;opacity:255;"></rect><rect id="18-5" x="1088" y="256" width="64" height="64" shape-rendering="crispEdges" style="fill:#f2deae;opacity:255;"></rect><rect id="19-5" x="1152" y="256" width="64" height="64" shape-rendering="crispEdges" style="fill:#f2deae;opacity:255;"></rect><rect id="20-5" x="1216" y="256" width="64" height="64" shape-rendering="crispEdges" style="fill:#f2deae;opacity:255;"></rect><rect id="21-5" x="1280" y="256" width="64" height="64" shape-rendering="crispEdges" style="fill:#f2deae;opacity:255;"></rect><rect id="22-5" x="1344" y="256" width="64" height="64" shape-rendering="crispEdges" style="fill:#f2deae;opacity:255;"></rect><rect id="23-5" x="1408" y="256" width="64" height="64" shape-rendering="crispEdges" style="fill:#f2deae;opacity:255;"></rect><rect id="24-5" x="1472" y="256" width="64" height="64" shape-rendering="crispEdges" style="fill:#e8c884;opacity:255;"></rect><rect id="25-5" x="1536" y="256" width="64" height="64" shape-rendering="crispEdges" style="fill:#e8c884;opacity:255;"></rect><rect id="26-5" x="1600" y="256" width="64" height="64" shape-rendering="crispEdges" style="fill:#e8c884;opacity:255;"></rect><rect id="27-5" x="1664" y="256" width="64" height="64" shape-rendering="crispEdges" style="fill:#e8c884;opacity:255;"></rect><rect id="28-5" x="1728" y="256" width="64" height="64" shape-rendering="crispEdges" style="fill:#e8c884;opacity:255;"></rect><rect id="3-6" x="128" y="320" width="64" height="64" shape-rendering="crispEdges" style="fill:#dbb96e;opacity:255;"></rect><rect id="4-6" x="192" y="320" width="64" height="64" shape-rendering="crispEdges" style="fill:#dbb96e;opacity:255;"></rect><rect id="5-6" x="256" y="320" width="64" height="64" shape-rendering="crispEdges" style="fill:#f2deae;opacity:255;"></rect><rect id="6-6" x="320" y="320" width="64" height="64" shape-rendering="crispEdges" style="fill:#f2deae;opacity:255;"></rect><rect id="7-6" x="384" y="320" width="64" height="64" shape-rendering="crispEdges" style="fill:#f2deae;opacity:255;"></rect><rect id="8-6" x="448" y="320" width="64" height="64" shape-rendering="crispEdges" style="fill:#c78756;opacity:255;"></rect><rect id="9-6" x="512" y="320" width="64" height="64" shape-rendering="crispEdges" style="fill:#f2deae;opacity:255;"></rect><rect id="10-6" x="576" y="320" width="64" height="64" shape-rendering="crispEdges" style="fill:#f2deae;opacity:255;"></rect><rect id="11-6" x="640" y="320" width="64" height="64" shape-rendering="crispEdges" style="fill:#e5aa7a;opacity:255;"></rect><rect id="12-6" x="704" y="320" width="64" height="64" shape-rendering="crispEdges" style="fill:#f2deae;opacity:255;"></rect><rect id="13-6" x="768" y="320" width="64" height="64" shape-rendering="crispEdges" style="fill:#e5aa7a;opacity:255;"></rect><rect id="14-6" x="832" y="320" width="64" height="64" shape-rendering="crispEdges" style="fill:#f2deae;opacity:255;"></rect><rect id="15-6" x="896" y="320" width="64" height="64" shape-rendering="crispEdges" style="fill:#c2ac78;opacity:255;"></rect><rect id="16-6" x="960" y="320" width="64" height="64" shape-rendering="crispEdges" style="fill:#c2ac78;opacity:255;"></rect><rect id="17-6" x="1024" y="320" width="64" height="64" shape-rendering="crispEdges" style="fill:#c2ac78;opacity:255;"></rect><rect id="18-6" x="1088" y="320" width="64" height="64" shape-rendering="crispEdges" style="fill:#c2ac78;opacity:255;"></rect><rect id="19-6" x="1152" y="320" width="64" height="64" shape-rendering="crispEdges" style="fill:#e5aa7a;opacity:255;"></rect><rect id="20-6" x="1216" y="320" width="64" height="64" shape-rendering="crispEdges" style="fill:#e3ce9a;opacity:255;"></rect><rect id="21-6" x="1280" y="320" width="64" height="64" shape-rendering="crispEdges" style="fill:#f2deae;opacity:255;"></rect><rect id="22-6" x="1344" y="320" width="64" height="64" shape-rendering="crispEdges" style="fill:#f2deae;opacity:255;"></rect><rect id="23-6" x="1408" y="320" width="64" height="64" shape-rendering="crispEdges" style="fill:#f2deae;opacity:255;"></rect><rect id="24-6" x="1472" y="320" width="64" height="64" shape-rendering="crispEdges" style="fill:#f2deae;opacity:255;"></rect><rect id="25-6" x="1536" y="320" width="64" height="64" shape-rendering="crispEdges" style="fill:#f2deae;opacity:255;"></rect><rect id="26-6" x="1600" y="320" width="64" height="64" shape-rendering="crispEdges" style="fill:#f2deae;opacity:255;"></rect><rect id="27-6" x="1664" y="320" width="64" height="64" shape-rendering="crispEdges" style="fill:#f2deae;opacity:255;"></rect><rect id="28-6" x="1728" y="320" width="64" height="64" shape-rendering="crispEdges" style="fill:#f2deae;opacity:255;"></rect><rect id="29-6" x="1792" y="320" width="64" height="64" shape-rendering="crispEdges" style="fill:#e8c884;opacity:255;"></rect><rect id="30-6" x="1856" y="320" width="64" height="64" shape-rendering="crispEdges" style="fill:#e8c884;opacity:255;"></rect><rect id="2-7" x="64" y="384" width="64" height="64" shape-rendering="crispEdges" style="fill:#dbb96e;opacity:255;"></rect><rect id="3-7" x="128" y="384" width="64" height="64" shape-rendering="crispEdges" style="fill:#f2deae;opacity:255;"></rect><rect id="4-7" x="192" y="384" width="64" height="64" shape-rendering="crispEdges" style="fill:#f2deae;opacity:255;"></rect><rect id="5-7" x="256" y="384" width="64" height="64" shape-rendering="crispEdges" style="fill:#f2deae;opacity:255;"></rect><rect id="6-7" x="320" y="384" width="64" height="64" shape-rendering="crispEdges" style="fill:#f2deae;opacity:255;"></rect><rect id="7-7" x="384" y="384" width="64" height="64" shape-rendering="crispEdges" style="fill:#f2deae;opacity:255;"></rect><rect id="8-7" x="448" y="384" width="64" height="64" shape-rendering="crispEdges" style="fill:#e3ce9a;opacity:255;"></rect><rect id="9-7" x="512" y="384" width="64" height="64" shape-rendering="crispEdges" style="fill:#e3ce9a;opacity:255;"></rect><rect id="10-7" x="576" y="384" width="64" height="64" shape-rendering="crispEdges" style="fill:#e3ce9a;opacity:255;"></rect><rect id="11-7" x="640" y="384" width="64" height="64" shape-rendering="crispEdges" style="fill:#f2deae;opacity:255;"></rect><rect id="12-7" x="704" y="384" width="64" height="64" shape-rendering="crispEdges" style="fill:#f2deae;opacity:255;"></rect><rect id="13-7" x="768" y="384" width="64" height="64" shape-rendering="crispEdges" style="fill:#f2deae;opacity:255;"></rect><rect id="14-7" x="832" y="384" width="64" height="64" shape-rendering="crispEdges" style="fill:#c2ac78;opacity:255;"></rect><rect id="15-7" x="896" y="384" width="64" height="64" shape-rendering="crispEdges" style="fill:#c2ac78;opacity:255;"></rect><rect id="16-7" x="960" y="384" width="64" height="64" shape-rendering="crispEdges" style="fill:#c2ac78;opacity:255;"></rect><rect id="17-7" x="1024" y="384" width="64" height="64" shape-rendering="crispEdges" style="fill:#c2ac78;opacity:255;"></rect><rect id="18-7" x="1088" y="384" width="64" height="64" shape-rendering="crispEdges" style="fill:#c2ac78;opacity:255;"></rect><rect id="19-7" x="1152" y="384" width="64" height="64" shape-rendering="crispEdges" style="fill:#c2ac78;opacity:255;"></rect><rect id="20-7" x="1216" y="384" width="64" height="64" shape-rendering="crispEdges" style="fill:#c2ac78;opacity:255;"></rect><rect id="21-7" x="1280" y="384" width="64" height="64" shape-rendering="crispEdges" style="fill:#e5aa7a;opacity:255;"></rect><rect id="22-7" x="1344" y="384" width="64" height="64" shape-rendering="crispEdges" style="fill:#e3ce9a;opacity:255;"></rect><rect id="23-7" x="1408" y="384" width="64" height="64" shape-rendering="crispEdges" style="fill:#f2deae;opacity:255;"></rect><rect id="24-7" x="1472" y="384" width="64" height="64" shape-rendering="crispEdges" style="fill:#e3ce9a;opacity:255;"></rect><rect id="25-7" x="1536" y="384" width="64" height="64" shape-rendering="crispEdges" style="fill:#f2deae;opacity:255;"></rect><rect id="26-7" x="1600" y="384" width="64" height="64" shape-rendering="crispEdges" style="fill:#e3ce9a;opacity:255;"></rect><rect id="27-7" x="1664" y="384" width="64" height="64" shape-rendering="crispEdges" style="fill:#f2deae;opacity:255;"></rect><rect id="28-7" x="1728" y="384" width="64" height="64" shape-rendering="crispEdges" style="fill:#f2deae;opacity:255;"></rect><rect id="29-7" x="1792" y="384" width="64" height="64" shape-rendering="crispEdges" style="fill:#f2deae;opacity:255;"></rect><rect id="30-7" x="1856" y="384" width="64" height="64" shape-rendering="crispEdges" style="fill:#f2deae;opacity:255;"></rect><rect id="31-7" x="1920" y="384" width="64" height="64" shape-rendering="crispEdges" style="fill:#e8c884;opacity:255;"></rect><rect id="1-8" x="0" y="448" width="64" height="64" shape-rendering="crispEdges" style="fill:#dbb96e;opacity:255;"></rect><rect id="2-8" x="64" y="448" width="64" height="64" shape-rendering="crispEdges" style="fill:#f2deae;opacity:255;"></rect><rect id="3-8" x="128" y="448" width="64" height="64" shape-rendering="crispEdges" style="fill:#f2deae;opacity:255;"></rect><rect id="4-8" x="192" y="448" width="64" height="64" shape-rendering="crispEdges" style="fill:#e3ce9a;opacity:255;"></rect><rect id="5-8" x="256" y="448" width="64" height="64" shape-rendering="crispEdges" style="fill:#f2deae;opacity:255;"></rect><rect id="6-8" x="320" y="448" width="64" height="64" shape-rendering="crispEdges" style="fill:#e3ce9a;opacity:255;"></rect><rect id="7-8" x="384" y="448" width="64" height="64" shape-rendering="crispEdges" style="fill:#f2deae;opacity:255;"></rect><rect id="8-8" x="448" y="448" width="64" height="64" shape-rendering="crispEdges" style="fill:#e3ce9a;opacity:255;"></rect><rect id="9-8" x="512" y="448" width="64" height="64" shape-rendering="crispEdges" style="fill:#f2deae;opacity:255;"></rect><rect id="10-8" x="576" y="448" width="64" height="64" shape-rendering="crispEdges" style="fill:#f2deae;opacity:255;"></rect><rect id="11-8" x="640" y="448" width="64" height="64" shape-rendering="crispEdges" style="fill:#f2deae;opacity:255;"></rect><rect id="12-8" x="704" y="448" width="64" height="64" shape-rendering="crispEdges" style="fill:#c2ac78;opacity:255;"></rect><rect id="13-8" x="768" y="448" width="64" height="64" shape-rendering="crispEdges" style="fill:#c2ac78;opacity:255;"></rect><rect id="14-8" x="832" y="448" width="64" height="64" shape-rendering="crispEdges" style="fill:#c2ac78;opacity:255;"></rect><rect id="15-8" x="896" y="448" width="64" height="64" shape-rendering="crispEdges" style="fill:#c78756;opacity:255;"></rect><rect id="16-8" x="960" y="448" width="64" height="64" shape-rendering="crispEdges" style="fill:#c2ac78;opacity:255;"></rect><rect id="17-8" x="1024" y="448" width="64" height="64" shape-rendering="crispEdges" style="fill:#c78756;opacity:255;"></rect><rect id="18-8" x="1088" y="448" width="64" height="64" shape-rendering="crispEdges" style="fill:#c2ac78;opacity:255;"></rect><rect id="19-8" x="1152" y="448" width="64" height="64" shape-rendering="crispEdges" style="fill:#c2ac78;opacity:255;"></rect><rect id="20-8" x="1216" y="448" width="64" height="64" shape-rendering="crispEdges" style="fill:#c2ac78;opacity:255;"></rect><rect id="21-8" x="1280" y="448" width="64" height="64" shape-rendering="crispEdges" style="fill:#c2ac78;opacity:255;"></rect><rect id="22-8" x="1344" y="448" width="64" height="64" shape-rendering="crispEdges" style="fill:#e5aa7a;opacity:255;"></rect><rect id="23-8" x="1408" y="448" width="64" height="64" shape-rendering="crispEdges" style="fill:#f2deae;opacity:255;"></rect><rect id="24-8" x="1472" y="448" width="64" height="64" shape-rendering="crispEdges" style="fill:#f2deae;opacity:255;"></rect><rect id="25-8" x="1536" y="448" width="64" height="64" shape-rendering="crispEdges" style="fill:#f2deae;opacity:255;"></rect><rect id="26-8" x="1600" y="448" width="64" height="64" shape-rendering="crispEdges" style="fill:#f2deae;opacity:255;"></rect><rect id="27-8" x="1664" y="448" width="64" height="64" shape-rendering="crispEdges" style="fill:#f2deae;opacity:255;"></rect><rect id="28-8" x="1728" y="448" width="64" height="64" shape-rendering="crispEdges" style="fill:#e5aa7a;opacity:255;"></rect><rect id="29-8" x="1792" y="448" width="64" height="64" shape-rendering="crispEdges" style="fill:#c78756;opacity:255;"></rect><rect id="30-8" x="1856" y="448" width="64" height="64" shape-rendering="crispEdges" style="fill:#f2deae;opacity:255;"></rect><rect id="31-8" x="1920" y="448" width="64" height="64" shape-rendering="crispEdges" style="fill:#e3ce9a;opacity:255;"></rect><rect id="32-8" x="1984" y="448" width="64" height="64" shape-rendering="crispEdges" style="fill:#dbb96e;opacity:255;"></rect><rect id="1-9" x="0" y="512" width="64" height="64" shape-rendering="crispEdges" style="fill:#dbb96e;opacity:255;"></rect><rect id="2-9" x="64" y="512" width="64" height="64" shape-rendering="crispEdges" style="fill:#e3ce9a;opacity:255;"></rect><rect id="3-9" x="128" y="512" width="64" height="64" shape-rendering="crispEdges" style="fill:#e3ce9a;opacity:255;"></rect><rect id="4-9" x="192" y="512" width="64" height="64" shape-rendering="crispEdges" style="fill:#f2deae;opacity:255;"></rect><rect id="5-9" x="256" y="512" width="64" height="64" shape-rendering="crispEdges" style="fill:#e5aa7a;opacity:255;"></rect><rect id="6-9" x="320" y="512" width="64" height="64" shape-rendering="crispEdges" style="fill:#e3ce9a;opacity:255;"></rect><rect id="7-9" x="384" y="512" width="64" height="64" shape-rendering="crispEdges" style="fill:#f2deae;opacity:255;"></rect><rect id="8-9" x="448" y="512" width="64" height="64" shape-rendering="crispEdges" style="fill:#f2deae;opacity:255;"></rect><rect id="9-9" x="512" y="512" width="64" height="64" shape-rendering="crispEdges" style="fill:#e5aa7a;opacity:255;"></rect><rect id="10-9" x="576" y="512" width="64" height="64" shape-rendering="crispEdges" style="fill:#e5aa7a;opacity:255;"></rect><rect id="11-9" x="640" y="512" width="64" height="64" shape-rendering="crispEdges" style="fill:#c78756;opacity:255;"></rect><rect id="12-9" x="704" y="512" width="64" height="64" shape-rendering="crispEdges" style="fill:#c2ac78;opacity:255;"></rect><rect id="13-9" x="768" y="512" width="64" height="64" shape-rendering="crispEdges" style="fill:#c78756;opacity:255;"></rect><rect id="14-9" x="832" y="512" width="64" height="64" shape-rendering="crispEdges" style="fill:#c78756;opacity:255;"></rect><rect id="15-9" x="896" y="512" width="64" height="64" shape-rendering="crispEdges" style="fill:#c2ac78;opacity:255;"></rect><rect id="16-9" x="960" y="512" width="64" height="64" shape-rendering="crispEdges" style="fill:#c78756;opacity:255;"></rect><rect id="17-9" x="1024" y="512" width="64" height="64" shape-rendering="crispEdges" style="fill:#c2ac78;opacity:255;"></rect><rect id="18-9" x="1088" y="512" width="64" height="64" shape-rendering="crispEdges" style="fill:#c78756;opacity:255;"></rect><rect id="19-9" x="1152" y="512" width="64" height="64" shape-rendering="crispEdges" style="fill:#c2ac78;opacity:255;"></rect><rect id="20-9" x="1216" y="512" width="64" height="64" shape-rendering="crispEdges" style="fill:#c2ac78;opacity:255;"></rect><rect id="21-9" x="1280" y="512" width="64" height="64" shape-rendering="crispEdges" style="fill:#c2ac78;opacity:255;"></rect><rect id="22-9" x="1344" y="512" width="64" height="64" shape-rendering="crispEdges" style="fill:#e3ce9a;opacity:255;"></rect><rect id="23-9" x="1408" y="512" width="64" height="64" shape-rendering="crispEdges" style="fill:#e3ce9a;opacity:255;"></rect><rect id="24-9" x="1472" y="512" width="64" height="64" shape-rendering="crispEdges" style="fill:#e3ce9a;opacity:255;"></rect><rect id="25-9" x="1536" y="512" width="64" height="64" shape-rendering="crispEdges" style="fill:#f2deae;opacity:255;"></rect><rect id="26-9" x="1600" y="512" width="64" height="64" shape-rendering="crispEdges" style="fill:#e3ce9a;opacity:255;"></rect><rect id="27-9" x="1664" y="512" width="64" height="64" shape-rendering="crispEdges" style="fill:#e5aa7a;opacity:255;"></rect><rect id="28-9" x="1728" y="512" width="64" height="64" shape-rendering="crispEdges" style="fill:#e3ce9a;opacity:255;"></rect><rect id="29-9" x="1792" y="512" width="64" height="64" shape-rendering="crispEdges" style="fill:#f2deae;opacity:255;"></rect><rect id="30-9" x="1856" y="512" width="64" height="64" shape-rendering="crispEdges" style="fill:#e3ce9a;opacity:255;"></rect><rect id="31-9" x="1920" y="512" width="64" height="64" shape-rendering="crispEdges" style="fill:#e5aa7a;opacity:255;"></rect><rect id="32-9" x="1984" y="512" width="64" height="64" shape-rendering="crispEdges" style="fill:#dbb96e;opacity:255;"></rect><rect id="2-10" x="64" y="576" width="64" height="64" shape-rendering="crispEdges" style="fill:#dbb96e;opacity:255;"></rect><rect id="3-10" x="128" y="576" width="64" height="64" shape-rendering="crispEdges" style="fill:#e3ce9a;opacity:255;"></rect><rect id="4-10" x="192" y="576" width="64" height="64" shape-rendering="crispEdges" style="fill:#e3ce9a;opacity:255;"></rect><rect id="5-10" x="256" y="576" width="64" height="64" shape-rendering="crispEdges" style="fill:#f2deae;opacity:255;"></rect><rect id="6-10" x="320" y="576" width="64" height="64" shape-rendering="crispEdges" style="fill:#f2deae;opacity:255;"></rect><rect id="7-10" x="384" y="576" width="64" height="64" shape-rendering="crispEdges" style="fill:#e3ce9a;opacity:255;"></rect><rect id="8-10" x="448" y="576" width="64" height="64" shape-rendering="crispEdges" style="fill:#e3ce9a;opacity:255;"></rect><rect id="9-10" x="512" y="576" width="64" height="64" shape-rendering="crispEdges" style="fill:#f2deae;opacity:255;"></rect><rect id="10-10" x="576" y="576" width="64" height="64" shape-rendering="crispEdges" style="fill:#f2deae;opacity:255;"></rect><rect id="11-10" x="640" y="576" width="64" height="64" shape-rendering="crispEdges" style="fill:#e3ce9a;opacity:255;"></rect><rect id="12-10" x="704" y="576" width="64" height="64" shape-rendering="crispEdges" style="fill:#c2ac78;opacity:255;"></rect><rect id="13-10" x="768" y="576" width="64" height="64" shape-rendering="crispEdges" style="fill:#c2ac78;opacity:255;"></rect><rect id="14-10" x="832" y="576" width="64" height="64" shape-rendering="crispEdges" style="fill:#c2ac78;opacity:255;"></rect><rect id="15-10" x="896" y="576" width="64" height="64" shape-rendering="crispEdges" style="fill:#c2ac78;opacity:255;"></rect><rect id="16-10" x="960" y="576" width="64" height="64" shape-rendering="crispEdges" style="fill:#c2ac78;opacity:255;"></rect><rect id="17-10" x="1024" y="576" width="64" height="64" shape-rendering="crispEdges" style="fill:#c2ac78;opacity:255;"></rect><rect id="18-10" x="1088" y="576" width="64" height="64" shape-rendering="crispEdges" style="fill:#c2ac78;opacity:255;"></rect><rect id="19-10" x="1152" y="576" width="64" height="64" shape-rendering="crispEdges" style="fill:#c78756;opacity:255;"></rect><rect id="20-10" x="1216" y="576" width="64" height="64" shape-rendering="crispEdges" style="fill:#c78756;opacity:255;"></rect><rect id="21-10" x="1280" y="576" width="64" height="64" shape-rendering="crispEdges" style="fill:#e3ce9a;opacity:255;"></rect><rect id="22-10" x="1344" y="576" width="64" height="64" shape-rendering="crispEdges" style="fill:#e3ce9a;opacity:255;"></rect><rect id="23-10" x="1408" y="576" width="64" height="64" shape-rendering="crispEdges" style="fill:#f2deae;opacity:255;"></rect><rect id="24-10" x="1472" y="576" width="64" height="64" shape-rendering="crispEdges" style="fill:#e5aa7a;opacity:255;"></rect><rect id="25-10" x="1536" y="576" width="64" height="64" shape-rendering="crispEdges" style="fill:#e3ce9a;opacity:255;"></rect><rect id="26-10" x="1600" y="576" width="64" height="64" shape-rendering="crispEdges" style="fill:#e5aa7a;opacity:255;"></rect><rect id="27-10" x="1664" y="576" width="64" height="64" shape-rendering="crispEdges" style="fill:#e3ce9a;opacity:255;"></rect><rect id="28-10" x="1728" y="576" width="64" height="64" shape-rendering="crispEdges" style="fill:#e3ce9a;opacity:255;"></rect><rect id="29-10" x="1792" y="576" width="64" height="64" shape-rendering="crispEdges" style="fill:#e5aa7a;opacity:255;"></rect><rect id="30-10" x="1856" y="576" width="64" height="64" shape-rendering="crispEdges" style="fill:#e5aa7a;opacity:255;"></rect><rect id="31-10" x="1920" y="576" width="64" height="64" shape-rendering="crispEdges" style="fill:#dbb96e;opacity:255;"></rect><rect id="3-11" x="128" y="640" width="64" height="64" shape-rendering="crispEdges" style="fill:#c7a65a;opacity:255;"></rect><rect id="4-11" x="192" y="640" width="64" height="64" shape-rendering="crispEdges" style="fill:#c7a65a;opacity:255;"></rect><rect id="5-11" x="256" y="640" width="64" height="64" shape-rendering="crispEdges" style="fill:#e5aa7a;opacity:255;"></rect><rect id="6-11" x="320" y="640" width="64" height="64" shape-rendering="crispEdges" style="fill:#c78756;opacity:255;"></rect><rect id="7-11" x="384" y="640" width="64" height="64" shape-rendering="crispEdges" style="fill:#c78756;opacity:255;"></rect><rect id="8-11" x="448" y="640" width="64" height="64" shape-rendering="crispEdges" style="fill:#e5aa7a;opacity:255;"></rect><rect id="9-11" x="512" y="640" width="64" height="64" shape-rendering="crispEdges" style="fill:#e5aa7a;opacity:255;"></rect><rect id="10-11" x="576" y="640" width="64" height="64" shape-rendering="crispEdges" style="fill:#e3ce9a;opacity:255;"></rect><rect id="11-11" x="640" y="640" width="64" height="64" shape-rendering="crispEdges" style="fill:#e5aa7a;opacity:255;"></rect><rect id="12-11" x="704" y="640" width="64" height="64" shape-rendering="crispEdges" style="fill:#e5aa7a;opacity:255;"></rect><rect id="13-11" x="768" y="640" width="64" height="64" shape-rendering="crispEdges" style="fill:#e3ce9a;opacity:255;"></rect><rect id="14-11" x="832" y="640" width="64" height="64" shape-rendering="crispEdges" style="fill:#e3ce9a;opacity:255;"></rect><rect id="15-11" x="896" y="640" width="64" height="64" shape-rendering="crispEdges" style="fill:#e3ce9a;opacity:255;"></rect><rect id="16-11" x="960" y="640" width="64" height="64" shape-rendering="crispEdges" style="fill:#e3ce9a;opacity:255;"></rect><rect id="17-11" x="1024" y="640" width="64" height="64" shape-rendering="crispEdges" style="fill:#e3ce9a;opacity:255;"></rect><rect id="18-11" x="1088" y="640" width="64" height="64" shape-rendering="crispEdges" style="fill:#e3ce9a;opacity:255;"></rect><rect id="19-11" x="1152" y="640" width="64" height="64" shape-rendering="crispEdges" style="fill:#e3ce9a;opacity:255;"></rect><rect id="20-11" x="1216" y="640" width="64" height="64" shape-rendering="crispEdges" style="fill:#e3ce9a;opacity:255;"></rect><rect id="21-11" x="1280" y="640" width="64" height="64" shape-rendering="crispEdges" style="fill:#f2deae;opacity:255;"></rect><rect id="22-11" x="1344" y="640" width="64" height="64" shape-rendering="crispEdges" style="fill:#e3ce9a;opacity:255;"></rect><rect id="23-11" x="1408" y="640" width="64" height="64" shape-rendering="crispEdges" style="fill:#e5aa7a;opacity:255;"></rect><rect id="24-11" x="1472" y="640" width="64" height="64" shape-rendering="crispEdges" style="fill:#c78756;opacity:255;"></rect><rect id="25-11" x="1536" y="640" width="64" height="64" shape-rendering="crispEdges" style="fill:#c78756;opacity:255;"></rect><rect id="26-11" x="1600" y="640" width="64" height="64" shape-rendering="crispEdges" style="fill:#e3ce9a;opacity:255;"></rect><rect id="27-11" x="1664" y="640" width="64" height="64" shape-rendering="crispEdges" style="fill:#e3ce9a;opacity:255;"></rect><rect id="28-11" x="1728" y="640" width="64" height="64" shape-rendering="crispEdges" style="fill:#e5aa7a;opacity:255;"></rect><rect id="29-11" x="1792" y="640" width="64" height="64" shape-rendering="crispEdges" style="fill:#dbb96e;opacity:255;"></rect><rect id="30-11" x="1856" y="640" width="64" height="64" shape-rendering="crispEdges" style="fill:#dbb96e;opacity:255;"></rect><rect id="5-12" x="256" y="704" width="64" height="64" shape-rendering="crispEdges" style="fill:#c7a65a;opacity:255;"></rect><rect id="6-12" x="320" y="704" width="64" height="64" shape-rendering="crispEdges" style="fill:#c7a65a;opacity:255;"></rect><rect id="7-12" x="384" y="704" width="64" height="64" shape-rendering="crispEdges" style="fill:#c7a65a;opacity:255;"></rect><rect id="8-12" x="448" y="704" width="64" height="64" shape-rendering="crispEdges" style="fill:#c7a65a;opacity:255;"></rect><rect id="9-12" x="512" y="704" width="64" height="64" shape-rendering="crispEdges" style="fill:#b59750;opacity:255;"></rect><rect id="10-12" x="576" y="704" width="64" height="64" shape-rendering="crispEdges" style="fill:#e5aa7a;opacity:255;"></rect><rect id="11-12" x="640" y="704" width="64" height="64" shape-rendering="crispEdges" style="fill:#f2deae;opacity:255;"></rect><rect id="12-12" x="704" y="704" width="64" height="64" shape-rendering="crispEdges" style="fill:#e3ce9a;opacity:255;"></rect><rect id="13-12" x="768" y="704" width="64" height="64" shape-rendering="crispEdges" style="fill:#e3ce9a;opacity:255;"></rect><rect id="14-12" x="832" y="704" width="64" height="64" shape-rendering="crispEdges" style="fill:#e3ce9a;opacity:255;"></rect><rect id="15-12" x="896" y="704" width="64" height="64" shape-rendering="crispEdges" style="fill:#e3ce9a;opacity:255;"></rect><rect id="16-12" x="960" y="704" width="64" height="64" shape-rendering="crispEdges" style="fill:#e3ce9a;opacity:255;"></rect><rect id="17-12" x="1024" y="704" width="64" height="64" shape-rendering="crispEdges" style="fill:#e3ce9a;opacity:255;"></rect><rect id="18-12" x="1088" y="704" width="64" height="64" shape-rendering="crispEdges" style="fill:#e5aa7a;opacity:255;"></rect><rect id="19-12" x="1152" y="704" width="64" height="64" shape-rendering="crispEdges" style="fill:#c78756;opacity:255;"></rect><rect id="20-12" x="1216" y="704" width="64" height="64" shape-rendering="crispEdges" style="fill:#e5aa7a;opacity:255;"></rect><rect id="21-12" x="1280" y="704" width="64" height="64" shape-rendering="crispEdges" style="fill:#e3ce9a;opacity:255;"></rect><rect id="22-12" x="1344" y="704" width="64" height="64" shape-rendering="crispEdges" style="fill:#f2deae;opacity:255;"></rect><rect id="23-12" x="1408" y="704" width="64" height="64" shape-rendering="crispEdges" style="fill:#c78756;opacity:255;"></rect><rect id="24-12" x="1472" y="704" width="64" height="64" shape-rendering="crispEdges" style="fill:#c7a65a;opacity:255;"></rect><rect id="25-12" x="1536" y="704" width="64" height="64" shape-rendering="crispEdges" style="fill:#c7a65a;opacity:255;"></rect><rect id="26-12" x="1600" y="704" width="64" height="64" shape-rendering="crispEdges" style="fill:#c7a65a;opacity:255;"></rect><rect id="27-12" x="1664" y="704" width="64" height="64" shape-rendering="crispEdges" style="fill:#c7a65a;opacity:255;"></rect><rect id="28-12" x="1728" y="704" width="64" height="64" shape-rendering="crispEdges" style="fill:#c7a65a;opacity:255;"></rect><rect id="10-13" x="576" y="768" width="64" height="64" shape-rendering="crispEdges" style="fill:#b59750;opacity:255;"></rect><rect id="11-13" x="640" y="768" width="64" height="64" shape-rendering="crispEdges" style="fill:#b59750;opacity:255;"></rect><rect id="12-13" x="704" y="768" width="64" height="64" shape-rendering="crispEdges" style="fill:#b59750;opacity:255;"></rect><rect id="13-13" x="768" y="768" width="64" height="64" shape-rendering="crispEdges" style="fill:#b59750;opacity:255;"></rect><rect id="14-13" x="832" y="768" width="64" height="64" shape-rendering="crispEdges" style="fill:#b59750;opacity:255;"></rect><rect id="15-13" x="896" y="768" width="64" height="64" shape-rendering="crispEdges" style="fill:#b59750;opacity:255;"></rect><rect id="16-13" x="960" y="768" width="64" height="64" shape-rendering="crispEdges" style="fill:#b59750;opacity:255;"></rect><rect id="17-13" x="1024" y="768" width="64" height="64" shape-rendering="crispEdges" style="fill:#b59750;opacity:255;"></rect><rect id="18-13" x="1088" y="768" width="64" height="64" shape-rendering="crispEdges" style="fill:#b59750;opacity:255;"></rect><rect id="19-13" x="1152" y="768" width="64" height="64" shape-rendering="crispEdges" style="fill:#c7a65a;opacity:255;"></rect><rect id="20-13" x="1216" y="768" width="64" height="64" shape-rendering="crispEdges" style="fill:#c7a65a;opacity:255;"></rect><rect id="21-13" x="1280" y="768" width="64" height="64" shape-rendering="crispEdges" style="fill:#c7a65a;opacity:255;"></rect><rect id="22-13" x="1344" y="768" width="64" height="64" shape-rendering="crispEdges" style="fill:#c7a65a;opacity:255;"></rect><rect id="23-13" x="1408" y="768" width="64" height="64" shape-rendering="crispEdges" style="fill:#c7a65a;opacity:255;"></rect></svg>