<?xml version="1.0" encoding="UTF-8" standalone="no"?><svg xmlns="http://www.w3.org/2000/svg" id="pixil-frame-0-(16)" width="2048" height="2048" viewBox="0 0 2048 2048" preserveAspectRatio="xMidYMid meet" rendering="crispEdges"><rect id="10-12" x="576" y="704" width="64" height="64" shape-rendering="crispEdges" style="fill:#e8c884;opacity:255;"></rect><rect id="11-12" x="640" y="704" width="64" height="64" shape-rendering="crispEdges" style="fill:#e8c884;opacity:255;"></rect><rect id="12-12" x="704" y="704" width="64" height="64" shape-rendering="crispEdges" style="fill:#e8c884;opacity:255;"></rect><rect id="13-12" x="768" y="704" width="64" height="64" shape-rendering="crispEdges" style="fill:#e8c884;opacity:255;"></rect><rect id="14-12" x="832" y="704" width="64" height="64" shape-rendering="crispEdges" style="fill:#e8c884;opacity:255;"></rect><rect id="15-12" x="896" y="704" width="64" height="64" shape-rendering="crispEdges" style="fill:#e8c884;opacity:255;"></rect><rect id="16-12" x="960" y="704" width="64" height="64" shape-rendering="crispEdges" style="fill:#e8c884;opacity:255;"></rect><rect id="17-12" x="1024" y="704" width="64" height="64" shape-rendering="crispEdges" style="fill:#e8c884;opacity:255;"></rect><rect id="18-12" x="1088" y="704" width="64" height="64" shape-rendering="crispEdges" style="fill:#e8c884;opacity:255;"></rect><rect id="19-12" x="1152" y="704" width="64" height="64" shape-rendering="crispEdges" style="fill:#e8c884;opacity:255;"></rect><rect id="20-12" x="1216" y="704" width="64" height="64" shape-rendering="crispEdges" style="fill:#e8c884;opacity:255;"></rect><rect id="21-12" x="1280" y="704" width="64" height="64" shape-rendering="crispEdges" style="fill:#e8c884;opacity:255;"></rect><rect id="22-12" x="1344" y="704" width="64" height="64" shape-rendering="crispEdges" style="fill:#e8c884;opacity:255;"></rect><rect id="23-12" x="1408" y="704" width="64" height="64" shape-rendering="crispEdges" style="fill:#e8c884;opacity:255;"></rect><rect id="5-13" x="256" y="768" width="64" height="64" shape-rendering="crispEdges" style="fill:#dbb96e;opacity:255;"></rect><rect id="6-13" x="320" y="768" width="64" height="64" shape-rendering="crispEdges" style="fill:#dbb96e;opacity:255;"></rect><rect id="7-13" x="384" y="768" width="64" height="64" shape-rendering="crispEdges" style="fill:#dbb96e;opacity:255;"></rect><rect id="8-13" x="448" y="768" width="64" height="64" shape-rendering="crispEdges" style="fill:#dbb96e;opacity:255;"></rect><rect id="9-13" x="512" y="768" width="64" height="64" shape-rendering="crispEdges" style="fill:#dbb96e;opacity:255;"></rect><rect id="10-13" x="576" y="768" width="64" height="64" shape-rendering="crispEdges" style="fill:#f2deae;opacity:255;"></rect><rect id="11-13" x="640" y="768" width="64" height="64" shape-rendering="crispEdges" style="fill:#f2deae;opacity:255;"></rect><rect id="12-13" x="704" y="768" width="64" height="64" shape-rendering="crispEdges" style="fill:#f2deae;opacity:255;"></rect><rect id="13-13" x="768" y="768" width="64" height="64" shape-rendering="crispEdges" style="fill:#f2deae;opacity:255;"></rect><rect id="14-13" x="832" y="768" width="64" height="64" shape-rendering="crispEdges" style="fill:#e3ce9a;opacity:255;"></rect><rect id="15-13" x="896" y="768" width="64" height="64" shape-rendering="crispEdges" style="fill:#f2deae;opacity:255;"></rect><rect id="16-13" x="960" y="768" width="64" height="64" shape-rendering="crispEdges" style="fill:#f2deae;opacity:255;"></rect><rect id="17-13" x="1024" y="768" width="64" height="64" shape-rendering="crispEdges" style="fill:#f2deae;opacity:255;"></rect><rect id="18-13" x="1088" y="768" width="64" height="64" shape-rendering="crispEdges" style="fill:#f2deae;opacity:255;"></rect><rect id="19-13" x="1152" y="768" width="64" height="64" shape-rendering="crispEdges" style="fill:#f2deae;opacity:255;"></rect><rect id="20-13" x="1216" y="768" width="64" height="64" shape-rendering="crispEdges" style="fill:#f2deae;opacity:255;"></rect><rect id="21-13" x="1280" y="768" width="64" height="64" shape-rendering="crispEdges" style="fill:#f2deae;opacity:255;"></rect><rect id="22-13" x="1344" y="768" width="64" height="64" shape-rendering="crispEdges" style="fill:#f2deae;opacity:255;"></rect><rect id="23-13" x="1408" y="768" width="64" height="64" shape-rendering="crispEdges" style="fill:#f2deae;opacity:255;"></rect><rect id="24-13" x="1472" y="768" width="64" height="64" shape-rendering="crispEdges" style="fill:#e8c884;opacity:255;"></rect><rect id="25-13" x="1536" y="768" width="64" height="64" shape-rendering="crispEdges" style="fill:#e8c884;opacity:255;"></rect><rect id="26-13" x="1600" y="768" width="64" height="64" shape-rendering="crispEdges" style="fill:#e8c884;opacity:255;"></rect><rect id="27-13" x="1664" y="768" width="64" height="64" shape-rendering="crispEdges" style="fill:#e8c884;opacity:255;"></rect><rect id="28-13" x="1728" y="768" width="64" height="64" shape-rendering="crispEdges" style="fill:#e8c884;opacity:255;"></rect><rect id="3-14" x="128" y="832" width="64" height="64" shape-rendering="crispEdges" style="fill:#dbb96e;opacity:255;"></rect><rect id="4-14" x="192" y="832" width="64" height="64" shape-rendering="crispEdges" style="fill:#dbb96e;opacity:255;"></rect><rect id="5-14" x="256" y="832" width="64" height="64" shape-rendering="crispEdges" style="fill:#f2deae;opacity:255;"></rect><rect id="6-14" x="320" y="832" width="64" height="64" shape-rendering="crispEdges" style="fill:#f2deae;opacity:255;"></rect><rect id="7-14" x="384" y="832" width="64" height="64" shape-rendering="crispEdges" style="fill:#f2deae;opacity:255;"></rect><rect id="8-14" x="448" y="832" width="64" height="64" shape-rendering="crispEdges" style="fill:#c78756;opacity:255;"></rect><rect id="9-14" x="512" y="832" width="64" height="64" shape-rendering="crispEdges" style="fill:#f2deae;opacity:255;"></rect><rect id="10-14" x="576" y="832" width="64" height="64" shape-rendering="crispEdges" style="fill:#f2deae;opacity:255;"></rect><rect id="11-14" x="640" y="832" width="64" height="64" shape-rendering="crispEdges" style="fill:#e5aa7a;opacity:255;"></rect><rect id="12-14" x="704" y="832" width="64" height="64" shape-rendering="crispEdges" style="fill:#f2deae;opacity:255;"></rect><rect id="13-14" x="768" y="832" width="64" height="64" shape-rendering="crispEdges" style="fill:#e5aa7a;opacity:255;"></rect><rect id="14-14" x="832" y="832" width="64" height="64" shape-rendering="crispEdges" style="fill:#f2deae;opacity:255;"></rect><rect id="15-14" x="896" y="832" width="64" height="64" shape-rendering="crispEdges" style="fill:#c2ac78;opacity:255;"></rect><rect id="16-14" x="960" y="832" width="64" height="64" shape-rendering="crispEdges" style="fill:#c2ac78;opacity:255;"></rect><rect id="17-14" x="1024" y="832" width="64" height="64" shape-rendering="crispEdges" style="fill:#c2ac78;opacity:255;"></rect><rect id="18-14" x="1088" y="832" width="64" height="64" shape-rendering="crispEdges" style="fill:#c2ac78;opacity:255;"></rect><rect id="19-14" x="1152" y="832" width="64" height="64" shape-rendering="crispEdges" style="fill:#e5aa7a;opacity:255;"></rect><rect id="20-14" x="1216" y="832" width="64" height="64" shape-rendering="crispEdges" style="fill:#e3ce9a;opacity:255;"></rect><rect id="21-14" x="1280" y="832" width="64" height="64" shape-rendering="crispEdges" style="fill:#f2deae;opacity:255;"></rect><rect id="22-14" x="1344" y="832" width="64" height="64" shape-rendering="crispEdges" style="fill:#f2deae;opacity:255;"></rect><rect id="23-14" x="1408" y="832" width="64" height="64" shape-rendering="crispEdges" style="fill:#f2deae;opacity:255;"></rect><rect id="24-14" x="1472" y="832" width="64" height="64" shape-rendering="crispEdges" style="fill:#f2deae;opacity:255;"></rect><rect id="25-14" x="1536" y="832" width="64" height="64" shape-rendering="crispEdges" style="fill:#f2deae;opacity:255;"></rect><rect id="26-14" x="1600" y="832" width="64" height="64" shape-rendering="crispEdges" style="fill:#f2deae;opacity:255;"></rect><rect id="27-14" x="1664" y="832" width="64" height="64" shape-rendering="crispEdges" style="fill:#f2deae;opacity:255;"></rect><rect id="28-14" x="1728" y="832" width="64" height="64" shape-rendering="crispEdges" style="fill:#f2deae;opacity:255;"></rect><rect id="29-14" x="1792" y="832" width="64" height="64" shape-rendering="crispEdges" style="fill:#e8c884;opacity:255;"></rect><rect id="30-14" x="1856" y="832" width="64" height="64" shape-rendering="crispEdges" style="fill:#e8c884;opacity:255;"></rect><rect id="2-15" x="64" y="896" width="64" height="64" shape-rendering="crispEdges" style="fill:#dbb96e;opacity:255;"></rect><rect id="3-15" x="128" y="896" width="64" height="64" shape-rendering="crispEdges" style="fill:#f2deae;opacity:255;"></rect><rect id="4-15" x="192" y="896" width="64" height="64" shape-rendering="crispEdges" style="fill:#f2deae;opacity:255;"></rect><rect id="5-15" x="256" y="896" width="64" height="64" shape-rendering="crispEdges" style="fill:#f2deae;opacity:255;"></rect><rect id="6-15" x="320" y="896" width="64" height="64" shape-rendering="crispEdges" style="fill:#f2deae;opacity:255;"></rect><rect id="7-15" x="384" y="896" width="64" height="64" shape-rendering="crispEdges" style="fill:#f2deae;opacity:255;"></rect><rect id="8-15" x="448" y="896" width="64" height="64" shape-rendering="crispEdges" style="fill:#e3ce9a;opacity:255;"></rect><rect id="9-15" x="512" y="896" width="64" height="64" shape-rendering="crispEdges" style="fill:#e3ce9a;opacity:255;"></rect><rect id="10-15" x="576" y="896" width="64" height="64" shape-rendering="crispEdges" style="fill:#e3ce9a;opacity:255;"></rect><rect id="11-15" x="640" y="896" width="64" height="64" shape-rendering="crispEdges" style="fill:#f2deae;opacity:255;"></rect><rect id="12-15" x="704" y="896" width="64" height="64" shape-rendering="crispEdges" style="fill:#f2deae;opacity:255;"></rect><rect id="13-15" x="768" y="896" width="64" height="64" shape-rendering="crispEdges" style="fill:#f2deae;opacity:255;"></rect><rect id="14-15" x="832" y="896" width="64" height="64" shape-rendering="crispEdges" style="fill:#c2ac78;opacity:255;"></rect><rect id="15-15" x="896" y="896" width="64" height="64" shape-rendering="crispEdges" style="fill:#c2ac78;opacity:255;"></rect><rect id="16-15" x="960" y="896" width="64" height="64" shape-rendering="crispEdges" style="fill:#c2ac78;opacity:255;"></rect><rect id="17-15" x="1024" y="896" width="64" height="64" shape-rendering="crispEdges" style="fill:#c2ac78;opacity:255;"></rect><rect id="18-15" x="1088" y="896" width="64" height="64" shape-rendering="crispEdges" style="fill:#c2ac78;opacity:255;"></rect><rect id="19-15" x="1152" y="896" width="64" height="64" shape-rendering="crispEdges" style="fill:#c2ac78;opacity:255;"></rect><rect id="20-15" x="1216" y="896" width="64" height="64" shape-rendering="crispEdges" style="fill:#c2ac78;opacity:255;"></rect><rect id="21-15" x="1280" y="896" width="64" height="64" shape-rendering="crispEdges" style="fill:#e5aa7a;opacity:255;"></rect><rect id="22-15" x="1344" y="896" width="64" height="64" shape-rendering="crispEdges" style="fill:#e3ce9a;opacity:255;"></rect><rect id="23-15" x="1408" y="896" width="64" height="64" shape-rendering="crispEdges" style="fill:#f2deae;opacity:255;"></rect><rect id="24-15" x="1472" y="896" width="64" height="64" shape-rendering="crispEdges" style="fill:#e3ce9a;opacity:255;"></rect><rect id="25-15" x="1536" y="896" width="64" height="64" shape-rendering="crispEdges" style="fill:#f2deae;opacity:255;"></rect><rect id="26-15" x="1600" y="896" width="64" height="64" shape-rendering="crispEdges" style="fill:#e3ce9a;opacity:255;"></rect><rect id="27-15" x="1664" y="896" width="64" height="64" shape-rendering="crispEdges" style="fill:#f2deae;opacity:255;"></rect><rect id="28-15" x="1728" y="896" width="64" height="64" shape-rendering="crispEdges" style="fill:#f2deae;opacity:255;"></rect><rect id="29-15" x="1792" y="896" width="64" height="64" shape-rendering="crispEdges" style="fill:#f2deae;opacity:255;"></rect><rect id="30-15" x="1856" y="896" width="64" height="64" shape-rendering="crispEdges" style="fill:#f2deae;opacity:255;"></rect><rect id="31-15" x="1920" y="896" width="64" height="64" shape-rendering="crispEdges" style="fill:#e8c884;opacity:255;"></rect><rect id="1-16" x="0" y="960" width="64" height="64" shape-rendering="crispEdges" style="fill:#dbb96e;opacity:255;"></rect><rect id="2-16" x="64" y="960" width="64" height="64" shape-rendering="crispEdges" style="fill:#f2deae;opacity:255;"></rect><rect id="3-16" x="128" y="960" width="64" height="64" shape-rendering="crispEdges" style="fill:#f2deae;opacity:255;"></rect><rect id="4-16" x="192" y="960" width="64" height="64" shape-rendering="crispEdges" style="fill:#e3ce9a;opacity:255;"></rect><rect id="5-16" x="256" y="960" width="64" height="64" shape-rendering="crispEdges" style="fill:#f2deae;opacity:255;"></rect><rect id="6-16" x="320" y="960" width="64" height="64" shape-rendering="crispEdges" style="fill:#e3ce9a;opacity:255;"></rect><rect id="7-16" x="384" y="960" width="64" height="64" shape-rendering="crispEdges" style="fill:#f2deae;opacity:255;"></rect><rect id="8-16" x="448" y="960" width="64" height="64" shape-rendering="crispEdges" style="fill:#e3ce9a;opacity:255;"></rect><rect id="9-16" x="512" y="960" width="64" height="64" shape-rendering="crispEdges" style="fill:#f2deae;opacity:255;"></rect><rect id="10-16" x="576" y="960" width="64" height="64" shape-rendering="crispEdges" style="fill:#f2deae;opacity:255;"></rect><rect id="11-16" x="640" y="960" width="64" height="64" shape-rendering="crispEdges" style="fill:#f2deae;opacity:255;"></rect><rect id="12-16" x="704" y="960" width="64" height="64" shape-rendering="crispEdges" style="fill:#c2ac78;opacity:255;"></rect><rect id="13-16" x="768" y="960" width="64" height="64" shape-rendering="crispEdges" style="fill:#c2ac78;opacity:255;"></rect><rect id="14-16" x="832" y="960" width="64" height="64" shape-rendering="crispEdges" style="fill:#c2ac78;opacity:255;"></rect><rect id="15-16" x="896" y="960" width="64" height="64" shape-rendering="crispEdges" style="fill:#c78756;opacity:255;"></rect><rect id="16-16" x="960" y="960" width="64" height="64" shape-rendering="crispEdges" style="fill:#c2ac78;opacity:255;"></rect><rect id="17-16" x="1024" y="960" width="64" height="64" shape-rendering="crispEdges" style="fill:#c78756;opacity:255;"></rect><rect id="18-16" x="1088" y="960" width="64" height="64" shape-rendering="crispEdges" style="fill:#c2ac78;opacity:255;"></rect><rect id="19-16" x="1152" y="960" width="64" height="64" shape-rendering="crispEdges" style="fill:#c2ac78;opacity:255;"></rect><rect id="20-16" x="1216" y="960" width="64" height="64" shape-rendering="crispEdges" style="fill:#c2ac78;opacity:255;"></rect><rect id="21-16" x="1280" y="960" width="64" height="64" shape-rendering="crispEdges" style="fill:#c2ac78;opacity:255;"></rect><rect id="22-16" x="1344" y="960" width="64" height="64" shape-rendering="crispEdges" style="fill:#e5aa7a;opacity:255;"></rect><rect id="23-16" x="1408" y="960" width="64" height="64" shape-rendering="crispEdges" style="fill:#f2deae;opacity:255;"></rect><rect id="24-16" x="1472" y="960" width="64" height="64" shape-rendering="crispEdges" style="fill:#f2deae;opacity:255;"></rect><rect id="25-16" x="1536" y="960" width="64" height="64" shape-rendering="crispEdges" style="fill:#f2deae;opacity:255;"></rect><rect id="26-16" x="1600" y="960" width="64" height="64" shape-rendering="crispEdges" style="fill:#f2deae;opacity:255;"></rect><rect id="27-16" x="1664" y="960" width="64" height="64" shape-rendering="crispEdges" style="fill:#f2deae;opacity:255;"></rect><rect id="28-16" x="1728" y="960" width="64" height="64" shape-rendering="crispEdges" style="fill:#e5aa7a;opacity:255;"></rect><rect id="29-16" x="1792" y="960" width="64" height="64" shape-rendering="crispEdges" style="fill:#c78756;opacity:255;"></rect><rect id="30-16" x="1856" y="960" width="64" height="64" shape-rendering="crispEdges" style="fill:#f2deae;opacity:255;"></rect><rect id="31-16" x="1920" y="960" width="64" height="64" shape-rendering="crispEdges" style="fill:#e3ce9a;opacity:255;"></rect><rect id="32-16" x="1984" y="960" width="64" height="64" shape-rendering="crispEdges" style="fill:#dbb96e;opacity:255;"></rect><rect id="1-17" x="0" y="1024" width="64" height="64" shape-rendering="crispEdges" style="fill:#dbb96e;opacity:255;"></rect><rect id="2-17" x="64" y="1024" width="64" height="64" shape-rendering="crispEdges" style="fill:#e3ce9a;opacity:255;"></rect><rect id="3-17" x="128" y="1024" width="64" height="64" shape-rendering="crispEdges" style="fill:#e3ce9a;opacity:255;"></rect><rect id="4-17" x="192" y="1024" width="64" height="64" shape-rendering="crispEdges" style="fill:#f2deae;opacity:255;"></rect><rect id="5-17" x="256" y="1024" width="64" height="64" shape-rendering="crispEdges" style="fill:#e5aa7a;opacity:255;"></rect><rect id="6-17" x="320" y="1024" width="64" height="64" shape-rendering="crispEdges" style="fill:#e3ce9a;opacity:255;"></rect><rect id="7-17" x="384" y="1024" width="64" height="64" shape-rendering="crispEdges" style="fill:#f2deae;opacity:255;"></rect><rect id="8-17" x="448" y="1024" width="64" height="64" shape-rendering="crispEdges" style="fill:#f2deae;opacity:255;"></rect><rect id="9-17" x="512" y="1024" width="64" height="64" shape-rendering="crispEdges" style="fill:#e5aa7a;opacity:255;"></rect><rect id="10-17" x="576" y="1024" width="64" height="64" shape-rendering="crispEdges" style="fill:#e5aa7a;opacity:255;"></rect><rect id="11-17" x="640" y="1024" width="64" height="64" shape-rendering="crispEdges" style="fill:#c78756;opacity:255;"></rect><rect id="12-17" x="704" y="1024" width="64" height="64" shape-rendering="crispEdges" style="fill:#c2ac78;opacity:255;"></rect><rect id="13-17" x="768" y="1024" width="64" height="64" shape-rendering="crispEdges" style="fill:#c78756;opacity:255;"></rect><rect id="14-17" x="832" y="1024" width="64" height="64" shape-rendering="crispEdges" style="fill:#c78756;opacity:255;"></rect><rect id="15-17" x="896" y="1024" width="64" height="64" shape-rendering="crispEdges" style="fill:#c2ac78;opacity:255;"></rect><rect id="16-17" x="960" y="1024" width="64" height="64" shape-rendering="crispEdges" style="fill:#c78756;opacity:255;"></rect><rect id="17-17" x="1024" y="1024" width="64" height="64" shape-rendering="crispEdges" style="fill:#c2ac78;opacity:255;"></rect><rect id="18-17" x="1088" y="1024" width="64" height="64" shape-rendering="crispEdges" style="fill:#c78756;opacity:255;"></rect><rect id="19-17" x="1152" y="1024" width="64" height="64" shape-rendering="crispEdges" style="fill:#c2ac78;opacity:255;"></rect><rect id="20-17" x="1216" y="1024" width="64" height="64" shape-rendering="crispEdges" style="fill:#c2ac78;opacity:255;"></rect><rect id="21-17" x="1280" y="1024" width="64" height="64" shape-rendering="crispEdges" style="fill:#c2ac78;opacity:255;"></rect><rect id="22-17" x="1344" y="1024" width="64" height="64" shape-rendering="crispEdges" style="fill:#e3ce9a;opacity:255;"></rect><rect id="23-17" x="1408" y="1024" width="64" height="64" shape-rendering="crispEdges" style="fill:#e3ce9a;opacity:255;"></rect><rect id="24-17" x="1472" y="1024" width="64" height="64" shape-rendering="crispEdges" style="fill:#e3ce9a;opacity:255;"></rect><rect id="25-17" x="1536" y="1024" width="64" height="64" shape-rendering="crispEdges" style="fill:#f2deae;opacity:255;"></rect><rect id="26-17" x="1600" y="1024" width="64" height="64" shape-rendering="crispEdges" style="fill:#e3ce9a;opacity:255;"></rect><rect id="27-17" x="1664" y="1024" width="64" height="64" shape-rendering="crispEdges" style="fill:#e5aa7a;opacity:255;"></rect><rect id="28-17" x="1728" y="1024" width="64" height="64" shape-rendering="crispEdges" style="fill:#e3ce9a;opacity:255;"></rect><rect id="29-17" x="1792" y="1024" width="64" height="64" shape-rendering="crispEdges" style="fill:#f2deae;opacity:255;"></rect><rect id="30-17" x="1856" y="1024" width="64" height="64" shape-rendering="crispEdges" style="fill:#e3ce9a;opacity:255;"></rect><rect id="31-17" x="1920" y="1024" width="64" height="64" shape-rendering="crispEdges" style="fill:#e5aa7a;opacity:255;"></rect><rect id="32-17" x="1984" y="1024" width="64" height="64" shape-rendering="crispEdges" style="fill:#dbb96e;opacity:255;"></rect><rect id="2-18" x="64" y="1088" width="64" height="64" shape-rendering="crispEdges" style="fill:#dbb96e;opacity:255;"></rect><rect id="3-18" x="128" y="1088" width="64" height="64" shape-rendering="crispEdges" style="fill:#e3ce9a;opacity:255;"></rect><rect id="4-18" x="192" y="1088" width="64" height="64" shape-rendering="crispEdges" style="fill:#e3ce9a;opacity:255;"></rect><rect id="5-18" x="256" y="1088" width="64" height="64" shape-rendering="crispEdges" style="fill:#f2deae;opacity:255;"></rect><rect id="6-18" x="320" y="1088" width="64" height="64" shape-rendering="crispEdges" style="fill:#f2deae;opacity:255;"></rect><rect id="7-18" x="384" y="1088" width="64" height="64" shape-rendering="crispEdges" style="fill:#e3ce9a;opacity:255;"></rect><rect id="8-18" x="448" y="1088" width="64" height="64" shape-rendering="crispEdges" style="fill:#e3ce9a;opacity:255;"></rect><rect id="9-18" x="512" y="1088" width="64" height="64" shape-rendering="crispEdges" style="fill:#f2deae;opacity:255;"></rect><rect id="10-18" x="576" y="1088" width="64" height="64" shape-rendering="crispEdges" style="fill:#f2deae;opacity:255;"></rect><rect id="11-18" x="640" y="1088" width="64" height="64" shape-rendering="crispEdges" style="fill:#e3ce9a;opacity:255;"></rect><rect id="12-18" x="704" y="1088" width="64" height="64" shape-rendering="crispEdges" style="fill:#c2ac78;opacity:255;"></rect><rect id="13-18" x="768" y="1088" width="64" height="64" shape-rendering="crispEdges" style="fill:#c2ac78;opacity:255;"></rect><rect id="14-18" x="832" y="1088" width="64" height="64" shape-rendering="crispEdges" style="fill:#c2ac78;opacity:255;"></rect><rect id="15-18" x="896" y="1088" width="64" height="64" shape-rendering="crispEdges" style="fill:#c2ac78;opacity:255;"></rect><rect id="16-18" x="960" y="1088" width="64" height="64" shape-rendering="crispEdges" style="fill:#c2ac78;opacity:255;"></rect><rect id="17-18" x="1024" y="1088" width="64" height="64" shape-rendering="crispEdges" style="fill:#c2ac78;opacity:255;"></rect><rect id="18-18" x="1088" y="1088" width="64" height="64" shape-rendering="crispEdges" style="fill:#c2ac78;opacity:255;"></rect><rect id="19-18" x="1152" y="1088" width="64" height="64" shape-rendering="crispEdges" style="fill:#c78756;opacity:255;"></rect><rect id="20-18" x="1216" y="1088" width="64" height="64" shape-rendering="crispEdges" style="fill:#c78756;opacity:255;"></rect><rect id="21-18" x="1280" y="1088" width="64" height="64" shape-rendering="crispEdges" style="fill:#e3ce9a;opacity:255;"></rect><rect id="22-18" x="1344" y="1088" width="64" height="64" shape-rendering="crispEdges" style="fill:#e3ce9a;opacity:255;"></rect><rect id="23-18" x="1408" y="1088" width="64" height="64" shape-rendering="crispEdges" style="fill:#f2deae;opacity:255;"></rect><rect id="24-18" x="1472" y="1088" width="64" height="64" shape-rendering="crispEdges" style="fill:#e5aa7a;opacity:255;"></rect><rect id="25-18" x="1536" y="1088" width="64" height="64" shape-rendering="crispEdges" style="fill:#e3ce9a;opacity:255;"></rect><rect id="26-18" x="1600" y="1088" width="64" height="64" shape-rendering="crispEdges" style="fill:#e5aa7a;opacity:255;"></rect><rect id="27-18" x="1664" y="1088" width="64" height="64" shape-rendering="crispEdges" style="fill:#e3ce9a;opacity:255;"></rect><rect id="28-18" x="1728" y="1088" width="64" height="64" shape-rendering="crispEdges" style="fill:#e3ce9a;opacity:255;"></rect><rect id="29-18" x="1792" y="1088" width="64" height="64" shape-rendering="crispEdges" style="fill:#e5aa7a;opacity:255;"></rect><rect id="30-18" x="1856" y="1088" width="64" height="64" shape-rendering="crispEdges" style="fill:#e5aa7a;opacity:255;"></rect><rect id="31-18" x="1920" y="1088" width="64" height="64" shape-rendering="crispEdges" style="fill:#dbb96e;opacity:255;"></rect><rect id="3-19" x="128" y="1152" width="64" height="64" shape-rendering="crispEdges" style="fill:#c7a65a;opacity:255;"></rect><rect id="4-19" x="192" y="1152" width="64" height="64" shape-rendering="crispEdges" style="fill:#c7a65a;opacity:255;"></rect><rect id="5-19" x="256" y="1152" width="64" height="64" shape-rendering="crispEdges" style="fill:#e5aa7a;opacity:255;"></rect><rect id="6-19" x="320" y="1152" width="64" height="64" shape-rendering="crispEdges" style="fill:#c78756;opacity:255;"></rect><rect id="7-19" x="384" y="1152" width="64" height="64" shape-rendering="crispEdges" style="fill:#c78756;opacity:255;"></rect><rect id="8-19" x="448" y="1152" width="64" height="64" shape-rendering="crispEdges" style="fill:#e5aa7a;opacity:255;"></rect><rect id="9-19" x="512" y="1152" width="64" height="64" shape-rendering="crispEdges" style="fill:#e5aa7a;opacity:255;"></rect><rect id="10-19" x="576" y="1152" width="64" height="64" shape-rendering="crispEdges" style="fill:#e3ce9a;opacity:255;"></rect><rect id="11-19" x="640" y="1152" width="64" height="64" shape-rendering="crispEdges" style="fill:#e5aa7a;opacity:255;"></rect><rect id="12-19" x="704" y="1152" width="64" height="64" shape-rendering="crispEdges" style="fill:#e5aa7a;opacity:255;"></rect><rect id="13-19" x="768" y="1152" width="64" height="64" shape-rendering="crispEdges" style="fill:#e3ce9a;opacity:255;"></rect><rect id="14-19" x="832" y="1152" width="64" height="64" shape-rendering="crispEdges" style="fill:#e3ce9a;opacity:255;"></rect><rect id="15-19" x="896" y="1152" width="64" height="64" shape-rendering="crispEdges" style="fill:#e3ce9a;opacity:255;"></rect><rect id="16-19" x="960" y="1152" width="64" height="64" shape-rendering="crispEdges" style="fill:#e3ce9a;opacity:255;"></rect><rect id="17-19" x="1024" y="1152" width="64" height="64" shape-rendering="crispEdges" style="fill:#e3ce9a;opacity:255;"></rect><rect id="18-19" x="1088" y="1152" width="64" height="64" shape-rendering="crispEdges" style="fill:#e3ce9a;opacity:255;"></rect><rect id="19-19" x="1152" y="1152" width="64" height="64" shape-rendering="crispEdges" style="fill:#e3ce9a;opacity:255;"></rect><rect id="20-19" x="1216" y="1152" width="64" height="64" shape-rendering="crispEdges" style="fill:#e3ce9a;opacity:255;"></rect><rect id="21-19" x="1280" y="1152" width="64" height="64" shape-rendering="crispEdges" style="fill:#f2deae;opacity:255;"></rect><rect id="22-19" x="1344" y="1152" width="64" height="64" shape-rendering="crispEdges" style="fill:#e3ce9a;opacity:255;"></rect><rect id="23-19" x="1408" y="1152" width="64" height="64" shape-rendering="crispEdges" style="fill:#e5aa7a;opacity:255;"></rect><rect id="24-19" x="1472" y="1152" width="64" height="64" shape-rendering="crispEdges" style="fill:#c78756;opacity:255;"></rect><rect id="25-19" x="1536" y="1152" width="64" height="64" shape-rendering="crispEdges" style="fill:#c78756;opacity:255;"></rect><rect id="26-19" x="1600" y="1152" width="64" height="64" shape-rendering="crispEdges" style="fill:#e3ce9a;opacity:255;"></rect><rect id="27-19" x="1664" y="1152" width="64" height="64" shape-rendering="crispEdges" style="fill:#e3ce9a;opacity:255;"></rect><rect id="28-19" x="1728" y="1152" width="64" height="64" shape-rendering="crispEdges" style="fill:#e5aa7a;opacity:255;"></rect><rect id="29-19" x="1792" y="1152" width="64" height="64" shape-rendering="crispEdges" style="fill:#dbb96e;opacity:255;"></rect><rect id="30-19" x="1856" y="1152" width="64" height="64" shape-rendering="crispEdges" style="fill:#dbb96e;opacity:255;"></rect><rect id="5-20" x="256" y="1216" width="64" height="64" shape-rendering="crispEdges" style="fill:#c7a65a;opacity:255;"></rect><rect id="6-20" x="320" y="1216" width="64" height="64" shape-rendering="crispEdges" style="fill:#c7a65a;opacity:255;"></rect><rect id="7-20" x="384" y="1216" width="64" height="64" shape-rendering="crispEdges" style="fill:#c7a65a;opacity:255;"></rect><rect id="8-20" x="448" y="1216" width="64" height="64" shape-rendering="crispEdges" style="fill:#c7a65a;opacity:255;"></rect><rect id="9-20" x="512" y="1216" width="64" height="64" shape-rendering="crispEdges" style="fill:#b59750;opacity:255;"></rect><rect id="10-20" x="576" y="1216" width="64" height="64" shape-rendering="crispEdges" style="fill:#e5aa7a;opacity:255;"></rect><rect id="11-20" x="640" y="1216" width="64" height="64" shape-rendering="crispEdges" style="fill:#f2deae;opacity:255;"></rect><rect id="12-20" x="704" y="1216" width="64" height="64" shape-rendering="crispEdges" style="fill:#e3ce9a;opacity:255;"></rect><rect id="13-20" x="768" y="1216" width="64" height="64" shape-rendering="crispEdges" style="fill:#e3ce9a;opacity:255;"></rect><rect id="14-20" x="832" y="1216" width="64" height="64" shape-rendering="crispEdges" style="fill:#e3ce9a;opacity:255;"></rect><rect id="15-20" x="896" y="1216" width="64" height="64" shape-rendering="crispEdges" style="fill:#e3ce9a;opacity:255;"></rect><rect id="16-20" x="960" y="1216" width="64" height="64" shape-rendering="crispEdges" style="fill:#e3ce9a;opacity:255;"></rect><rect id="17-20" x="1024" y="1216" width="64" height="64" shape-rendering="crispEdges" style="fill:#e3ce9a;opacity:255;"></rect><rect id="18-20" x="1088" y="1216" width="64" height="64" shape-rendering="crispEdges" style="fill:#e5aa7a;opacity:255;"></rect><rect id="19-20" x="1152" y="1216" width="64" height="64" shape-rendering="crispEdges" style="fill:#c78756;opacity:255;"></rect><rect id="20-20" x="1216" y="1216" width="64" height="64" shape-rendering="crispEdges" style="fill:#e5aa7a;opacity:255;"></rect><rect id="21-20" x="1280" y="1216" width="64" height="64" shape-rendering="crispEdges" style="fill:#e3ce9a;opacity:255;"></rect><rect id="22-20" x="1344" y="1216" width="64" height="64" shape-rendering="crispEdges" style="fill:#f2deae;opacity:255;"></rect><rect id="23-20" x="1408" y="1216" width="64" height="64" shape-rendering="crispEdges" style="fill:#c78756;opacity:255;"></rect><rect id="24-20" x="1472" y="1216" width="64" height="64" shape-rendering="crispEdges" style="fill:#c7a65a;opacity:255;"></rect><rect id="25-20" x="1536" y="1216" width="64" height="64" shape-rendering="crispEdges" style="fill:#c7a65a;opacity:255;"></rect><rect id="26-20" x="1600" y="1216" width="64" height="64" shape-rendering="crispEdges" style="fill:#c7a65a;opacity:255;"></rect><rect id="27-20" x="1664" y="1216" width="64" height="64" shape-rendering="crispEdges" style="fill:#c7a65a;opacity:255;"></rect><rect id="28-20" x="1728" y="1216" width="64" height="64" shape-rendering="crispEdges" style="fill:#c7a65a;opacity:255;"></rect><rect id="10-21" x="576" y="1280" width="64" height="64" shape-rendering="crispEdges" style="fill:#b59750;opacity:255;"></rect><rect id="11-21" x="640" y="1280" width="64" height="64" shape-rendering="crispEdges" style="fill:#b59750;opacity:255;"></rect><rect id="12-21" x="704" y="1280" width="64" height="64" shape-rendering="crispEdges" style="fill:#b59750;opacity:255;"></rect><rect id="13-21" x="768" y="1280" width="64" height="64" shape-rendering="crispEdges" style="fill:#b59750;opacity:255;"></rect><rect id="14-21" x="832" y="1280" width="64" height="64" shape-rendering="crispEdges" style="fill:#b59750;opacity:255;"></rect><rect id="15-21" x="896" y="1280" width="64" height="64" shape-rendering="crispEdges" style="fill:#b59750;opacity:255;"></rect><rect id="16-21" x="960" y="1280" width="64" height="64" shape-rendering="crispEdges" style="fill:#b59750;opacity:255;"></rect><rect id="17-21" x="1024" y="1280" width="64" height="64" shape-rendering="crispEdges" style="fill:#b59750;opacity:255;"></rect><rect id="18-21" x="1088" y="1280" width="64" height="64" shape-rendering="crispEdges" style="fill:#b59750;opacity:255;"></rect><rect id="19-21" x="1152" y="1280" width="64" height="64" shape-rendering="crispEdges" style="fill:#c7a65a;opacity:255;"></rect><rect id="20-21" x="1216" y="1280" width="64" height="64" shape-rendering="crispEdges" style="fill:#c7a65a;opacity:255;"></rect><rect id="21-21" x="1280" y="1280" width="64" height="64" shape-rendering="crispEdges" style="fill:#c7a65a;opacity:255;"></rect><rect id="22-21" x="1344" y="1280" width="64" height="64" shape-rendering="crispEdges" style="fill:#c7a65a;opacity:255;"></rect><rect id="23-21" x="1408" y="1280" width="64" height="64" shape-rendering="crispEdges" style="fill:#c7a65a;opacity:255;"></rect></svg>