<svg width="435" height="414" viewBox="0 0 435 414" fill="none" xmlns="http://www.w3.org/2000/svg">
<rect x="0.5" y="0.5" width="421" height="361" stroke="black"/>
<mask id="path-2-inside-1_2406_470" fill="white">
<path d="M1 1H101V41H1V1Z"/>
</mask>
<path d="M101 41V42H102V41H101ZM101 1H100V41H101H102V1H101ZM101 41V40H1V41V42H101V41Z" fill="black" mask="url(#path-2-inside-1_2406_470)"/>
<path d="M66.1291 22.2084V16.3854H68.8021V17.1774H69.5941V17.9604H70.4041V20.6424H69.5941V21.4344H68.8021V22.2084H66.1291ZM67.1911 21.0924H68.5321V20.3094H69.3331V18.2934H68.5321V17.5104H67.1911V21.0924ZM72.3002 22.2084V21.4344H71.4992V17.1774H72.3002V16.3854H74.9642V17.1774H75.7742V18.2934H74.7032V17.5104H72.5612V18.7434H74.1722V19.8504H72.5612V21.0924H74.7032V20.3094H75.7742V21.4344H74.9642V22.2084H72.3002ZM76.8693 22.2084V16.3854H80.3343V17.1774H81.1443V18.2934H80.0733V17.5104H77.9313V18.7434H79.5423V19.8504H77.9313V22.2084H76.8693ZM89.3692 20.1654C89.4412 19.9974 89.5162 19.8444 89.5942 19.7064C89.6722 19.5684 89.7532 19.4454 89.8372 19.3374H84.8602V18.7254H89.8372C89.7532 18.6174 89.6722 18.4944 89.5942 18.3564C89.5162 18.2124 89.4412 18.0594 89.3692 17.8974H89.9182C90.2902 18.3354 90.6922 18.6624 91.1242 18.8784V19.1844C90.6982 19.3944 90.2962 19.7214 89.9182 20.1654H89.3692ZM71.5256 33.2084V28.9604H72.3266V28.1774H73.1186V27.3854H74.1986V28.1774H74.9906V28.9604H75.8006V33.2084H74.7296V31.6424H72.5876V33.2084H71.5256ZM72.5876 30.5174H74.7296V29.2934H73.9286V28.5104H73.3886V29.2934H72.5876V30.5174ZM77.9525 33.2084V28.5104H77.4215V29.2934H76.3595V28.1774H77.1605V27.3854H79.8245V28.1774H80.6345V29.2934H79.5635V28.5104H79.0325V33.2084H77.9525ZM81.3693 33.2084V28.1774H82.1703V27.3854H83.2323V28.5104H82.4313V29.7434H82.9623V28.9604H83.7813V28.1774H84.5733V27.3854H85.6443V28.5104H84.8343V29.2934H84.0423V30.0764H83.2323V30.5174H84.0423V31.3094H84.8343V32.0924H85.6443V33.2084H84.5733V32.4344H83.7813V31.6424H82.9623V30.8504H82.4313V33.2084H81.3693ZM90.0892 33.1094C89.8792 32.6714 89.5522 32.2694 89.1082 31.9034V31.3544C89.2762 31.4204 89.4292 31.4954 89.5672 31.5794C89.7052 31.6574 89.8282 31.7384 89.9362 31.8224V26.8364H90.5482V31.8224C90.6562 31.7384 90.7792 31.6574 90.9172 31.5794C91.0612 31.5014 91.2142 31.4264 91.3762 31.3544V31.9034C90.9382 32.2694 90.6112 32.6714 90.3952 33.1094H90.0892Z" fill="black"/>
<mask id="path-5-inside-2_2406_470" fill="white">
<path d="M101 1H181V41H101V1Z"/>
</mask>
<path d="M181 41V42H182V41H181ZM181 1H180V41H181H182V1H181ZM181 41V40H101V41V42H181V41Z" fill="black" mask="url(#path-5-inside-2_2406_470)"/>
<rect width="79" height="39" transform="translate(101 1)" fill="#38BDF8"/>
<path d="M121.288 24.632V23.612H120.232V16.844H121.756V23H122.344V20.936H123.412V17.876H124.936V20.936H126.004V23H126.604V16.844H128.116V23.612H127.072V24.632H125.536V23.612H124.468V21.548H123.88V23.612H122.812V24.632H121.288ZM130.996 24.632V23.612H129.94V19.928H130.996V18.896H134.644V19.928H135.712V23H136.78V24.632H135.244V23.612H134.644V24.632H130.996ZM131.464 23H134.176V20.528H131.464V23ZM139.757 24.632V23.612H138.701V20.528H137.645V18.896H138.701V16.844H140.225V18.896H143.417V20.528H140.225V23H142.949V21.968H144.485V23.612H143.417V24.632H139.757ZM147.366 24.632V23.612H146.31V19.928H147.366V18.896H151.014V19.928H152.082V21.548H150.546V20.528H147.834V20.936H149.958V22.58H147.834V23H150.546V21.956H152.082V23.6H151.014V24.632H147.366ZM154.26 24.632V19.928H155.316V18.896H158.964V19.928H160.032V21.548H158.496V20.528H155.784V24.632H154.26Z" fill="white"/>
<mask id="path-8-inside-3_2406_470" fill="white">
<path d="M181 1H261V41H181V1Z"/>
</mask>
<path d="M181 1H261V41H181V1Z" fill="#F97316"/>
<path d="M261 41V42H262V41H261ZM261 1H260V41H261H262V1H261ZM261 41V40H181V41V42H261V41Z" fill="black" mask="url(#path-8-inside-3_2406_470)"/>
<path d="M207.732 24.632V16.844H212.436V17.876H213.504V19.508H211.968V18.488H209.256V19.928H211.38V21.548H209.256V24.632H207.732ZM215.682 24.632V18.896H217.206V24.632H215.682ZM215.682 18.488V16.844H217.206V18.488H215.682ZM219.391 24.632V19.928H220.447V18.896H224.095V19.928H225.163V21.548H223.627V20.528H220.915V24.632H219.391ZM228.034 24.632V23.612H226.978V19.928H228.034V18.896H231.682V19.928H232.75V21.548H231.214V20.528H228.502V20.936H230.626V22.58H228.502V23H231.214V21.956H232.75V23.6H231.682V24.632H228.034Z" fill="white"/>
<mask id="path-11-inside-4_2406_470" fill="white">
<path d="M261 1H341V41H261V1Z"/>
</mask>
<path d="M341 41V42H342V41H341ZM341 1H340V41H341H342V1H341ZM341 41V40H261V41V42H341V41Z" fill="black" mask="url(#path-11-inside-4_2406_470)"/>
<rect width="79" height="39" transform="translate(261 1)" fill="#4ADE80"/>
<path d="M282.288 24.632V23.612H281.232V17.876H282.288V16.844H285.936V17.876H287.004V20.528H285.468V18.488H282.756V23H285.468V22.58H284.412V21.548H283.344V19.928H284.88V20.936H287.004V23.612H285.936V24.632H282.288ZM289.182 24.632V19.928H290.238V18.896H293.886V19.928H294.954V21.548H293.418V20.528H290.706V24.632H289.182ZM297.826 24.632V23.612H296.77V19.928H297.826V18.896H301.474V19.928H302.542V23H303.61V24.632H302.074V23.612H301.474V24.632H297.826ZM298.294 23H301.006V20.528H298.294V23ZM305.435 24.632V23H309.671V22.58H306.491V21.548H305.435V19.928H306.491V18.896H311.207V20.528H306.959V20.936H310.139V21.968H311.207V23.612H310.139V24.632H305.435ZM313.151 24.632V23H317.387V22.58H314.207V21.548H313.151V19.928H314.207V18.896H318.923V20.528H314.675V20.936H317.855V21.968H318.923V23.612H317.855V24.632H313.151Z" fill="white"/>
<mask id="path-14-inside-5_2406_470" fill="white">
<path d="M341 1H421V41H341V1Z"/>
</mask>
<path d="M421 41V42H422V41H421ZM421 1H420V41H421H422V1H421ZM421 41V40H341V41V42H421V41Z" fill="black" mask="url(#path-14-inside-5_2406_470)"/>
<rect width="79" height="39" transform="translate(341 1)" fill="#A8A29E"/>
<path d="M358.732 24.632V16.844H360.256V17.876H361.312V18.896H362.38V21.968H362.968V16.844H364.504V24.632H362.968V23.612H361.912V22.58H360.844V19.508H360.256V24.632H358.732ZM367.504 24.632V23.612H366.448V19.928H367.504V18.896H371.152V19.928H372.22V23.612H371.152V24.632H367.504ZM367.972 23H370.684V20.528H367.972V23ZM374.399 24.632V19.928H375.455V18.896H379.103V19.928H380.171V21.548H378.635V20.528H375.923V24.632H374.399ZM381.986 24.632V18.896H385.634V19.928H386.222V18.896H388.826V19.928H389.87V24.632H388.358V20.528H386.69V24.632H385.166V20.528H383.51V24.632H381.986ZM392.996 24.632V23.612H391.94V19.928H392.996V18.896H396.644V19.928H397.712V23H398.78V24.632H397.244V23.612H396.644V24.632H392.996ZM393.464 23H396.176V20.528H393.464V23ZM400.605 24.632V16.844H402.129V24.632H400.605Z" fill="white"/>
<mask id="path-17-inside-6_2406_470" fill="white">
<path d="M1 41H101V121H1V41Z"/>
</mask>
<path d="M101 121V122H102V121H101ZM101 41H100V121H101H102V41H101ZM101 121V120H1V121V122H101V121Z" fill="black" mask="url(#path-17-inside-6_2406_470)"/>
<rect width="99" height="79" transform="translate(1 41)" fill="#38BDF8"/>
<path d="M31.288 84.632V83.612H30.232V76.844H31.756V83H32.344V80.936H33.412V77.876H34.936V80.936H36.004V83H36.604V76.844H38.116V83.612H37.072V84.632H35.536V83.612H34.468V81.548H33.88V83.612H32.812V84.632H31.288ZM40.9963 84.632V83.612H39.9403V79.928H40.9963V78.896H44.6443V79.928H45.7123V83H46.7803V84.632H45.2443V83.612H44.6443V84.632H40.9963ZM41.4643 83H44.1763V80.528H41.4643V83ZM49.7567 84.632V83.612H48.7007V80.528H47.6447V78.896H48.7007V76.844H50.2247V78.896H53.4167V80.528H50.2247V83H52.9487V81.968H54.4847V83.612H53.4167V84.632H49.7567ZM57.366 84.632V83.612H56.31V79.928H57.366V78.896H61.014V79.928H62.082V81.548H60.546V80.528H57.834V80.936H59.958V82.58H57.834V83H60.546V81.956H62.082V83.6H61.014V84.632H57.366ZM64.2604 84.632V79.928H65.3164V78.896H68.9644V79.928H70.0324V81.548H68.4964V80.528H65.7844V84.632H64.2604Z" fill="white"/>
<mask id="path-20-inside-7_2406_470" fill="white">
<path d="M101 41H181V121H101V41Z"/>
</mask>
<path d="M101 41H181V121H101V41Z" fill="#7A1F1F"/>
<path d="M181 121V122H182V121H181ZM181 41H180V121H181H182V41H181ZM181 121V120H101V121V122H181V121Z" fill="black" mask="url(#path-20-inside-7_2406_470)"/>
<mask id="path-22-inside-8_2406_470" fill="white">
<path d="M181 41H261V121H181V41Z"/>
</mask>
<path d="M181 41H261V121H181V41Z" fill="#1E7440"/>
<path d="M261 121V122H262V121H261ZM261 41H260V121H261H262V41H261ZM261 121V120H181V121V122H261V121Z" fill="black" mask="url(#path-22-inside-8_2406_470)"/>
<mask id="path-24-inside-9_2406_470" fill="white">
<path d="M261 41H341V121H261V41Z"/>
</mask>
<path d="M261 41H341V121H261V41Z" fill="#7A1F1F"/>
<path d="M341 121V122H342V121H341ZM341 41H340V121H341H342V41H341ZM341 121V120H261V121V122H341V121Z" fill="black" mask="url(#path-24-inside-9_2406_470)"/>
<mask id="path-26-inside-10_2406_470" fill="white">
<path d="M341 41H421V121H341V41Z"/>
</mask>
<path d="M341 41H421V121H341V41Z" fill="#3E4045"/>
<path d="M421 121V122H422V121H421ZM421 41H420V121H421H422V41H421ZM421 121V120H341V121V122H421V121Z" fill="black" mask="url(#path-26-inside-10_2406_470)"/>
<mask id="path-28-inside-11_2406_470" fill="white">
<path d="M1 121H101V201H1V121Z"/>
</mask>
<path d="M101 201V202H102V201H101ZM101 121H100V201H101H102V121H101ZM101 201V200H1V201V202H101V201Z" fill="black" mask="url(#path-28-inside-11_2406_470)"/>
<rect width="99" height="79" transform="translate(1 121)" fill="#F97316"/>
<path d="M37.732 164.632V156.844H42.436V157.876H43.504V159.508H41.968V158.488H39.256V159.928H41.38V161.548H39.256V164.632H37.732ZM45.6825 164.632V158.896H47.2065V164.632H45.6825ZM45.6825 158.488V156.844H47.2065V158.488H45.6825ZM49.3908 164.632V159.928H50.4468V158.896H54.0948V159.928H55.1628V161.548H53.6268V160.528H50.9148V164.632H49.3908ZM58.0339 164.632V163.612H56.9779V159.928H58.0339V158.896H61.6819V159.928H62.7499V161.548H61.2139V160.528H58.5019V160.936H60.6259V162.58H58.5019V163H61.2139V161.956H62.7499V163.6H61.6819V164.632H58.0339Z" fill="white"/>
<mask id="path-31-inside-12_2406_470" fill="white">
<path d="M101 121H181V201H101V121Z"/>
</mask>
<path d="M101 121H181V201H101V121Z" fill="#7A1F1F"/>
<path d="M181 201V202H182V201H181ZM181 121H180V201H181H182V121H181ZM181 201V200H101V201V202H181V201Z" fill="black" mask="url(#path-31-inside-12_2406_470)"/>
<mask id="path-33-inside-13_2406_470" fill="white">
<path d="M181 121H261V201H181V121Z"/>
</mask>
<path d="M181 121H261V201H181V121Z" fill="#7A1F1F"/>
<path d="M261 201V202H262V201H261ZM261 121H260V201H261H262V121H261ZM261 201V200H181V201V202H261V201Z" fill="black" mask="url(#path-33-inside-13_2406_470)"/>
<mask id="path-35-inside-14_2406_470" fill="white">
<path d="M261 121H341V201H261V121Z"/>
</mask>
<path d="M261 121H341V201H261V121Z" fill="#1E7440"/>
<path d="M341 201V202H342V201H341ZM341 121H340V201H341H342V121H341ZM341 201V200H261V201V202H341V201Z" fill="black" mask="url(#path-35-inside-14_2406_470)"/>
<mask id="path-37-inside-15_2406_470" fill="white">
<path d="M341 121H421V201H341V121Z"/>
</mask>
<path d="M341 121H421V201H341V121Z" fill="#3E4045"/>
<path d="M421 201V202H422V201H421ZM421 121H420V201H421H422V121H421ZM421 201V200H341V201V202H421V201Z" fill="black" mask="url(#path-37-inside-15_2406_470)"/>
<mask id="path-39-inside-16_2406_470" fill="white">
<path d="M1 201H101V281H1V201Z"/>
</mask>
<path d="M101 281V282H102V281H101ZM101 201H100V281H101H102V201H101ZM101 281V280H1V281V282H101V281Z" fill="black" mask="url(#path-39-inside-16_2406_470)"/>
<rect width="99" height="79" transform="translate(1 201)" fill="#4ADE80"/>
<path d="M32.288 244.632V243.612H31.232V237.876H32.288V236.844H35.936V237.876H37.004V240.528H35.468V238.488H32.756V243H35.468V242.58H34.412V241.548H33.344V239.928H34.88V240.936H37.004V243.612H35.936V244.632H32.288ZM39.1825 244.632V239.928H40.2385V238.896H43.8865V239.928H44.9545V241.548H43.4185V240.528H40.7065V244.632H39.1825ZM47.8257 244.632V243.612H46.7697V239.928H47.8257V238.896H51.4737V239.928H52.5417V243H53.6097V244.632H52.0737V243.612H51.4737V244.632H47.8257ZM48.2937 243H51.0057V240.528H48.2937V243ZM55.435 244.632V243H59.671V242.58H56.491V241.548H55.435V239.928H56.491V238.896H61.207V240.528H56.959V240.936H60.139V241.968H61.207V243.612H60.139V244.632H55.435ZM63.1511 244.632V243H67.3871V242.58H64.2071V241.548H63.1511V239.928H64.2071V238.896H68.9231V240.528H64.6751V240.936H67.8551V241.968H68.9231V243.612H67.8551V244.632H63.1511Z" fill="white"/>
<mask id="path-42-inside-17_2406_470" fill="white">
<path d="M101 201H181V281H101V201Z"/>
</mask>
<path d="M101 201H181V281H101V201Z" fill="#1E7440"/>
<path d="M181 281V282H182V281H181ZM181 201H180V281H181H182V201H181ZM181 281V280H101V281V282H181V281Z" fill="black" mask="url(#path-42-inside-17_2406_470)"/>
<mask id="path-44-inside-18_2406_470" fill="white">
<path d="M181 201H261V281H181V201Z"/>
</mask>
<path d="M181 201H261V281H181V201Z" fill="#7A1F1F"/>
<path d="M261 281V282H262V281H261ZM261 201H260V281H261H262V201H261ZM261 281V280H181V281V282H261V281Z" fill="black" mask="url(#path-44-inside-18_2406_470)"/>
<mask id="path-46-inside-19_2406_470" fill="white">
<path d="M261 201H341V281H261V201Z"/>
</mask>
<path d="M261 201H341V281H261V201Z" fill="#7A1F1F"/>
<path d="M341 281V282H342V281H341ZM341 201H340V281H341H342V201H341ZM341 281V280H261V281V282H341V281Z" fill="black" mask="url(#path-46-inside-19_2406_470)"/>
<mask id="path-48-inside-20_2406_470" fill="white">
<path d="M341 201H421V281H341V201Z"/>
</mask>
<path d="M341 201H421V281H341V201Z" fill="#3E4045"/>
<path d="M421 281V282H422V281H421ZM421 201H420V281H421H422V201H421ZM421 281V280H341V281V282H421V281Z" fill="black" mask="url(#path-48-inside-20_2406_470)"/>
<mask id="path-50-inside-21_2406_470" fill="white">
<path d="M1 281H101V361H1V281Z"/>
</mask>
<path d="M101 361V362H102V361H101ZM101 281H100V361H101H102V281H101ZM101 361V360H1V361V362H101V361Z" fill="black" mask="url(#path-50-inside-21_2406_470)"/>
<rect width="99" height="79" transform="translate(1 281)" fill="#A8A29E"/>
<path d="M28.732 324.632V316.844H30.256V317.876H31.312V318.896H32.38V321.968H32.968V316.844H34.504V324.632H32.968V323.612H31.912V322.58H30.844V319.508H30.256V324.632H28.732ZM37.5041 324.632V323.612H36.4481V319.928H37.5041V318.896H41.1521V319.928H42.2201V323.612H41.1521V324.632H37.5041ZM37.9721 323H40.6841V320.528H37.9721V323ZM44.3986 324.632V319.928H45.4546V318.896H49.1026V319.928H50.1706V321.548H48.6346V320.528H45.9226V324.632H44.3986ZM51.9857 324.632V318.896H55.6337V319.928H56.2218V318.896H58.8258V319.928H59.8698V324.632H58.3577V320.528H56.6897V324.632H55.1657V320.528H53.5097V324.632H51.9857ZM62.9961 324.632V323.612H61.9401V319.928H62.9961V318.896H66.6441V319.928H67.7121V323H68.7801V324.632H67.2441V323.612H66.6441V324.632H62.9961ZM63.4641 323H66.1761V320.528H63.4641V323ZM70.6054 324.632V316.844H72.1294V324.632H70.6054Z" fill="white"/>
<mask id="path-53-inside-22_2406_470" fill="white">
<path d="M101 281H181V361H101V281Z"/>
</mask>
<path d="M101 281H181V361H101V281Z" fill="#3E4045"/>
<path d="M181 361V362H182V361H181ZM181 281H180V361H181H182V281H181ZM181 361V360H101V361V362H181V361Z" fill="black" mask="url(#path-53-inside-22_2406_470)"/>
<mask id="path-55-inside-23_2406_470" fill="white">
<path d="M181 281H261V361H181V281Z"/>
</mask>
<path d="M181 281H261V361H181V281Z" fill="#3E4045"/>
<path d="M261 361V362H262V361H261ZM261 281H260V361H261H262V281H261ZM261 361V360H181V361V362H261V361Z" fill="black" mask="url(#path-55-inside-23_2406_470)"/>
<mask id="path-57-inside-24_2406_470" fill="white">
<path d="M261 281H341V361H261V281Z"/>
</mask>
<path d="M261 281H341V361H261V281Z" fill="#3E4045"/>
<path d="M341 361V362H342V361H341ZM341 281H340V361H341H342V281H341ZM341 361V360H261V361V362H341V361Z" fill="black" mask="url(#path-57-inside-24_2406_470)"/>
<mask id="path-59-inside-25_2406_470" fill="white">
<path d="M341 281H421V361H341V281Z"/>
</mask>
<path d="M341 281H421V361H341V281Z" fill="#3E4045"/>
<path d="M421 361V362H422V361H421ZM421 281H420V361H421H422V281H421ZM421 361V360H341V361V362H421V361Z" fill="black" mask="url(#path-59-inside-25_2406_470)"/>
<mask id="path-61-inside-26_2406_470" fill="white">
<path d="M0 382H32V414H0V382Z"/>
</mask>
<path d="M0 382H32V414H0V382Z" fill="#1E7440"/>
<path d="M0 382V381H-1V382H0ZM32 382H33V381H32V382ZM32 414V415H33V414H32ZM0 414H-1V415H0V414ZM0 382V383H32V382V381H0V382ZM32 382H31V414H32H33V382H32ZM32 414V413H0V414V415H32V414ZM0 414H1V382H0H-1V414H0Z" fill="black" mask="url(#path-61-inside-26_2406_470)"/>
<path d="M41.963 403.406V402.236H40.78V400.923H42.093V402.106H45.499V399.87H41.963V398.7H40.78V396.23H41.963V395.047H45.629V396.23H46.825V397.53H45.499V396.36H42.093V398.583H45.629V399.74H46.825V402.236H45.629V403.406H41.963ZM49.5802 403.406V402.236H48.3972V397.4H49.7102V402.106H53.1162V397.4H54.4422V402.236H53.2462V403.406H49.5802ZM56.0144 405.694V398.583H57.1974V397.4H60.8634V398.583H62.0594V402.236H60.8634V403.406H57.3274V405.694H56.0144ZM57.3274 402.106H60.7334V398.7H57.3274V402.106ZM64.8146 403.406V402.236H63.6316V398.583H64.8146V397.4H68.4806V398.583H69.6766V399.87H68.3506V398.7H64.9446V399.74H67.3106V401.053H64.9446V402.106H68.3506V400.91H69.6766V402.223H68.4806V403.406H64.8146ZM71.2488 403.406V398.583H72.4318V397.4H76.0978V398.583H77.2938V399.87H75.9678V398.7H72.5618V403.406H71.2488ZM82.6515 403.406V402.236H81.4685V398.583H82.6515V397.4H86.3175V398.583H87.5135V399.87H86.1875V398.7H82.7815V399.74H85.1475V401.053H82.7815V402.106H86.1875V400.91H87.5135V402.223H86.3175V403.406H82.6515ZM89.0857 403.406V396.23H90.2687V395.047H93.9347V396.23H95.0007V395.047H98.6667V396.23H99.8497V397.53H98.5367V396.36H95.1307V398.583H97.4837V399.87H95.1307V403.406H93.8047V396.36H90.3987V398.583H92.7647V399.87H90.3987V403.406H89.0857ZM102.609 403.406V402.236H101.426V398.583H102.609V397.4H106.275V398.583H107.471V399.87H106.145V398.7H102.739V399.74H105.105V401.053H102.739V402.106H106.145V400.91H107.471V402.223H106.275V403.406H102.609ZM110.226 403.406V402.236H109.043V398.583H110.226V397.4H113.892V398.583H115.088V399.87H113.762V398.7H110.356V402.106H113.762V400.923H115.088V402.236H113.892V403.406H110.226ZM118.365 403.406V402.236H117.195V398.7H116.012V397.4H117.195V395.047H118.495V397.4H122.057V398.7H118.495V402.106H121.927V400.923H123.24V402.236H122.057V403.406H118.365ZM124.81 403.406V397.4H126.123V403.406H124.81ZM124.81 396.36V395.047H126.123V396.36H124.81ZM129.928 403.406V402.236H128.745V399.87H127.562V397.4H128.875V399.74H130.045V402.106H131.111V399.74H132.281V397.4H133.607V399.87H132.411V402.236H131.241V403.406H129.928ZM135.845 403.406V402.236H134.662V398.583H135.845V397.4H139.511V398.583H140.707V399.87H139.381V398.7H135.975V399.74H138.341V401.053H135.975V402.106H139.381V400.91H140.707V402.223H139.511V403.406H135.845Z" fill="black"/>
<mask id="path-64-inside-27_2406_470" fill="white">
<path d="M153.477 382H185.477V414H153.477V382Z"/>
</mask>
<path d="M153.477 382H185.477V414H153.477V382Z" fill="#7A1F1F"/>
<path d="M153.477 382V381H152.477V382H153.477ZM185.477 382H186.477V381H185.477V382ZM185.477 414V415H186.477V414H185.477ZM153.477 414H152.477V415H153.477V414ZM153.477 382V383H185.477V382V381H153.477V382ZM185.477 382H184.477V414H185.477H186.477V382H185.477ZM185.477 414V413H153.477V414V415H185.477V414ZM153.477 414H154.477V382H153.477H152.477V414H153.477Z" fill="black" mask="url(#path-64-inside-27_2406_470)"/>
<path d="M194.257 403.406V395.047H195.57V396.23H196.74V397.4H197.936V400.923H198.976V395.047H200.302V403.406H198.976V402.236H197.806V401.053H196.61V397.53H195.57V403.406H194.257ZM202.803 403.406V402.236H201.62V398.583H202.803V397.4H206.469V398.583H207.665V402.236H206.469V403.406H202.803ZM202.933 402.106H206.339V398.7H202.933V402.106ZM211.59 403.406V402.236H210.42V398.7H209.237V397.4H210.42V395.047H211.72V397.4H215.282V398.7H211.72V402.106H215.152V400.923H216.465V402.236H215.282V403.406H211.59ZM222.873 403.406V402.236H221.69V399.87H220.507V397.4H221.82V399.74H222.99V402.106H224.056V399.74H225.226V397.4H226.552V399.87H225.356V402.236H224.186V403.406H222.873ZM228.79 403.406V402.236H227.607V398.583H228.79V397.4H232.456V398.583H233.652V399.87H232.326V398.7H228.92V399.74H231.286V401.053H228.92V402.106H232.326V400.91H233.652V402.223H232.456V403.406H228.79ZM235.224 403.406V398.583H236.407V397.4H240.073V398.583H241.269V399.87H239.943V398.7H236.537V403.406H235.224ZM243.771 405.759V404.589H242.588V403.289H243.901V404.459H247.32V402.236H243.771V401.053H242.588V397.4H243.901V400.923H247.32V397.4H248.633V404.589H247.45V405.759H243.771ZM253.99 403.406V402.236H252.807V398.583H253.99V397.4H257.656V398.583H258.852V399.87H257.526V398.7H254.12V399.74H256.486V401.053H254.12V402.106H257.526V400.91H258.852V402.223H257.656V403.406H253.99ZM260.425 403.406V396.23H261.608V395.047H265.274V396.23H266.34V395.047H270.006V396.23H271.189V397.53H269.876V396.36H266.47V398.583H268.823V399.87H266.47V403.406H265.144V396.36H261.738V398.583H264.104V399.87H261.738V403.406H260.425ZM273.947 403.406V402.236H272.764V398.583H273.947V397.4H277.613V398.583H278.809V399.87H277.483V398.7H274.077V399.74H276.443V401.053H274.077V402.106H277.483V400.91H278.809V402.223H277.613V403.406H273.947ZM281.565 403.406V402.236H280.382V398.583H281.565V397.4H285.231V398.583H286.427V399.87H285.101V398.7H281.695V402.106H285.101V400.923H286.427V402.236H285.231V403.406H281.565ZM289.704 403.406V402.236H288.534V398.7H287.351V397.4H288.534V395.047H289.834V397.4H293.396V398.7H289.834V402.106H293.266V400.923H294.579V402.236H293.396V403.406H289.704ZM296.149 403.406V397.4H297.462V403.406H296.149ZM296.149 396.36V395.047H297.462V396.36H296.149ZM301.267 403.406V402.236H300.084V399.87H298.901V397.4H300.214V399.74H301.384V402.106H302.45V399.74H303.62V397.4H304.946V399.87H303.75V402.236H302.58V403.406H301.267ZM307.184 403.406V402.236H306.001V398.583H307.184V397.4H310.85V398.583H312.046V399.87H310.72V398.7H307.314V399.74H309.68V401.053H307.314V402.106H310.72V400.91H312.046V402.223H310.85V403.406H307.184Z" fill="black"/>
<mask id="path-67-inside-28_2406_470" fill="white">
<path d="M323.023 382H355.023V414H323.023V382Z"/>
</mask>
<path d="M323.023 382H355.023V414H323.023V382Z" fill="#3E4045"/>
<path d="M323.023 382V381H322.023V382H323.023ZM355.023 382H356.023V381H355.023V382ZM355.023 414V415H356.023V414H355.023ZM323.023 414H322.023V415H323.023V414ZM323.023 382V383H355.023V382V381H323.023V382ZM355.023 382H354.023V414H355.023H356.023V382H355.023ZM355.023 414V413H323.023V414V415H355.023V414ZM323.023 414H324.023V382H323.023H322.023V414H323.023Z" fill="black" mask="url(#path-67-inside-28_2406_470)"/>
<path d="M363.803 403.406V395.047H365.116V396.23H366.286V397.4H367.482V400.923H368.522V395.047H369.848V403.406H368.522V402.236H367.352V401.053H366.156V397.53H365.116V403.406H363.803ZM372.35 403.406V402.236H371.167V398.583H372.35V397.4H376.016V398.583H377.212V402.236H376.016V403.406H372.35ZM372.48 402.106H375.886V398.7H372.48V402.106ZM378.784 403.406V398.583H379.967V397.4H383.633V398.583H384.829V399.87H383.503V398.7H380.097V403.406H378.784ZM386.008 403.406V397.4H389.687V398.583H390.727V397.4H393.236V398.583H394.406V403.406H393.106V398.7H390.857V403.406H389.557V398.7H387.321V403.406H386.008ZM397.029 403.406V402.236H395.846V398.583H397.029V397.4H400.695V398.583H401.891V402.106H403.074V403.406H401.761V402.236H400.695V403.406H397.029ZM397.159 402.106H400.565V398.7H397.159V402.106ZM404.251 403.406V395.047H405.564V403.406H404.251Z" fill="black"/>
</svg>
