<?xml version="1.0" encoding="UTF-8" standalone="no"?><svg xmlns="http://www.w3.org/2000/svg" id="icons8-up-50" width="3200" height="3200" viewBox="0 0 3200 3200" preserveAspectRatio="xMidYMid meet" rendering="crispEdges"><rect id="25-7" x="1536" y="384" width="64" height="64" shape-rendering="crispEdges" style="fill:#000000;opacity:1;"></rect><rect id="26-7" x="1600" y="384" width="64" height="64" shape-rendering="crispEdges" style="fill:#000000;opacity:1;"></rect><rect id="24-8" x="1472" y="448" width="64" height="64" shape-rendering="crispEdges" style="fill:#000000;opacity:93;"></rect><rect id="25-8" x="1536" y="448" width="64" height="64" shape-rendering="crispEdges" style="fill:#000000;opacity:237;"></rect><rect id="26-8" x="1600" y="448" width="64" height="64" shape-rendering="crispEdges" style="fill:#000000;opacity:236;"></rect><rect id="27-8" x="1664" y="448" width="64" height="64" shape-rendering="crispEdges" style="fill:#000000;opacity:93;"></rect><rect id="23-9" x="1408" y="512" width="64" height="64" shape-rendering="crispEdges" style="fill:#000000;opacity:99;"></rect><rect id="24-9" x="1472" y="512" width="64" height="64" shape-rendering="crispEdges" style="fill:#000000;opacity:253;"></rect><rect id="25-9" x="1536" y="512" width="64" height="64" shape-rendering="crispEdges" style="fill:#000000;opacity:255;"></rect><rect id="26-9" x="1600" y="512" width="64" height="64" shape-rendering="crispEdges" style="fill:#000000;opacity:255;"></rect><rect id="27-9" x="1664" y="512" width="64" height="64" shape-rendering="crispEdges" style="fill:#000000;opacity:254;"></rect><rect id="28-9" x="1728" y="512" width="64" height="64" shape-rendering="crispEdges" style="fill:#000000;opacity:106;"></rect><rect id="22-10" x="1344" y="576" width="64" height="64" shape-rendering="crispEdges" style="fill:#000000;opacity:99;"></rect><rect id="23-10" x="1408" y="576" width="64" height="64" shape-rendering="crispEdges" style="fill:#000000;opacity:253;"></rect><rect id="24-10" x="1472" y="576" width="64" height="64" shape-rendering="crispEdges" style="fill:#000000;opacity:255;"></rect><rect id="25-10" x="1536" y="576" width="64" height="64" shape-rendering="crispEdges" style="fill:#000000;opacity:255;"></rect><rect id="26-10" x="1600" y="576" width="64" height="64" shape-rendering="crispEdges" style="fill:#000000;opacity:255;"></rect><rect id="27-10" x="1664" y="576" width="64" height="64" shape-rendering="crispEdges" style="fill:#000000;opacity:255;"></rect><rect id="28-10" x="1728" y="576" width="64" height="64" shape-rendering="crispEdges" style="fill:#000000;opacity:254;"></rect><rect id="29-10" x="1792" y="576" width="64" height="64" shape-rendering="crispEdges" style="fill:#000000;opacity:106;"></rect><rect id="21-11" x="1280" y="640" width="64" height="64" shape-rendering="crispEdges" style="fill:#000000;opacity:99;"></rect><rect id="22-11" x="1344" y="640" width="64" height="64" shape-rendering="crispEdges" style="fill:#000000;opacity:253;"></rect><rect id="23-11" x="1408" y="640" width="64" height="64" shape-rendering="crispEdges" style="fill:#000000;opacity:255;"></rect><rect id="24-11" x="1472" y="640" width="64" height="64" shape-rendering="crispEdges" style="fill:#000000;opacity:255;"></rect><rect id="25-11" x="1536" y="640" width="64" height="64" shape-rendering="crispEdges" style="fill:#000000;opacity:255;"></rect><rect id="26-11" x="1600" y="640" width="64" height="64" shape-rendering="crispEdges" style="fill:#000000;opacity:255;"></rect><rect id="27-11" x="1664" y="640" width="64" height="64" shape-rendering="crispEdges" style="fill:#000000;opacity:255;"></rect><rect id="28-11" x="1728" y="640" width="64" height="64" shape-rendering="crispEdges" style="fill:#000000;opacity:255;"></rect><rect id="29-11" x="1792" y="640" width="64" height="64" shape-rendering="crispEdges" style="fill:#000000;opacity:254;"></rect><rect id="30-11" x="1856" y="640" width="64" height="64" shape-rendering="crispEdges" style="fill:#000000;opacity:106;"></rect><rect id="20-12" x="1216" y="704" width="64" height="64" shape-rendering="crispEdges" style="fill:#000000;opacity:99;"></rect><rect id="21-12" x="1280" y="704" width="64" height="64" shape-rendering="crispEdges" style="fill:#000000;opacity:253;"></rect><rect id="22-12" x="1344" y="704" width="64" height="64" shape-rendering="crispEdges" style="fill:#000000;opacity:255;"></rect><rect id="23-12" x="1408" y="704" width="64" height="64" shape-rendering="crispEdges" style="fill:#000000;opacity:255;"></rect><rect id="24-12" x="1472" y="704" width="64" height="64" shape-rendering="crispEdges" style="fill:#000000;opacity:255;"></rect><rect id="25-12" x="1536" y="704" width="64" height="64" shape-rendering="crispEdges" style="fill:#000000;opacity:255;"></rect><rect id="26-12" x="1600" y="704" width="64" height="64" shape-rendering="crispEdges" style="fill:#000000;opacity:255;"></rect><rect id="27-12" x="1664" y="704" width="64" height="64" shape-rendering="crispEdges" style="fill:#000000;opacity:255;"></rect><rect id="28-12" x="1728" y="704" width="64" height="64" shape-rendering="crispEdges" style="fill:#000000;opacity:255;"></rect><rect id="29-12" x="1792" y="704" width="64" height="64" shape-rendering="crispEdges" style="fill:#000000;opacity:255;"></rect><rect id="30-12" x="1856" y="704" width="64" height="64" shape-rendering="crispEdges" style="fill:#000000;opacity:254;"></rect><rect id="31-12" x="1920" y="704" width="64" height="64" shape-rendering="crispEdges" style="fill:#000000;opacity:106;"></rect><rect id="19-13" x="1152" y="768" width="64" height="64" shape-rendering="crispEdges" style="fill:#000000;opacity:99;"></rect><rect id="20-13" x="1216" y="768" width="64" height="64" shape-rendering="crispEdges" style="fill:#000000;opacity:253;"></rect><rect id="21-13" x="1280" y="768" width="64" height="64" shape-rendering="crispEdges" style="fill:#000000;opacity:255;"></rect><rect id="22-13" x="1344" y="768" width="64" height="64" shape-rendering="crispEdges" style="fill:#000000;opacity:255;"></rect><rect id="23-13" x="1408" y="768" width="64" height="64" shape-rendering="crispEdges" style="fill:#000000;opacity:255;"></rect><rect id="24-13" x="1472" y="768" width="64" height="64" shape-rendering="crispEdges" style="fill:#000000;opacity:255;"></rect><rect id="25-13" x="1536" y="768" width="64" height="64" shape-rendering="crispEdges" style="fill:#000000;opacity:255;"></rect><rect id="26-13" x="1600" y="768" width="64" height="64" shape-rendering="crispEdges" style="fill:#000000;opacity:255;"></rect><rect id="27-13" x="1664" y="768" width="64" height="64" shape-rendering="crispEdges" style="fill:#000000;opacity:255;"></rect><rect id="28-13" x="1728" y="768" width="64" height="64" shape-rendering="crispEdges" style="fill:#000000;opacity:255;"></rect><rect id="29-13" x="1792" y="768" width="64" height="64" shape-rendering="crispEdges" style="fill:#000000;opacity:255;"></rect><rect id="30-13" x="1856" y="768" width="64" height="64" shape-rendering="crispEdges" style="fill:#000000;opacity:255;"></rect><rect id="31-13" x="1920" y="768" width="64" height="64" shape-rendering="crispEdges" style="fill:#000000;opacity:254;"></rect><rect id="32-13" x="1984" y="768" width="64" height="64" shape-rendering="crispEdges" style="fill:#000000;opacity:106;"></rect><rect id="18-14" x="1088" y="832" width="64" height="64" shape-rendering="crispEdges" style="fill:#000000;opacity:100;"></rect><rect id="19-14" x="1152" y="832" width="64" height="64" shape-rendering="crispEdges" style="fill:#000000;opacity:253;"></rect><rect id="20-14" x="1216" y="832" width="64" height="64" shape-rendering="crispEdges" style="fill:#000000;opacity:255;"></rect><rect id="21-14" x="1280" y="832" width="64" height="64" shape-rendering="crispEdges" style="fill:#000000;opacity:255;"></rect><rect id="22-14" x="1344" y="832" width="64" height="64" shape-rendering="crispEdges" style="fill:#000000;opacity:255;"></rect><rect id="23-14" x="1408" y="832" width="64" height="64" shape-rendering="crispEdges" style="fill:#000000;opacity:255;"></rect><rect id="24-14" x="1472" y="832" width="64" height="64" shape-rendering="crispEdges" style="fill:#000000;opacity:255;"></rect><rect id="25-14" x="1536" y="832" width="64" height="64" shape-rendering="crispEdges" style="fill:#000000;opacity:255;"></rect><rect id="26-14" x="1600" y="832" width="64" height="64" shape-rendering="crispEdges" style="fill:#000000;opacity:255;"></rect><rect id="27-14" x="1664" y="832" width="64" height="64" shape-rendering="crispEdges" style="fill:#000000;opacity:255;"></rect><rect id="28-14" x="1728" y="832" width="64" height="64" shape-rendering="crispEdges" style="fill:#000000;opacity:255;"></rect><rect id="29-14" x="1792" y="832" width="64" height="64" shape-rendering="crispEdges" style="fill:#000000;opacity:255;"></rect><rect id="30-14" x="1856" y="832" width="64" height="64" shape-rendering="crispEdges" style="fill:#000000;opacity:255;"></rect><rect id="31-14" x="1920" y="832" width="64" height="64" shape-rendering="crispEdges" style="fill:#000000;opacity:255;"></rect><rect id="32-14" x="1984" y="832" width="64" height="64" shape-rendering="crispEdges" style="fill:#000000;opacity:254;"></rect><rect id="33-14" x="2048" y="832" width="64" height="64" shape-rendering="crispEdges" style="fill:#000000;opacity:107;"></rect><rect id="17-15" x="1024" y="896" width="64" height="64" shape-rendering="crispEdges" style="fill:#000000;opacity:102;"></rect><rect id="18-15" x="1088" y="896" width="64" height="64" shape-rendering="crispEdges" style="fill:#000000;opacity:254;"></rect><rect id="19-15" x="1152" y="896" width="64" height="64" shape-rendering="crispEdges" style="fill:#000000;opacity:255;"></rect><rect id="20-15" x="1216" y="896" width="64" height="64" shape-rendering="crispEdges" style="fill:#000000;opacity:255;"></rect><rect id="21-15" x="1280" y="896" width="64" height="64" shape-rendering="crispEdges" style="fill:#000000;opacity:255;"></rect><rect id="22-15" x="1344" y="896" width="64" height="64" shape-rendering="crispEdges" style="fill:#000000;opacity:255;"></rect><rect id="23-15" x="1408" y="896" width="64" height="64" shape-rendering="crispEdges" style="fill:#000000;opacity:215;"></rect><rect id="24-15" x="1472" y="896" width="64" height="64" shape-rendering="crispEdges" style="fill:#000000;opacity:255;"></rect><rect id="25-15" x="1536" y="896" width="64" height="64" shape-rendering="crispEdges" style="fill:#000000;opacity:255;"></rect><rect id="26-15" x="1600" y="896" width="64" height="64" shape-rendering="crispEdges" style="fill:#000000;opacity:255;"></rect><rect id="27-15" x="1664" y="896" width="64" height="64" shape-rendering="crispEdges" style="fill:#000000;opacity:255;"></rect><rect id="28-15" x="1728" y="896" width="64" height="64" shape-rendering="crispEdges" style="fill:#000000;opacity:215;"></rect><rect id="29-15" x="1792" y="896" width="64" height="64" shape-rendering="crispEdges" style="fill:#000000;opacity:255;"></rect><rect id="30-15" x="1856" y="896" width="64" height="64" shape-rendering="crispEdges" style="fill:#000000;opacity:255;"></rect><rect id="31-15" x="1920" y="896" width="64" height="64" shape-rendering="crispEdges" style="fill:#000000;opacity:255;"></rect><rect id="32-15" x="1984" y="896" width="64" height="64" shape-rendering="crispEdges" style="fill:#000000;opacity:255;"></rect><rect id="33-15" x="2048" y="896" width="64" height="64" shape-rendering="crispEdges" style="fill:#000000;opacity:254;"></rect><rect id="34-15" x="2112" y="896" width="64" height="64" shape-rendering="crispEdges" style="fill:#000000;opacity:102;"></rect><rect id="16-16" x="960" y="960" width="64" height="64" shape-rendering="crispEdges" style="fill:#000000;opacity:100;"></rect><rect id="17-16" x="1024" y="960" width="64" height="64" shape-rendering="crispEdges" style="fill:#000000;opacity:253;"></rect><rect id="18-16" x="1088" y="960" width="64" height="64" shape-rendering="crispEdges" style="fill:#000000;opacity:255;"></rect><rect id="19-16" x="1152" y="960" width="64" height="64" shape-rendering="crispEdges" style="fill:#000000;opacity:255;"></rect><rect id="20-16" x="1216" y="960" width="64" height="64" shape-rendering="crispEdges" style="fill:#000000;opacity:255;"></rect><rect id="21-16" x="1280" y="960" width="64" height="64" shape-rendering="crispEdges" style="fill:#000000;opacity:255;"></rect><rect id="22-16" x="1344" y="960" width="64" height="64" shape-rendering="crispEdges" style="fill:#000000;opacity:205;"></rect><rect id="23-16" x="1408" y="960" width="64" height="64" shape-rendering="crispEdges" style="fill:#000000;opacity:39;"></rect><rect id="24-16" x="1472" y="960" width="64" height="64" shape-rendering="crispEdges" style="fill:#000000;opacity:255;"></rect><rect id="25-16" x="1536" y="960" width="64" height="64" shape-rendering="crispEdges" style="fill:#000000;opacity:255;"></rect><rect id="26-16" x="1600" y="960" width="64" height="64" shape-rendering="crispEdges" style="fill:#000000;opacity:255;"></rect><rect id="27-16" x="1664" y="960" width="64" height="64" shape-rendering="crispEdges" style="fill:#000000;opacity:255;"></rect><rect id="28-16" x="1728" y="960" width="64" height="64" shape-rendering="crispEdges" style="fill:#000000;opacity:36;"></rect><rect id="29-16" x="1792" y="960" width="64" height="64" shape-rendering="crispEdges" style="fill:#000000;opacity:200;"></rect><rect id="30-16" x="1856" y="960" width="64" height="64" shape-rendering="crispEdges" style="fill:#000000;opacity:255;"></rect><rect id="31-16" x="1920" y="960" width="64" height="64" shape-rendering="crispEdges" style="fill:#000000;opacity:255;"></rect><rect id="32-16" x="1984" y="960" width="64" height="64" shape-rendering="crispEdges" style="fill:#000000;opacity:255;"></rect><rect id="33-16" x="2048" y="960" width="64" height="64" shape-rendering="crispEdges" style="fill:#000000;opacity:255;"></rect><rect id="34-16" x="2112" y="960" width="64" height="64" shape-rendering="crispEdges" style="fill:#000000;opacity:254;"></rect><rect id="35-16" x="2176" y="960" width="64" height="64" shape-rendering="crispEdges" style="fill:#000000;opacity:107;"></rect><rect id="15-17" x="896" y="1024" width="64" height="64" shape-rendering="crispEdges" style="fill:#000000;opacity:100;"></rect><rect id="16-17" x="960" y="1024" width="64" height="64" shape-rendering="crispEdges" style="fill:#000000;opacity:253;"></rect><rect id="17-17" x="1024" y="1024" width="64" height="64" shape-rendering="crispEdges" style="fill:#000000;opacity:255;"></rect><rect id="18-17" x="1088" y="1024" width="64" height="64" shape-rendering="crispEdges" style="fill:#000000;opacity:255;"></rect><rect id="19-17" x="1152" y="1024" width="64" height="64" shape-rendering="crispEdges" style="fill:#000000;opacity:255;"></rect><rect id="20-17" x="1216" y="1024" width="64" height="64" shape-rendering="crispEdges" style="fill:#000000;opacity:255;"></rect><rect id="21-17" x="1280" y="1024" width="64" height="64" shape-rendering="crispEdges" style="fill:#000000;opacity:205;"></rect><rect id="22-17" x="1344" y="1024" width="64" height="64" shape-rendering="crispEdges" style="fill:#000000;opacity:18;"></rect><rect id="23-17" x="1408" y="1024" width="64" height="64" shape-rendering="crispEdges" style="fill:#000000;opacity:21;"></rect><rect id="24-17" x="1472" y="1024" width="64" height="64" shape-rendering="crispEdges" style="fill:#000000;opacity:255;"></rect><rect id="25-17" x="1536" y="1024" width="64" height="64" shape-rendering="crispEdges" style="fill:#000000;opacity:255;"></rect><rect id="26-17" x="1600" y="1024" width="64" height="64" shape-rendering="crispEdges" style="fill:#000000;opacity:255;"></rect><rect id="27-17" x="1664" y="1024" width="64" height="64" shape-rendering="crispEdges" style="fill:#000000;opacity:255;"></rect><rect id="28-17" x="1728" y="1024" width="64" height="64" shape-rendering="crispEdges" style="fill:#000000;opacity:21;"></rect><rect id="29-17" x="1792" y="1024" width="64" height="64" shape-rendering="crispEdges" style="fill:#000000;opacity:15;"></rect><rect id="30-17" x="1856" y="1024" width="64" height="64" shape-rendering="crispEdges" style="fill:#000000;opacity:200;"></rect><rect id="31-17" x="1920" y="1024" width="64" height="64" shape-rendering="crispEdges" style="fill:#000000;opacity:255;"></rect><rect id="32-17" x="1984" y="1024" width="64" height="64" shape-rendering="crispEdges" style="fill:#000000;opacity:255;"></rect><rect id="33-17" x="2048" y="1024" width="64" height="64" shape-rendering="crispEdges" style="fill:#000000;opacity:255;"></rect><rect id="34-17" x="2112" y="1024" width="64" height="64" shape-rendering="crispEdges" style="fill:#000000;opacity:255;"></rect><rect id="35-17" x="2176" y="1024" width="64" height="64" shape-rendering="crispEdges" style="fill:#000000;opacity:254;"></rect><rect id="36-17" x="2240" y="1024" width="64" height="64" shape-rendering="crispEdges" style="fill:#000000;opacity:107;"></rect><rect id="14-18" x="832" y="1088" width="64" height="64" shape-rendering="crispEdges" style="fill:#000000;opacity:100;"></rect><rect id="15-18" x="896" y="1088" width="64" height="64" shape-rendering="crispEdges" style="fill:#000000;opacity:253;"></rect><rect id="16-18" x="960" y="1088" width="64" height="64" shape-rendering="crispEdges" style="fill:#000000;opacity:255;"></rect><rect id="17-18" x="1024" y="1088" width="64" height="64" shape-rendering="crispEdges" style="fill:#000000;opacity:255;"></rect><rect id="18-18" x="1088" y="1088" width="64" height="64" shape-rendering="crispEdges" style="fill:#000000;opacity:255;"></rect><rect id="19-18" x="1152" y="1088" width="64" height="64" shape-rendering="crispEdges" style="fill:#000000;opacity:255;"></rect><rect id="20-18" x="1216" y="1088" width="64" height="64" shape-rendering="crispEdges" style="fill:#000000;opacity:205;"></rect><rect id="21-18" x="1280" y="1088" width="64" height="64" shape-rendering="crispEdges" style="fill:#000000;opacity:18;"></rect><rect id="23-18" x="1408" y="1088" width="64" height="64" shape-rendering="crispEdges" style="fill:#000000;opacity:21;"></rect><rect id="24-18" x="1472" y="1088" width="64" height="64" shape-rendering="crispEdges" style="fill:#000000;opacity:255;"></rect><rect id="25-18" x="1536" y="1088" width="64" height="64" shape-rendering="crispEdges" style="fill:#000000;opacity:255;"></rect><rect id="26-18" x="1600" y="1088" width="64" height="64" shape-rendering="crispEdges" style="fill:#000000;opacity:255;"></rect><rect id="27-18" x="1664" y="1088" width="64" height="64" shape-rendering="crispEdges" style="fill:#000000;opacity:255;"></rect><rect id="28-18" x="1728" y="1088" width="64" height="64" shape-rendering="crispEdges" style="fill:#000000;opacity:21;"></rect><rect id="30-18" x="1856" y="1088" width="64" height="64" shape-rendering="crispEdges" style="fill:#000000;opacity:15;"></rect><rect id="31-18" x="1920" y="1088" width="64" height="64" shape-rendering="crispEdges" style="fill:#000000;opacity:200;"></rect><rect id="32-18" x="1984" y="1088" width="64" height="64" shape-rendering="crispEdges" style="fill:#000000;opacity:255;"></rect><rect id="33-18" x="2048" y="1088" width="64" height="64" shape-rendering="crispEdges" style="fill:#000000;opacity:255;"></rect><rect id="34-18" x="2112" y="1088" width="64" height="64" shape-rendering="crispEdges" style="fill:#000000;opacity:255;"></rect><rect id="35-18" x="2176" y="1088" width="64" height="64" shape-rendering="crispEdges" style="fill:#000000;opacity:255;"></rect><rect id="36-18" x="2240" y="1088" width="64" height="64" shape-rendering="crispEdges" style="fill:#000000;opacity:254;"></rect><rect id="37-18" x="2304" y="1088" width="64" height="64" shape-rendering="crispEdges" style="fill:#000000;opacity:107;"></rect><rect id="13-19" x="768" y="1152" width="64" height="64" shape-rendering="crispEdges" style="fill:#000000;opacity:100;"></rect><rect id="14-19" x="832" y="1152" width="64" height="64" shape-rendering="crispEdges" style="fill:#000000;opacity:253;"></rect><rect id="15-19" x="896" y="1152" width="64" height="64" shape-rendering="crispEdges" style="fill:#000000;opacity:255;"></rect><rect id="16-19" x="960" y="1152" width="64" height="64" shape-rendering="crispEdges" style="fill:#000000;opacity:255;"></rect><rect id="17-19" x="1024" y="1152" width="64" height="64" shape-rendering="crispEdges" style="fill:#000000;opacity:255;"></rect><rect id="18-19" x="1088" y="1152" width="64" height="64" shape-rendering="crispEdges" style="fill:#000000;opacity:255;"></rect><rect id="19-19" x="1152" y="1152" width="64" height="64" shape-rendering="crispEdges" style="fill:#000000;opacity:205;"></rect><rect id="20-19" x="1216" y="1152" width="64" height="64" shape-rendering="crispEdges" style="fill:#000000;opacity:18;"></rect><rect id="23-19" x="1408" y="1152" width="64" height="64" shape-rendering="crispEdges" style="fill:#000000;opacity:21;"></rect><rect id="24-19" x="1472" y="1152" width="64" height="64" shape-rendering="crispEdges" style="fill:#000000;opacity:255;"></rect><rect id="25-19" x="1536" y="1152" width="64" height="64" shape-rendering="crispEdges" style="fill:#000000;opacity:255;"></rect><rect id="26-19" x="1600" y="1152" width="64" height="64" shape-rendering="crispEdges" style="fill:#000000;opacity:255;"></rect><rect id="27-19" x="1664" y="1152" width="64" height="64" shape-rendering="crispEdges" style="fill:#000000;opacity:255;"></rect><rect id="28-19" x="1728" y="1152" width="64" height="64" shape-rendering="crispEdges" style="fill:#000000;opacity:21;"></rect><rect id="31-19" x="1920" y="1152" width="64" height="64" shape-rendering="crispEdges" style="fill:#000000;opacity:15;"></rect><rect id="32-19" x="1984" y="1152" width="64" height="64" shape-rendering="crispEdges" style="fill:#000000;opacity:200;"></rect><rect id="33-19" x="2048" y="1152" width="64" height="64" shape-rendering="crispEdges" style="fill:#000000;opacity:255;"></rect><rect id="34-19" x="2112" y="1152" width="64" height="64" shape-rendering="crispEdges" style="fill:#000000;opacity:255;"></rect><rect id="35-19" x="2176" y="1152" width="64" height="64" shape-rendering="crispEdges" style="fill:#000000;opacity:255;"></rect><rect id="36-19" x="2240" y="1152" width="64" height="64" shape-rendering="crispEdges" style="fill:#000000;opacity:255;"></rect><rect id="37-19" x="2304" y="1152" width="64" height="64" shape-rendering="crispEdges" style="fill:#000000;opacity:254;"></rect><rect id="38-19" x="2368" y="1152" width="64" height="64" shape-rendering="crispEdges" style="fill:#000000;opacity:107;"></rect><rect id="12-20" x="704" y="1216" width="64" height="64" shape-rendering="crispEdges" style="fill:#000000;opacity:85;"></rect><rect id="13-20" x="768" y="1216" width="64" height="64" shape-rendering="crispEdges" style="fill:#000000;opacity:254;"></rect><rect id="14-20" x="832" y="1216" width="64" height="64" shape-rendering="crispEdges" style="fill:#000000;opacity:255;"></rect><rect id="15-20" x="896" y="1216" width="64" height="64" shape-rendering="crispEdges" style="fill:#000000;opacity:255;"></rect><rect id="16-20" x="960" y="1216" width="64" height="64" shape-rendering="crispEdges" style="fill:#000000;opacity:255;"></rect><rect id="17-20" x="1024" y="1216" width="64" height="64" shape-rendering="crispEdges" style="fill:#000000;opacity:255;"></rect><rect id="18-20" x="1088" y="1216" width="64" height="64" shape-rendering="crispEdges" style="fill:#000000;opacity:202;"></rect><rect id="19-20" x="1152" y="1216" width="64" height="64" shape-rendering="crispEdges" style="fill:#000000;opacity:16;"></rect><rect id="23-20" x="1408" y="1216" width="64" height="64" shape-rendering="crispEdges" style="fill:#000000;opacity:21;"></rect><rect id="24-20" x="1472" y="1216" width="64" height="64" shape-rendering="crispEdges" style="fill:#000000;opacity:255;"></rect><rect id="25-20" x="1536" y="1216" width="64" height="64" shape-rendering="crispEdges" style="fill:#000000;opacity:255;"></rect><rect id="26-20" x="1600" y="1216" width="64" height="64" shape-rendering="crispEdges" style="fill:#000000;opacity:255;"></rect><rect id="27-20" x="1664" y="1216" width="64" height="64" shape-rendering="crispEdges" style="fill:#000000;opacity:255;"></rect><rect id="28-20" x="1728" y="1216" width="64" height="64" shape-rendering="crispEdges" style="fill:#000000;opacity:21;"></rect><rect id="32-20" x="1984" y="1216" width="64" height="64" shape-rendering="crispEdges" style="fill:#000000;opacity:16;"></rect><rect id="33-20" x="2048" y="1216" width="64" height="64" shape-rendering="crispEdges" style="fill:#000000;opacity:202;"></rect><rect id="34-20" x="2112" y="1216" width="64" height="64" shape-rendering="crispEdges" style="fill:#000000;opacity:255;"></rect><rect id="35-20" x="2176" y="1216" width="64" height="64" shape-rendering="crispEdges" style="fill:#000000;opacity:255;"></rect><rect id="36-20" x="2240" y="1216" width="64" height="64" shape-rendering="crispEdges" style="fill:#000000;opacity:255;"></rect><rect id="37-20" x="2304" y="1216" width="64" height="64" shape-rendering="crispEdges" style="fill:#000000;opacity:255;"></rect><rect id="38-20" x="2368" y="1216" width="64" height="64" shape-rendering="crispEdges" style="fill:#000000;opacity:254;"></rect><rect id="39-20" x="2432" y="1216" width="64" height="64" shape-rendering="crispEdges" style="fill:#000000;opacity:85;"></rect><rect id="12-21" x="704" y="1280" width="64" height="64" shape-rendering="crispEdges" style="fill:#000000;opacity:203;"></rect><rect id="13-21" x="768" y="1280" width="64" height="64" shape-rendering="crispEdges" style="fill:#000000;opacity:255;"></rect><rect id="14-21" x="832" y="1280" width="64" height="64" shape-rendering="crispEdges" style="fill:#000000;opacity:255;"></rect><rect id="15-21" x="896" y="1280" width="64" height="64" shape-rendering="crispEdges" style="fill:#000000;opacity:255;"></rect><rect id="16-21" x="960" y="1280" width="64" height="64" shape-rendering="crispEdges" style="fill:#000000;opacity:255;"></rect><rect id="17-21" x="1024" y="1280" width="64" height="64" shape-rendering="crispEdges" style="fill:#000000;opacity:202;"></rect><rect id="18-21" x="1088" y="1280" width="64" height="64" shape-rendering="crispEdges" style="fill:#000000;opacity:16;"></rect><rect id="23-21" x="1408" y="1280" width="64" height="64" shape-rendering="crispEdges" style="fill:#000000;opacity:21;"></rect><rect id="24-21" x="1472" y="1280" width="64" height="64" shape-rendering="crispEdges" style="fill:#000000;opacity:255;"></rect><rect id="25-21" x="1536" y="1280" width="64" height="64" shape-rendering="crispEdges" style="fill:#000000;opacity:255;"></rect><rect id="26-21" x="1600" y="1280" width="64" height="64" shape-rendering="crispEdges" style="fill:#000000;opacity:255;"></rect><rect id="27-21" x="1664" y="1280" width="64" height="64" shape-rendering="crispEdges" style="fill:#000000;opacity:255;"></rect><rect id="28-21" x="1728" y="1280" width="64" height="64" shape-rendering="crispEdges" style="fill:#000000;opacity:21;"></rect><rect id="33-21" x="2048" y="1280" width="64" height="64" shape-rendering="crispEdges" style="fill:#000000;opacity:16;"></rect><rect id="34-21" x="2112" y="1280" width="64" height="64" shape-rendering="crispEdges" style="fill:#000000;opacity:202;"></rect><rect id="35-21" x="2176" y="1280" width="64" height="64" shape-rendering="crispEdges" style="fill:#000000;opacity:255;"></rect><rect id="36-21" x="2240" y="1280" width="64" height="64" shape-rendering="crispEdges" style="fill:#000000;opacity:255;"></rect><rect id="37-21" x="2304" y="1280" width="64" height="64" shape-rendering="crispEdges" style="fill:#000000;opacity:255;"></rect><rect id="38-21" x="2368" y="1280" width="64" height="64" shape-rendering="crispEdges" style="fill:#000000;opacity:255;"></rect><rect id="39-21" x="2432" y="1280" width="64" height="64" shape-rendering="crispEdges" style="fill:#000000;opacity:203;"></rect><rect id="12-22" x="704" y="1344" width="64" height="64" shape-rendering="crispEdges" style="fill:#000000;opacity:179;"></rect><rect id="13-22" x="768" y="1344" width="64" height="64" shape-rendering="crispEdges" style="fill:#000000;opacity:255;"></rect><rect id="14-22" x="832" y="1344" width="64" height="64" shape-rendering="crispEdges" style="fill:#000000;opacity:255;"></rect><rect id="15-22" x="896" y="1344" width="64" height="64" shape-rendering="crispEdges" style="fill:#000000;opacity:255;"></rect><rect id="16-22" x="960" y="1344" width="64" height="64" shape-rendering="crispEdges" style="fill:#000000;opacity:202;"></rect><rect id="17-22" x="1024" y="1344" width="64" height="64" shape-rendering="crispEdges" style="fill:#000000;opacity:16;"></rect><rect id="23-22" x="1408" y="1344" width="64" height="64" shape-rendering="crispEdges" style="fill:#000000;opacity:21;"></rect><rect id="24-22" x="1472" y="1344" width="64" height="64" shape-rendering="crispEdges" style="fill:#000000;opacity:255;"></rect><rect id="25-22" x="1536" y="1344" width="64" height="64" shape-rendering="crispEdges" style="fill:#000000;opacity:255;"></rect><rect id="26-22" x="1600" y="1344" width="64" height="64" shape-rendering="crispEdges" style="fill:#000000;opacity:255;"></rect><rect id="27-22" x="1664" y="1344" width="64" height="64" shape-rendering="crispEdges" style="fill:#000000;opacity:255;"></rect><rect id="28-22" x="1728" y="1344" width="64" height="64" shape-rendering="crispEdges" style="fill:#000000;opacity:21;"></rect><rect id="34-22" x="2112" y="1344" width="64" height="64" shape-rendering="crispEdges" style="fill:#000000;opacity:16;"></rect><rect id="35-22" x="2176" y="1344" width="64" height="64" shape-rendering="crispEdges" style="fill:#000000;opacity:202;"></rect><rect id="36-22" x="2240" y="1344" width="64" height="64" shape-rendering="crispEdges" style="fill:#000000;opacity:255;"></rect><rect id="37-22" x="2304" y="1344" width="64" height="64" shape-rendering="crispEdges" style="fill:#000000;opacity:255;"></rect><rect id="38-22" x="2368" y="1344" width="64" height="64" shape-rendering="crispEdges" style="fill:#000000;opacity:255;"></rect><rect id="39-22" x="2432" y="1344" width="64" height="64" shape-rendering="crispEdges" style="fill:#000000;opacity:179;"></rect><rect id="12-23" x="704" y="1408" width="64" height="64" shape-rendering="crispEdges" style="fill:#000000;opacity:36;"></rect><rect id="13-23" x="768" y="1408" width="64" height="64" shape-rendering="crispEdges" style="fill:#000000;opacity:212;"></rect><rect id="14-23" x="832" y="1408" width="64" height="64" shape-rendering="crispEdges" style="fill:#000000;opacity:255;"></rect><rect id="15-23" x="896" y="1408" width="64" height="64" shape-rendering="crispEdges" style="fill:#000000;opacity:182;"></rect><rect id="16-23" x="960" y="1408" width="64" height="64" shape-rendering="crispEdges" style="fill:#000000;opacity:16;"></rect><rect id="23-23" x="1408" y="1408" width="64" height="64" shape-rendering="crispEdges" style="fill:#000000;opacity:21;"></rect><rect id="24-23" x="1472" y="1408" width="64" height="64" shape-rendering="crispEdges" style="fill:#000000;opacity:255;"></rect><rect id="25-23" x="1536" y="1408" width="64" height="64" shape-rendering="crispEdges" style="fill:#000000;opacity:255;"></rect><rect id="26-23" x="1600" y="1408" width="64" height="64" shape-rendering="crispEdges" style="fill:#000000;opacity:255;"></rect><rect id="27-23" x="1664" y="1408" width="64" height="64" shape-rendering="crispEdges" style="fill:#000000;opacity:255;"></rect><rect id="28-23" x="1728" y="1408" width="64" height="64" shape-rendering="crispEdges" style="fill:#000000;opacity:21;"></rect><rect id="35-23" x="2176" y="1408" width="64" height="64" shape-rendering="crispEdges" style="fill:#000000;opacity:16;"></rect><rect id="36-23" x="2240" y="1408" width="64" height="64" shape-rendering="crispEdges" style="fill:#000000;opacity:183;"></rect><rect id="37-23" x="2304" y="1408" width="64" height="64" shape-rendering="crispEdges" style="fill:#000000;opacity:255;"></rect><rect id="38-23" x="2368" y="1408" width="64" height="64" shape-rendering="crispEdges" style="fill:#000000;opacity:212;"></rect><rect id="39-23" x="2432" y="1408" width="64" height="64" shape-rendering="crispEdges" style="fill:#000000;opacity:36;"></rect><rect id="14-24" x="832" y="1472" width="64" height="64" shape-rendering="crispEdges" style="fill:#000000;opacity:10;"></rect><rect id="23-24" x="1408" y="1472" width="64" height="64" shape-rendering="crispEdges" style="fill:#000000;opacity:21;"></rect><rect id="24-24" x="1472" y="1472" width="64" height="64" shape-rendering="crispEdges" style="fill:#000000;opacity:255;"></rect><rect id="25-24" x="1536" y="1472" width="64" height="64" shape-rendering="crispEdges" style="fill:#000000;opacity:255;"></rect><rect id="26-24" x="1600" y="1472" width="64" height="64" shape-rendering="crispEdges" style="fill:#000000;opacity:255;"></rect><rect id="27-24" x="1664" y="1472" width="64" height="64" shape-rendering="crispEdges" style="fill:#000000;opacity:255;"></rect><rect id="28-24" x="1728" y="1472" width="64" height="64" shape-rendering="crispEdges" style="fill:#000000;opacity:21;"></rect><rect id="37-24" x="2304" y="1472" width="64" height="64" shape-rendering="crispEdges" style="fill:#000000;opacity:10;"></rect><rect id="23-25" x="1408" y="1536" width="64" height="64" shape-rendering="crispEdges" style="fill:#000000;opacity:21;"></rect><rect id="24-25" x="1472" y="1536" width="64" height="64" shape-rendering="crispEdges" style="fill:#000000;opacity:255;"></rect><rect id="25-25" x="1536" y="1536" width="64" height="64" shape-rendering="crispEdges" style="fill:#000000;opacity:255;"></rect><rect id="26-25" x="1600" y="1536" width="64" height="64" shape-rendering="crispEdges" style="fill:#000000;opacity:255;"></rect><rect id="27-25" x="1664" y="1536" width="64" height="64" shape-rendering="crispEdges" style="fill:#000000;opacity:255;"></rect><rect id="28-25" x="1728" y="1536" width="64" height="64" shape-rendering="crispEdges" style="fill:#000000;opacity:21;"></rect><rect id="23-26" x="1408" y="1600" width="64" height="64" shape-rendering="crispEdges" style="fill:#000000;opacity:21;"></rect><rect id="24-26" x="1472" y="1600" width="64" height="64" shape-rendering="crispEdges" style="fill:#000000;opacity:255;"></rect><rect id="25-26" x="1536" y="1600" width="64" height="64" shape-rendering="crispEdges" style="fill:#000000;opacity:255;"></rect><rect id="26-26" x="1600" y="1600" width="64" height="64" shape-rendering="crispEdges" style="fill:#000000;opacity:255;"></rect><rect id="27-26" x="1664" y="1600" width="64" height="64" shape-rendering="crispEdges" style="fill:#000000;opacity:255;"></rect><rect id="28-26" x="1728" y="1600" width="64" height="64" shape-rendering="crispEdges" style="fill:#000000;opacity:21;"></rect><rect id="23-27" x="1408" y="1664" width="64" height="64" shape-rendering="crispEdges" style="fill:#000000;opacity:21;"></rect><rect id="24-27" x="1472" y="1664" width="64" height="64" shape-rendering="crispEdges" style="fill:#000000;opacity:255;"></rect><rect id="25-27" x="1536" y="1664" width="64" height="64" shape-rendering="crispEdges" style="fill:#000000;opacity:255;"></rect><rect id="26-27" x="1600" y="1664" width="64" height="64" shape-rendering="crispEdges" style="fill:#000000;opacity:255;"></rect><rect id="27-27" x="1664" y="1664" width="64" height="64" shape-rendering="crispEdges" style="fill:#000000;opacity:255;"></rect><rect id="28-27" x="1728" y="1664" width="64" height="64" shape-rendering="crispEdges" style="fill:#000000;opacity:21;"></rect><rect id="23-28" x="1408" y="1728" width="64" height="64" shape-rendering="crispEdges" style="fill:#000000;opacity:21;"></rect><rect id="24-28" x="1472" y="1728" width="64" height="64" shape-rendering="crispEdges" style="fill:#000000;opacity:255;"></rect><rect id="25-28" x="1536" y="1728" width="64" height="64" shape-rendering="crispEdges" style="fill:#000000;opacity:255;"></rect><rect id="26-28" x="1600" y="1728" width="64" height="64" shape-rendering="crispEdges" style="fill:#000000;opacity:255;"></rect><rect id="27-28" x="1664" y="1728" width="64" height="64" shape-rendering="crispEdges" style="fill:#000000;opacity:255;"></rect><rect id="28-28" x="1728" y="1728" width="64" height="64" shape-rendering="crispEdges" style="fill:#000000;opacity:21;"></rect><rect id="23-29" x="1408" y="1792" width="64" height="64" shape-rendering="crispEdges" style="fill:#000000;opacity:21;"></rect><rect id="24-29" x="1472" y="1792" width="64" height="64" shape-rendering="crispEdges" style="fill:#000000;opacity:255;"></rect><rect id="25-29" x="1536" y="1792" width="64" height="64" shape-rendering="crispEdges" style="fill:#000000;opacity:255;"></rect><rect id="26-29" x="1600" y="1792" width="64" height="64" shape-rendering="crispEdges" style="fill:#000000;opacity:255;"></rect><rect id="27-29" x="1664" y="1792" width="64" height="64" shape-rendering="crispEdges" style="fill:#000000;opacity:255;"></rect><rect id="28-29" x="1728" y="1792" width="64" height="64" shape-rendering="crispEdges" style="fill:#000000;opacity:21;"></rect><rect id="23-30" x="1408" y="1856" width="64" height="64" shape-rendering="crispEdges" style="fill:#000000;opacity:21;"></rect><rect id="24-30" x="1472" y="1856" width="64" height="64" shape-rendering="crispEdges" style="fill:#000000;opacity:255;"></rect><rect id="25-30" x="1536" y="1856" width="64" height="64" shape-rendering="crispEdges" style="fill:#000000;opacity:255;"></rect><rect id="26-30" x="1600" y="1856" width="64" height="64" shape-rendering="crispEdges" style="fill:#000000;opacity:255;"></rect><rect id="27-30" x="1664" y="1856" width="64" height="64" shape-rendering="crispEdges" style="fill:#000000;opacity:255;"></rect><rect id="28-30" x="1728" y="1856" width="64" height="64" shape-rendering="crispEdges" style="fill:#000000;opacity:21;"></rect><rect id="23-31" x="1408" y="1920" width="64" height="64" shape-rendering="crispEdges" style="fill:#000000;opacity:21;"></rect><rect id="24-31" x="1472" y="1920" width="64" height="64" shape-rendering="crispEdges" style="fill:#000000;opacity:255;"></rect><rect id="25-31" x="1536" y="1920" width="64" height="64" shape-rendering="crispEdges" style="fill:#000000;opacity:255;"></rect><rect id="26-31" x="1600" y="1920" width="64" height="64" shape-rendering="crispEdges" style="fill:#000000;opacity:255;"></rect><rect id="27-31" x="1664" y="1920" width="64" height="64" shape-rendering="crispEdges" style="fill:#000000;opacity:255;"></rect><rect id="28-31" x="1728" y="1920" width="64" height="64" shape-rendering="crispEdges" style="fill:#000000;opacity:21;"></rect><rect id="23-32" x="1408" y="1984" width="64" height="64" shape-rendering="crispEdges" style="fill:#000000;opacity:21;"></rect><rect id="24-32" x="1472" y="1984" width="64" height="64" shape-rendering="crispEdges" style="fill:#000000;opacity:255;"></rect><rect id="25-32" x="1536" y="1984" width="64" height="64" shape-rendering="crispEdges" style="fill:#000000;opacity:255;"></rect><rect id="26-32" x="1600" y="1984" width="64" height="64" shape-rendering="crispEdges" style="fill:#000000;opacity:255;"></rect><rect id="27-32" x="1664" y="1984" width="64" height="64" shape-rendering="crispEdges" style="fill:#000000;opacity:255;"></rect><rect id="28-32" x="1728" y="1984" width="64" height="64" shape-rendering="crispEdges" style="fill:#000000;opacity:21;"></rect><rect id="23-33" x="1408" y="2048" width="64" height="64" shape-rendering="crispEdges" style="fill:#000000;opacity:21;"></rect><rect id="24-33" x="1472" y="2048" width="64" height="64" shape-rendering="crispEdges" style="fill:#000000;opacity:255;"></rect><rect id="25-33" x="1536" y="2048" width="64" height="64" shape-rendering="crispEdges" style="fill:#000000;opacity:255;"></rect><rect id="26-33" x="1600" y="2048" width="64" height="64" shape-rendering="crispEdges" style="fill:#000000;opacity:255;"></rect><rect id="27-33" x="1664" y="2048" width="64" height="64" shape-rendering="crispEdges" style="fill:#000000;opacity:255;"></rect><rect id="28-33" x="1728" y="2048" width="64" height="64" shape-rendering="crispEdges" style="fill:#000000;opacity:21;"></rect><rect id="23-34" x="1408" y="2112" width="64" height="64" shape-rendering="crispEdges" style="fill:#000000;opacity:21;"></rect><rect id="24-34" x="1472" y="2112" width="64" height="64" shape-rendering="crispEdges" style="fill:#000000;opacity:255;"></rect><rect id="25-34" x="1536" y="2112" width="64" height="64" shape-rendering="crispEdges" style="fill:#000000;opacity:255;"></rect><rect id="26-34" x="1600" y="2112" width="64" height="64" shape-rendering="crispEdges" style="fill:#000000;opacity:255;"></rect><rect id="27-34" x="1664" y="2112" width="64" height="64" shape-rendering="crispEdges" style="fill:#000000;opacity:255;"></rect><rect id="28-34" x="1728" y="2112" width="64" height="64" shape-rendering="crispEdges" style="fill:#000000;opacity:21;"></rect><rect id="23-35" x="1408" y="2176" width="64" height="64" shape-rendering="crispEdges" style="fill:#000000;opacity:21;"></rect><rect id="24-35" x="1472" y="2176" width="64" height="64" shape-rendering="crispEdges" style="fill:#000000;opacity:255;"></rect><rect id="25-35" x="1536" y="2176" width="64" height="64" shape-rendering="crispEdges" style="fill:#000000;opacity:255;"></rect><rect id="26-35" x="1600" y="2176" width="64" height="64" shape-rendering="crispEdges" style="fill:#000000;opacity:255;"></rect><rect id="27-35" x="1664" y="2176" width="64" height="64" shape-rendering="crispEdges" style="fill:#000000;opacity:255;"></rect><rect id="28-35" x="1728" y="2176" width="64" height="64" shape-rendering="crispEdges" style="fill:#000000;opacity:21;"></rect><rect id="23-36" x="1408" y="2240" width="64" height="64" shape-rendering="crispEdges" style="fill:#000000;opacity:21;"></rect><rect id="24-36" x="1472" y="2240" width="64" height="64" shape-rendering="crispEdges" style="fill:#000000;opacity:255;"></rect><rect id="25-36" x="1536" y="2240" width="64" height="64" shape-rendering="crispEdges" style="fill:#000000;opacity:255;"></rect><rect id="26-36" x="1600" y="2240" width="64" height="64" shape-rendering="crispEdges" style="fill:#000000;opacity:255;"></rect><rect id="27-36" x="1664" y="2240" width="64" height="64" shape-rendering="crispEdges" style="fill:#000000;opacity:255;"></rect><rect id="28-36" x="1728" y="2240" width="64" height="64" shape-rendering="crispEdges" style="fill:#000000;opacity:21;"></rect><rect id="23-37" x="1408" y="2304" width="64" height="64" shape-rendering="crispEdges" style="fill:#000000;opacity:21;"></rect><rect id="24-37" x="1472" y="2304" width="64" height="64" shape-rendering="crispEdges" style="fill:#000000;opacity:255;"></rect><rect id="25-37" x="1536" y="2304" width="64" height="64" shape-rendering="crispEdges" style="fill:#000000;opacity:255;"></rect><rect id="26-37" x="1600" y="2304" width="64" height="64" shape-rendering="crispEdges" style="fill:#000000;opacity:255;"></rect><rect id="27-37" x="1664" y="2304" width="64" height="64" shape-rendering="crispEdges" style="fill:#000000;opacity:255;"></rect><rect id="28-37" x="1728" y="2304" width="64" height="64" shape-rendering="crispEdges" style="fill:#000000;opacity:21;"></rect><rect id="23-38" x="1408" y="2368" width="64" height="64" shape-rendering="crispEdges" style="fill:#000000;opacity:21;"></rect><rect id="24-38" x="1472" y="2368" width="64" height="64" shape-rendering="crispEdges" style="fill:#000000;opacity:255;"></rect><rect id="25-38" x="1536" y="2368" width="64" height="64" shape-rendering="crispEdges" style="fill:#000000;opacity:255;"></rect><rect id="26-38" x="1600" y="2368" width="64" height="64" shape-rendering="crispEdges" style="fill:#000000;opacity:255;"></rect><rect id="27-38" x="1664" y="2368" width="64" height="64" shape-rendering="crispEdges" style="fill:#000000;opacity:255;"></rect><rect id="28-38" x="1728" y="2368" width="64" height="64" shape-rendering="crispEdges" style="fill:#000000;opacity:21;"></rect><rect id="23-39" x="1408" y="2432" width="64" height="64" shape-rendering="crispEdges" style="fill:#000000;opacity:21;"></rect><rect id="24-39" x="1472" y="2432" width="64" height="64" shape-rendering="crispEdges" style="fill:#000000;opacity:255;"></rect><rect id="25-39" x="1536" y="2432" width="64" height="64" shape-rendering="crispEdges" style="fill:#000000;opacity:255;"></rect><rect id="26-39" x="1600" y="2432" width="64" height="64" shape-rendering="crispEdges" style="fill:#000000;opacity:255;"></rect><rect id="27-39" x="1664" y="2432" width="64" height="64" shape-rendering="crispEdges" style="fill:#000000;opacity:255;"></rect><rect id="28-39" x="1728" y="2432" width="64" height="64" shape-rendering="crispEdges" style="fill:#000000;opacity:21;"></rect><rect id="23-40" x="1408" y="2496" width="64" height="64" shape-rendering="crispEdges" style="fill:#000000;opacity:21;"></rect><rect id="24-40" x="1472" y="2496" width="64" height="64" shape-rendering="crispEdges" style="fill:#000000;opacity:255;"></rect><rect id="25-40" x="1536" y="2496" width="64" height="64" shape-rendering="crispEdges" style="fill:#000000;opacity:255;"></rect><rect id="26-40" x="1600" y="2496" width="64" height="64" shape-rendering="crispEdges" style="fill:#000000;opacity:255;"></rect><rect id="27-40" x="1664" y="2496" width="64" height="64" shape-rendering="crispEdges" style="fill:#000000;opacity:255;"></rect><rect id="28-40" x="1728" y="2496" width="64" height="64" shape-rendering="crispEdges" style="fill:#000000;opacity:21;"></rect><rect id="23-41" x="1408" y="2560" width="64" height="64" shape-rendering="crispEdges" style="fill:#000000;opacity:21;"></rect><rect id="24-41" x="1472" y="2560" width="64" height="64" shape-rendering="crispEdges" style="fill:#000000;opacity:255;"></rect><rect id="25-41" x="1536" y="2560" width="64" height="64" shape-rendering="crispEdges" style="fill:#000000;opacity:255;"></rect><rect id="26-41" x="1600" y="2560" width="64" height="64" shape-rendering="crispEdges" style="fill:#000000;opacity:255;"></rect><rect id="27-41" x="1664" y="2560" width="64" height="64" shape-rendering="crispEdges" style="fill:#000000;opacity:255;"></rect><rect id="28-41" x="1728" y="2560" width="64" height="64" shape-rendering="crispEdges" style="fill:#000000;opacity:21;"></rect><rect id="23-42" x="1408" y="2624" width="64" height="64" shape-rendering="crispEdges" style="fill:#000000;opacity:18;"></rect><rect id="24-42" x="1472" y="2624" width="64" height="64" shape-rendering="crispEdges" style="fill:#000000;opacity:255;"></rect><rect id="25-42" x="1536" y="2624" width="64" height="64" shape-rendering="crispEdges" style="fill:#000000;opacity:255;"></rect><rect id="26-42" x="1600" y="2624" width="64" height="64" shape-rendering="crispEdges" style="fill:#000000;opacity:255;"></rect><rect id="27-42" x="1664" y="2624" width="64" height="64" shape-rendering="crispEdges" style="fill:#000000;opacity:255;"></rect><rect id="28-42" x="1728" y="2624" width="64" height="64" shape-rendering="crispEdges" style="fill:#000000;opacity:18;"></rect><rect id="24-43" x="1472" y="2688" width="64" height="64" shape-rendering="crispEdges" style="fill:#000000;opacity:217;"></rect><rect id="25-43" x="1536" y="2688" width="64" height="64" shape-rendering="crispEdges" style="fill:#000000;opacity:255;"></rect><rect id="26-43" x="1600" y="2688" width="64" height="64" shape-rendering="crispEdges" style="fill:#000000;opacity:255;"></rect><rect id="27-43" x="1664" y="2688" width="64" height="64" shape-rendering="crispEdges" style="fill:#000000;opacity:215;"></rect><rect id="24-44" x="1472" y="2752" width="64" height="64" shape-rendering="crispEdges" style="fill:#000000;opacity:38;"></rect><rect id="25-44" x="1536" y="2752" width="64" height="64" shape-rendering="crispEdges" style="fill:#000000;opacity:163;"></rect><rect id="26-44" x="1600" y="2752" width="64" height="64" shape-rendering="crispEdges" style="fill:#000000;opacity:162;"></rect><rect id="27-44" x="1664" y="2752" width="64" height="64" shape-rendering="crispEdges" style="fill:#000000;opacity:37;"></rect></svg>