<?xml version="1.0" encoding="UTF-8" standalone="no"?><svg xmlns="http://www.w3.org/2000/svg" id="pixil-frame-0-(14)" width="1024" height="1024" viewBox="0 0 1024 1024" preserveAspectRatio="xMidYMid meet" rendering="crispEdges"><rect id="4-1" x="192" y="0" width="64" height="64" shape-rendering="crispEdges" style="fill:#000000;opacity:255;"></rect><rect id="5-1" x="256" y="0" width="64" height="64" shape-rendering="crispEdges" style="fill:#000000;opacity:255;"></rect><rect id="6-1" x="320" y="0" width="64" height="64" shape-rendering="crispEdges" style="fill:#000000;opacity:255;"></rect><rect id="7-1" x="384" y="0" width="64" height="64" shape-rendering="crispEdges" style="fill:#000000;opacity:255;"></rect><rect id="8-1" x="448" y="0" width="64" height="64" shape-rendering="crispEdges" style="fill:#000000;opacity:255;"></rect><rect id="9-1" x="512" y="0" width="64" height="64" shape-rendering="crispEdges" style="fill:#000000;opacity:255;"></rect><rect id="10-1" x="576" y="0" width="64" height="64" shape-rendering="crispEdges" style="fill:#000000;opacity:255;"></rect><rect id="11-1" x="640" y="0" width="64" height="64" shape-rendering="crispEdges" style="fill:#000000;opacity:255;"></rect><rect id="12-1" x="704" y="0" width="64" height="64" shape-rendering="crispEdges" style="fill:#000000;opacity:255;"></rect><rect id="13-1" x="768" y="0" width="64" height="64" shape-rendering="crispEdges" style="fill:#000000;opacity:255;"></rect><rect id="2-2" x="64" y="64" width="64" height="64" shape-rendering="crispEdges" style="fill:#000000;opacity:255;"></rect><rect id="3-2" x="128" y="64" width="64" height="64" shape-rendering="crispEdges" style="fill:#000000;opacity:255;"></rect><rect id="14-2" x="832" y="64" width="64" height="64" shape-rendering="crispEdges" style="fill:#000000;opacity:255;"></rect><rect id="15-2" x="896" y="64" width="64" height="64" shape-rendering="crispEdges" style="fill:#000000;opacity:255;"></rect><rect id="2-3" x="64" y="128" width="64" height="64" shape-rendering="crispEdges" style="fill:#000000;opacity:255;"></rect><rect id="15-3" x="896" y="128" width="64" height="64" shape-rendering="crispEdges" style="fill:#000000;opacity:255;"></rect><rect id="2-4" x="64" y="192" width="64" height="64" shape-rendering="crispEdges" style="fill:#000000;opacity:255;"></rect><rect id="15-4" x="896" y="192" width="64" height="64" shape-rendering="crispEdges" style="fill:#000000;opacity:255;"></rect><rect id="2-5" x="64" y="256" width="64" height="64" shape-rendering="crispEdges" style="fill:#000000;opacity:255;"></rect><rect id="15-5" x="896" y="256" width="64" height="64" shape-rendering="crispEdges" style="fill:#000000;opacity:255;"></rect><rect id="2-6" x="64" y="320" width="64" height="64" shape-rendering="crispEdges" style="fill:#000000;opacity:255;"></rect><rect id="15-6" x="896" y="320" width="64" height="64" shape-rendering="crispEdges" style="fill:#000000;opacity:255;"></rect><rect id="2-7" x="64" y="384" width="64" height="64" shape-rendering="crispEdges" style="fill:#000000;opacity:255;"></rect><rect id="15-7" x="896" y="384" width="64" height="64" shape-rendering="crispEdges" style="fill:#000000;opacity:255;"></rect><rect id="2-8" x="64" y="448" width="64" height="64" shape-rendering="crispEdges" style="fill:#000000;opacity:255;"></rect><rect id="15-8" x="896" y="448" width="64" height="64" shape-rendering="crispEdges" style="fill:#000000;opacity:255;"></rect><rect id="2-9" x="64" y="512" width="64" height="64" shape-rendering="crispEdges" style="fill:#000000;opacity:255;"></rect><rect id="15-9" x="896" y="512" width="64" height="64" shape-rendering="crispEdges" style="fill:#000000;opacity:255;"></rect><rect id="3-10" x="128" y="576" width="64" height="64" shape-rendering="crispEdges" style="fill:#000000;opacity:255;"></rect><rect id="14-10" x="832" y="576" width="64" height="64" shape-rendering="crispEdges" style="fill:#000000;opacity:255;"></rect><rect id="3-11" x="128" y="640" width="64" height="64" shape-rendering="crispEdges" style="fill:#000000;opacity:255;"></rect><rect id="14-11" x="832" y="640" width="64" height="64" shape-rendering="crispEdges" style="fill:#000000;opacity:255;"></rect><rect id="4-12" x="192" y="704" width="64" height="64" shape-rendering="crispEdges" style="fill:#000000;opacity:255;"></rect><rect id="13-12" x="768" y="704" width="64" height="64" shape-rendering="crispEdges" style="fill:#000000;opacity:255;"></rect><rect id="5-13" x="256" y="768" width="64" height="64" shape-rendering="crispEdges" style="fill:#000000;opacity:255;"></rect><rect id="12-13" x="704" y="768" width="64" height="64" shape-rendering="crispEdges" style="fill:#000000;opacity:255;"></rect><rect id="6-14" x="320" y="832" width="64" height="64" shape-rendering="crispEdges" style="fill:#000000;opacity:255;"></rect><rect id="11-14" x="640" y="832" width="64" height="64" shape-rendering="crispEdges" style="fill:#000000;opacity:255;"></rect><rect id="7-15" x="384" y="896" width="64" height="64" shape-rendering="crispEdges" style="fill:#000000;opacity:255;"></rect><rect id="10-15" x="576" y="896" width="64" height="64" shape-rendering="crispEdges" style="fill:#000000;opacity:255;"></rect><rect id="8-16" x="448" y="960" width="64" height="64" shape-rendering="crispEdges" style="fill:#000000;opacity:255;"></rect><rect id="9-16" x="512" y="960" width="64" height="64" shape-rendering="crispEdges" style="fill:#000000;opacity:255;"></rect></svg>