<?xml version="1.0" encoding="UTF-8" standalone="no"?><svg xmlns="http://www.w3.org/2000/svg" id="icons8-pixel-heart-50" width="3200" height="3200" viewBox="0 0 3200 3200" preserveAspectRatio="xMidYMid meet" rendering="crispEdges"><rect id="12-6" x="704" y="320" width="64" height="64" shape-rendering="crispEdges" style="fill:#000000;opacity:255;"></rect><rect id="13-6" x="768" y="320" width="64" height="64" shape-rendering="crispEdges" style="fill:#000000;opacity:255;"></rect><rect id="14-6" x="832" y="320" width="64" height="64" shape-rendering="crispEdges" style="fill:#000000;opacity:255;"></rect><rect id="15-6" x="896" y="320" width="64" height="64" shape-rendering="crispEdges" style="fill:#000000;opacity:255;"></rect><rect id="16-6" x="960" y="320" width="64" height="64" shape-rendering="crispEdges" style="fill:#000000;opacity:255;"></rect><rect id="17-6" x="1024" y="320" width="64" height="64" shape-rendering="crispEdges" style="fill:#000000;opacity:255;"></rect><rect id="18-6" x="1088" y="320" width="64" height="64" shape-rendering="crispEdges" style="fill:#000000;opacity:255;"></rect><rect id="19-6" x="1152" y="320" width="64" height="64" shape-rendering="crispEdges" style="fill:#000000;opacity:255;"></rect><rect id="32-6" x="1984" y="320" width="64" height="64" shape-rendering="crispEdges" style="fill:#000000;opacity:255;"></rect><rect id="33-6" x="2048" y="320" width="64" height="64" shape-rendering="crispEdges" style="fill:#000000;opacity:255;"></rect><rect id="34-6" x="2112" y="320" width="64" height="64" shape-rendering="crispEdges" style="fill:#000000;opacity:255;"></rect><rect id="35-6" x="2176" y="320" width="64" height="64" shape-rendering="crispEdges" style="fill:#000000;opacity:255;"></rect><rect id="36-6" x="2240" y="320" width="64" height="64" shape-rendering="crispEdges" style="fill:#000000;opacity:255;"></rect><rect id="37-6" x="2304" y="320" width="64" height="64" shape-rendering="crispEdges" style="fill:#000000;opacity:255;"></rect><rect id="38-6" x="2368" y="320" width="64" height="64" shape-rendering="crispEdges" style="fill:#000000;opacity:255;"></rect><rect id="39-6" x="2432" y="320" width="64" height="64" shape-rendering="crispEdges" style="fill:#000000;opacity:255;"></rect><rect id="12-7" x="704" y="384" width="64" height="64" shape-rendering="crispEdges" style="fill:#000000;opacity:255;"></rect><rect id="13-7" x="768" y="384" width="64" height="64" shape-rendering="crispEdges" style="fill:#000000;opacity:255;"></rect><rect id="14-7" x="832" y="384" width="64" height="64" shape-rendering="crispEdges" style="fill:#000000;opacity:255;"></rect><rect id="15-7" x="896" y="384" width="64" height="64" shape-rendering="crispEdges" style="fill:#000000;opacity:255;"></rect><rect id="16-7" x="960" y="384" width="64" height="64" shape-rendering="crispEdges" style="fill:#000000;opacity:255;"></rect><rect id="17-7" x="1024" y="384" width="64" height="64" shape-rendering="crispEdges" style="fill:#000000;opacity:255;"></rect><rect id="18-7" x="1088" y="384" width="64" height="64" shape-rendering="crispEdges" style="fill:#000000;opacity:255;"></rect><rect id="19-7" x="1152" y="384" width="64" height="64" shape-rendering="crispEdges" style="fill:#000000;opacity:255;"></rect><rect id="32-7" x="1984" y="384" width="64" height="64" shape-rendering="crispEdges" style="fill:#000000;opacity:255;"></rect><rect id="33-7" x="2048" y="384" width="64" height="64" shape-rendering="crispEdges" style="fill:#000000;opacity:255;"></rect><rect id="34-7" x="2112" y="384" width="64" height="64" shape-rendering="crispEdges" style="fill:#000000;opacity:255;"></rect><rect id="35-7" x="2176" y="384" width="64" height="64" shape-rendering="crispEdges" style="fill:#000000;opacity:255;"></rect><rect id="36-7" x="2240" y="384" width="64" height="64" shape-rendering="crispEdges" style="fill:#000000;opacity:255;"></rect><rect id="37-7" x="2304" y="384" width="64" height="64" shape-rendering="crispEdges" style="fill:#000000;opacity:255;"></rect><rect id="38-7" x="2368" y="384" width="64" height="64" shape-rendering="crispEdges" style="fill:#000000;opacity:255;"></rect><rect id="39-7" x="2432" y="384" width="64" height="64" shape-rendering="crispEdges" style="fill:#000000;opacity:255;"></rect><rect id="12-8" x="704" y="448" width="64" height="64" shape-rendering="crispEdges" style="fill:#000000;opacity:255;"></rect><rect id="13-8" x="768" y="448" width="64" height="64" shape-rendering="crispEdges" style="fill:#000000;opacity:255;"></rect><rect id="14-8" x="832" y="448" width="64" height="64" shape-rendering="crispEdges" style="fill:#000000;opacity:255;"></rect><rect id="15-8" x="896" y="448" width="64" height="64" shape-rendering="crispEdges" style="fill:#000000;opacity:255;"></rect><rect id="16-8" x="960" y="448" width="64" height="64" shape-rendering="crispEdges" style="fill:#000000;opacity:255;"></rect><rect id="17-8" x="1024" y="448" width="64" height="64" shape-rendering="crispEdges" style="fill:#000000;opacity:255;"></rect><rect id="18-8" x="1088" y="448" width="64" height="64" shape-rendering="crispEdges" style="fill:#000000;opacity:255;"></rect><rect id="19-8" x="1152" y="448" width="64" height="64" shape-rendering="crispEdges" style="fill:#000000;opacity:255;"></rect><rect id="32-8" x="1984" y="448" width="64" height="64" shape-rendering="crispEdges" style="fill:#000000;opacity:255;"></rect><rect id="33-8" x="2048" y="448" width="64" height="64" shape-rendering="crispEdges" style="fill:#000000;opacity:255;"></rect><rect id="34-8" x="2112" y="448" width="64" height="64" shape-rendering="crispEdges" style="fill:#000000;opacity:255;"></rect><rect id="35-8" x="2176" y="448" width="64" height="64" shape-rendering="crispEdges" style="fill:#000000;opacity:255;"></rect><rect id="36-8" x="2240" y="448" width="64" height="64" shape-rendering="crispEdges" style="fill:#000000;opacity:255;"></rect><rect id="37-8" x="2304" y="448" width="64" height="64" shape-rendering="crispEdges" style="fill:#000000;opacity:255;"></rect><rect id="38-8" x="2368" y="448" width="64" height="64" shape-rendering="crispEdges" style="fill:#000000;opacity:255;"></rect><rect id="39-8" x="2432" y="448" width="64" height="64" shape-rendering="crispEdges" style="fill:#000000;opacity:255;"></rect><rect id="12-9" x="704" y="512" width="64" height="64" shape-rendering="crispEdges" style="fill:#000000;opacity:255;"></rect><rect id="13-9" x="768" y="512" width="64" height="64" shape-rendering="crispEdges" style="fill:#000000;opacity:255;"></rect><rect id="14-9" x="832" y="512" width="64" height="64" shape-rendering="crispEdges" style="fill:#000000;opacity:255;"></rect><rect id="15-9" x="896" y="512" width="64" height="64" shape-rendering="crispEdges" style="fill:#000000;opacity:255;"></rect><rect id="16-9" x="960" y="512" width="64" height="64" shape-rendering="crispEdges" style="fill:#000000;opacity:255;"></rect><rect id="17-9" x="1024" y="512" width="64" height="64" shape-rendering="crispEdges" style="fill:#000000;opacity:255;"></rect><rect id="18-9" x="1088" y="512" width="64" height="64" shape-rendering="crispEdges" style="fill:#000000;opacity:255;"></rect><rect id="19-9" x="1152" y="512" width="64" height="64" shape-rendering="crispEdges" style="fill:#000000;opacity:255;"></rect><rect id="32-9" x="1984" y="512" width="64" height="64" shape-rendering="crispEdges" style="fill:#000000;opacity:255;"></rect><rect id="33-9" x="2048" y="512" width="64" height="64" shape-rendering="crispEdges" style="fill:#000000;opacity:255;"></rect><rect id="34-9" x="2112" y="512" width="64" height="64" shape-rendering="crispEdges" style="fill:#000000;opacity:255;"></rect><rect id="35-9" x="2176" y="512" width="64" height="64" shape-rendering="crispEdges" style="fill:#000000;opacity:255;"></rect><rect id="36-9" x="2240" y="512" width="64" height="64" shape-rendering="crispEdges" style="fill:#000000;opacity:255;"></rect><rect id="37-9" x="2304" y="512" width="64" height="64" shape-rendering="crispEdges" style="fill:#000000;opacity:255;"></rect><rect id="38-9" x="2368" y="512" width="64" height="64" shape-rendering="crispEdges" style="fill:#000000;opacity:255;"></rect><rect id="39-9" x="2432" y="512" width="64" height="64" shape-rendering="crispEdges" style="fill:#000000;opacity:255;"></rect><rect id="8-10" x="448" y="576" width="64" height="64" shape-rendering="crispEdges" style="fill:#000000;opacity:255;"></rect><rect id="9-10" x="512" y="576" width="64" height="64" shape-rendering="crispEdges" style="fill:#000000;opacity:255;"></rect><rect id="10-10" x="576" y="576" width="64" height="64" shape-rendering="crispEdges" style="fill:#000000;opacity:255;"></rect><rect id="11-10" x="640" y="576" width="64" height="64" shape-rendering="crispEdges" style="fill:#000000;opacity:255;"></rect><rect id="20-10" x="1216" y="576" width="64" height="64" shape-rendering="crispEdges" style="fill:#000000;opacity:255;"></rect><rect id="21-10" x="1280" y="576" width="64" height="64" shape-rendering="crispEdges" style="fill:#000000;opacity:255;"></rect><rect id="22-10" x="1344" y="576" width="64" height="64" shape-rendering="crispEdges" style="fill:#000000;opacity:255;"></rect><rect id="23-10" x="1408" y="576" width="64" height="64" shape-rendering="crispEdges" style="fill:#000000;opacity:255;"></rect><rect id="28-10" x="1728" y="576" width="64" height="64" shape-rendering="crispEdges" style="fill:#000000;opacity:255;"></rect><rect id="29-10" x="1792" y="576" width="64" height="64" shape-rendering="crispEdges" style="fill:#000000;opacity:255;"></rect><rect id="30-10" x="1856" y="576" width="64" height="64" shape-rendering="crispEdges" style="fill:#000000;opacity:255;"></rect><rect id="31-10" x="1920" y="576" width="64" height="64" shape-rendering="crispEdges" style="fill:#000000;opacity:255;"></rect><rect id="40-10" x="2496" y="576" width="64" height="64" shape-rendering="crispEdges" style="fill:#000000;opacity:255;"></rect><rect id="41-10" x="2560" y="576" width="64" height="64" shape-rendering="crispEdges" style="fill:#000000;opacity:255;"></rect><rect id="42-10" x="2624" y="576" width="64" height="64" shape-rendering="crispEdges" style="fill:#000000;opacity:255;"></rect><rect id="43-10" x="2688" y="576" width="64" height="64" shape-rendering="crispEdges" style="fill:#000000;opacity:255;"></rect><rect id="8-11" x="448" y="640" width="64" height="64" shape-rendering="crispEdges" style="fill:#000000;opacity:255;"></rect><rect id="9-11" x="512" y="640" width="64" height="64" shape-rendering="crispEdges" style="fill:#000000;opacity:255;"></rect><rect id="10-11" x="576" y="640" width="64" height="64" shape-rendering="crispEdges" style="fill:#000000;opacity:255;"></rect><rect id="11-11" x="640" y="640" width="64" height="64" shape-rendering="crispEdges" style="fill:#000000;opacity:255;"></rect><rect id="20-11" x="1216" y="640" width="64" height="64" shape-rendering="crispEdges" style="fill:#000000;opacity:255;"></rect><rect id="21-11" x="1280" y="640" width="64" height="64" shape-rendering="crispEdges" style="fill:#000000;opacity:255;"></rect><rect id="22-11" x="1344" y="640" width="64" height="64" shape-rendering="crispEdges" style="fill:#000000;opacity:255;"></rect><rect id="23-11" x="1408" y="640" width="64" height="64" shape-rendering="crispEdges" style="fill:#000000;opacity:255;"></rect><rect id="28-11" x="1728" y="640" width="64" height="64" shape-rendering="crispEdges" style="fill:#000000;opacity:255;"></rect><rect id="29-11" x="1792" y="640" width="64" height="64" shape-rendering="crispEdges" style="fill:#000000;opacity:255;"></rect><rect id="30-11" x="1856" y="640" width="64" height="64" shape-rendering="crispEdges" style="fill:#000000;opacity:255;"></rect><rect id="31-11" x="1920" y="640" width="64" height="64" shape-rendering="crispEdges" style="fill:#000000;opacity:255;"></rect><rect id="40-11" x="2496" y="640" width="64" height="64" shape-rendering="crispEdges" style="fill:#000000;opacity:255;"></rect><rect id="41-11" x="2560" y="640" width="64" height="64" shape-rendering="crispEdges" style="fill:#000000;opacity:255;"></rect><rect id="42-11" x="2624" y="640" width="64" height="64" shape-rendering="crispEdges" style="fill:#000000;opacity:255;"></rect><rect id="43-11" x="2688" y="640" width="64" height="64" shape-rendering="crispEdges" style="fill:#000000;opacity:255;"></rect><rect id="8-12" x="448" y="704" width="64" height="64" shape-rendering="crispEdges" style="fill:#000000;opacity:255;"></rect><rect id="9-12" x="512" y="704" width="64" height="64" shape-rendering="crispEdges" style="fill:#000000;opacity:255;"></rect><rect id="10-12" x="576" y="704" width="64" height="64" shape-rendering="crispEdges" style="fill:#000000;opacity:255;"></rect><rect id="11-12" x="640" y="704" width="64" height="64" shape-rendering="crispEdges" style="fill:#000000;opacity:255;"></rect><rect id="20-12" x="1216" y="704" width="64" height="64" shape-rendering="crispEdges" style="fill:#000000;opacity:255;"></rect><rect id="21-12" x="1280" y="704" width="64" height="64" shape-rendering="crispEdges" style="fill:#000000;opacity:255;"></rect><rect id="22-12" x="1344" y="704" width="64" height="64" shape-rendering="crispEdges" style="fill:#000000;opacity:255;"></rect><rect id="23-12" x="1408" y="704" width="64" height="64" shape-rendering="crispEdges" style="fill:#000000;opacity:255;"></rect><rect id="28-12" x="1728" y="704" width="64" height="64" shape-rendering="crispEdges" style="fill:#000000;opacity:255;"></rect><rect id="29-12" x="1792" y="704" width="64" height="64" shape-rendering="crispEdges" style="fill:#000000;opacity:255;"></rect><rect id="30-12" x="1856" y="704" width="64" height="64" shape-rendering="crispEdges" style="fill:#000000;opacity:255;"></rect><rect id="31-12" x="1920" y="704" width="64" height="64" shape-rendering="crispEdges" style="fill:#000000;opacity:255;"></rect><rect id="40-12" x="2496" y="704" width="64" height="64" shape-rendering="crispEdges" style="fill:#000000;opacity:255;"></rect><rect id="41-12" x="2560" y="704" width="64" height="64" shape-rendering="crispEdges" style="fill:#000000;opacity:255;"></rect><rect id="42-12" x="2624" y="704" width="64" height="64" shape-rendering="crispEdges" style="fill:#000000;opacity:255;"></rect><rect id="43-12" x="2688" y="704" width="64" height="64" shape-rendering="crispEdges" style="fill:#000000;opacity:255;"></rect><rect id="8-13" x="448" y="768" width="64" height="64" shape-rendering="crispEdges" style="fill:#000000;opacity:255;"></rect><rect id="9-13" x="512" y="768" width="64" height="64" shape-rendering="crispEdges" style="fill:#000000;opacity:255;"></rect><rect id="10-13" x="576" y="768" width="64" height="64" shape-rendering="crispEdges" style="fill:#000000;opacity:255;"></rect><rect id="11-13" x="640" y="768" width="64" height="64" shape-rendering="crispEdges" style="fill:#000000;opacity:255;"></rect><rect id="20-13" x="1216" y="768" width="64" height="64" shape-rendering="crispEdges" style="fill:#000000;opacity:255;"></rect><rect id="21-13" x="1280" y="768" width="64" height="64" shape-rendering="crispEdges" style="fill:#000000;opacity:255;"></rect><rect id="22-13" x="1344" y="768" width="64" height="64" shape-rendering="crispEdges" style="fill:#000000;opacity:255;"></rect><rect id="23-13" x="1408" y="768" width="64" height="64" shape-rendering="crispEdges" style="fill:#000000;opacity:255;"></rect><rect id="28-13" x="1728" y="768" width="64" height="64" shape-rendering="crispEdges" style="fill:#000000;opacity:255;"></rect><rect id="29-13" x="1792" y="768" width="64" height="64" shape-rendering="crispEdges" style="fill:#000000;opacity:255;"></rect><rect id="30-13" x="1856" y="768" width="64" height="64" shape-rendering="crispEdges" style="fill:#000000;opacity:255;"></rect><rect id="31-13" x="1920" y="768" width="64" height="64" shape-rendering="crispEdges" style="fill:#000000;opacity:255;"></rect><rect id="40-13" x="2496" y="768" width="64" height="64" shape-rendering="crispEdges" style="fill:#000000;opacity:255;"></rect><rect id="41-13" x="2560" y="768" width="64" height="64" shape-rendering="crispEdges" style="fill:#000000;opacity:255;"></rect><rect id="42-13" x="2624" y="768" width="64" height="64" shape-rendering="crispEdges" style="fill:#000000;opacity:255;"></rect><rect id="43-13" x="2688" y="768" width="64" height="64" shape-rendering="crispEdges" style="fill:#000000;opacity:255;"></rect><rect id="4-14" x="192" y="832" width="64" height="64" shape-rendering="crispEdges" style="fill:#000000;opacity:255;"></rect><rect id="5-14" x="256" y="832" width="64" height="64" shape-rendering="crispEdges" style="fill:#000000;opacity:255;"></rect><rect id="6-14" x="320" y="832" width="64" height="64" shape-rendering="crispEdges" style="fill:#000000;opacity:255;"></rect><rect id="7-14" x="384" y="832" width="64" height="64" shape-rendering="crispEdges" style="fill:#000000;opacity:255;"></rect><rect id="24-14" x="1472" y="832" width="64" height="64" shape-rendering="crispEdges" style="fill:#000000;opacity:255;"></rect><rect id="25-14" x="1536" y="832" width="64" height="64" shape-rendering="crispEdges" style="fill:#000000;opacity:255;"></rect><rect id="26-14" x="1600" y="832" width="64" height="64" shape-rendering="crispEdges" style="fill:#000000;opacity:255;"></rect><rect id="27-14" x="1664" y="832" width="64" height="64" shape-rendering="crispEdges" style="fill:#000000;opacity:255;"></rect><rect id="44-14" x="2752" y="832" width="64" height="64" shape-rendering="crispEdges" style="fill:#000000;opacity:255;"></rect><rect id="45-14" x="2816" y="832" width="64" height="64" shape-rendering="crispEdges" style="fill:#000000;opacity:255;"></rect><rect id="46-14" x="2880" y="832" width="64" height="64" shape-rendering="crispEdges" style="fill:#000000;opacity:255;"></rect><rect id="47-14" x="2944" y="832" width="64" height="64" shape-rendering="crispEdges" style="fill:#000000;opacity:255;"></rect><rect id="4-15" x="192" y="896" width="64" height="64" shape-rendering="crispEdges" style="fill:#000000;opacity:255;"></rect><rect id="5-15" x="256" y="896" width="64" height="64" shape-rendering="crispEdges" style="fill:#000000;opacity:255;"></rect><rect id="6-15" x="320" y="896" width="64" height="64" shape-rendering="crispEdges" style="fill:#000000;opacity:255;"></rect><rect id="7-15" x="384" y="896" width="64" height="64" shape-rendering="crispEdges" style="fill:#000000;opacity:255;"></rect><rect id="24-15" x="1472" y="896" width="64" height="64" shape-rendering="crispEdges" style="fill:#000000;opacity:255;"></rect><rect id="25-15" x="1536" y="896" width="64" height="64" shape-rendering="crispEdges" style="fill:#000000;opacity:255;"></rect><rect id="26-15" x="1600" y="896" width="64" height="64" shape-rendering="crispEdges" style="fill:#000000;opacity:255;"></rect><rect id="27-15" x="1664" y="896" width="64" height="64" shape-rendering="crispEdges" style="fill:#000000;opacity:255;"></rect><rect id="44-15" x="2752" y="896" width="64" height="64" shape-rendering="crispEdges" style="fill:#000000;opacity:255;"></rect><rect id="45-15" x="2816" y="896" width="64" height="64" shape-rendering="crispEdges" style="fill:#000000;opacity:255;"></rect><rect id="46-15" x="2880" y="896" width="64" height="64" shape-rendering="crispEdges" style="fill:#000000;opacity:255;"></rect><rect id="47-15" x="2944" y="896" width="64" height="64" shape-rendering="crispEdges" style="fill:#000000;opacity:255;"></rect><rect id="4-16" x="192" y="960" width="64" height="64" shape-rendering="crispEdges" style="fill:#000000;opacity:255;"></rect><rect id="5-16" x="256" y="960" width="64" height="64" shape-rendering="crispEdges" style="fill:#000000;opacity:255;"></rect><rect id="6-16" x="320" y="960" width="64" height="64" shape-rendering="crispEdges" style="fill:#000000;opacity:255;"></rect><rect id="7-16" x="384" y="960" width="64" height="64" shape-rendering="crispEdges" style="fill:#000000;opacity:255;"></rect><rect id="24-16" x="1472" y="960" width="64" height="64" shape-rendering="crispEdges" style="fill:#000000;opacity:255;"></rect><rect id="25-16" x="1536" y="960" width="64" height="64" shape-rendering="crispEdges" style="fill:#000000;opacity:255;"></rect><rect id="26-16" x="1600" y="960" width="64" height="64" shape-rendering="crispEdges" style="fill:#000000;opacity:255;"></rect><rect id="27-16" x="1664" y="960" width="64" height="64" shape-rendering="crispEdges" style="fill:#000000;opacity:255;"></rect><rect id="44-16" x="2752" y="960" width="64" height="64" shape-rendering="crispEdges" style="fill:#000000;opacity:255;"></rect><rect id="45-16" x="2816" y="960" width="64" height="64" shape-rendering="crispEdges" style="fill:#000000;opacity:255;"></rect><rect id="46-16" x="2880" y="960" width="64" height="64" shape-rendering="crispEdges" style="fill:#000000;opacity:255;"></rect><rect id="47-16" x="2944" y="960" width="64" height="64" shape-rendering="crispEdges" style="fill:#000000;opacity:255;"></rect><rect id="4-17" x="192" y="1024" width="64" height="64" shape-rendering="crispEdges" style="fill:#000000;opacity:255;"></rect><rect id="5-17" x="256" y="1024" width="64" height="64" shape-rendering="crispEdges" style="fill:#000000;opacity:255;"></rect><rect id="6-17" x="320" y="1024" width="64" height="64" shape-rendering="crispEdges" style="fill:#000000;opacity:255;"></rect><rect id="7-17" x="384" y="1024" width="64" height="64" shape-rendering="crispEdges" style="fill:#000000;opacity:255;"></rect><rect id="24-17" x="1472" y="1024" width="64" height="64" shape-rendering="crispEdges" style="fill:#000000;opacity:255;"></rect><rect id="25-17" x="1536" y="1024" width="64" height="64" shape-rendering="crispEdges" style="fill:#000000;opacity:255;"></rect><rect id="26-17" x="1600" y="1024" width="64" height="64" shape-rendering="crispEdges" style="fill:#000000;opacity:255;"></rect><rect id="27-17" x="1664" y="1024" width="64" height="64" shape-rendering="crispEdges" style="fill:#000000;opacity:255;"></rect><rect id="44-17" x="2752" y="1024" width="64" height="64" shape-rendering="crispEdges" style="fill:#000000;opacity:255;"></rect><rect id="45-17" x="2816" y="1024" width="64" height="64" shape-rendering="crispEdges" style="fill:#000000;opacity:255;"></rect><rect id="46-17" x="2880" y="1024" width="64" height="64" shape-rendering="crispEdges" style="fill:#000000;opacity:255;"></rect><rect id="47-17" x="2944" y="1024" width="64" height="64" shape-rendering="crispEdges" style="fill:#000000;opacity:255;"></rect><rect id="4-18" x="192" y="1088" width="64" height="64" shape-rendering="crispEdges" style="fill:#000000;opacity:255;"></rect><rect id="5-18" x="256" y="1088" width="64" height="64" shape-rendering="crispEdges" style="fill:#000000;opacity:255;"></rect><rect id="6-18" x="320" y="1088" width="64" height="64" shape-rendering="crispEdges" style="fill:#000000;opacity:255;"></rect><rect id="7-18" x="384" y="1088" width="64" height="64" shape-rendering="crispEdges" style="fill:#000000;opacity:255;"></rect><rect id="44-18" x="2752" y="1088" width="64" height="64" shape-rendering="crispEdges" style="fill:#000000;opacity:255;"></rect><rect id="45-18" x="2816" y="1088" width="64" height="64" shape-rendering="crispEdges" style="fill:#000000;opacity:255;"></rect><rect id="46-18" x="2880" y="1088" width="64" height="64" shape-rendering="crispEdges" style="fill:#000000;opacity:255;"></rect><rect id="47-18" x="2944" y="1088" width="64" height="64" shape-rendering="crispEdges" style="fill:#000000;opacity:255;"></rect><rect id="4-19" x="192" y="1152" width="64" height="64" shape-rendering="crispEdges" style="fill:#000000;opacity:255;"></rect><rect id="5-19" x="256" y="1152" width="64" height="64" shape-rendering="crispEdges" style="fill:#000000;opacity:255;"></rect><rect id="6-19" x="320" y="1152" width="64" height="64" shape-rendering="crispEdges" style="fill:#000000;opacity:255;"></rect><rect id="7-19" x="384" y="1152" width="64" height="64" shape-rendering="crispEdges" style="fill:#000000;opacity:255;"></rect><rect id="44-19" x="2752" y="1152" width="64" height="64" shape-rendering="crispEdges" style="fill:#000000;opacity:255;"></rect><rect id="45-19" x="2816" y="1152" width="64" height="64" shape-rendering="crispEdges" style="fill:#000000;opacity:255;"></rect><rect id="46-19" x="2880" y="1152" width="64" height="64" shape-rendering="crispEdges" style="fill:#000000;opacity:255;"></rect><rect id="47-19" x="2944" y="1152" width="64" height="64" shape-rendering="crispEdges" style="fill:#000000;opacity:255;"></rect><rect id="4-20" x="192" y="1216" width="64" height="64" shape-rendering="crispEdges" style="fill:#000000;opacity:255;"></rect><rect id="5-20" x="256" y="1216" width="64" height="64" shape-rendering="crispEdges" style="fill:#000000;opacity:255;"></rect><rect id="6-20" x="320" y="1216" width="64" height="64" shape-rendering="crispEdges" style="fill:#000000;opacity:255;"></rect><rect id="7-20" x="384" y="1216" width="64" height="64" shape-rendering="crispEdges" style="fill:#000000;opacity:255;"></rect><rect id="44-20" x="2752" y="1216" width="64" height="64" shape-rendering="crispEdges" style="fill:#000000;opacity:255;"></rect><rect id="45-20" x="2816" y="1216" width="64" height="64" shape-rendering="crispEdges" style="fill:#000000;opacity:255;"></rect><rect id="46-20" x="2880" y="1216" width="64" height="64" shape-rendering="crispEdges" style="fill:#000000;opacity:255;"></rect><rect id="47-20" x="2944" y="1216" width="64" height="64" shape-rendering="crispEdges" style="fill:#000000;opacity:255;"></rect><rect id="4-21" x="192" y="1280" width="64" height="64" shape-rendering="crispEdges" style="fill:#000000;opacity:255;"></rect><rect id="5-21" x="256" y="1280" width="64" height="64" shape-rendering="crispEdges" style="fill:#000000;opacity:255;"></rect><rect id="6-21" x="320" y="1280" width="64" height="64" shape-rendering="crispEdges" style="fill:#000000;opacity:255;"></rect><rect id="7-21" x="384" y="1280" width="64" height="64" shape-rendering="crispEdges" style="fill:#000000;opacity:255;"></rect><rect id="44-21" x="2752" y="1280" width="64" height="64" shape-rendering="crispEdges" style="fill:#000000;opacity:255;"></rect><rect id="45-21" x="2816" y="1280" width="64" height="64" shape-rendering="crispEdges" style="fill:#000000;opacity:255;"></rect><rect id="46-21" x="2880" y="1280" width="64" height="64" shape-rendering="crispEdges" style="fill:#000000;opacity:255;"></rect><rect id="47-21" x="2944" y="1280" width="64" height="64" shape-rendering="crispEdges" style="fill:#000000;opacity:255;"></rect><rect id="4-22" x="192" y="1344" width="64" height="64" shape-rendering="crispEdges" style="fill:#000000;opacity:255;"></rect><rect id="5-22" x="256" y="1344" width="64" height="64" shape-rendering="crispEdges" style="fill:#000000;opacity:255;"></rect><rect id="6-22" x="320" y="1344" width="64" height="64" shape-rendering="crispEdges" style="fill:#000000;opacity:255;"></rect><rect id="7-22" x="384" y="1344" width="64" height="64" shape-rendering="crispEdges" style="fill:#000000;opacity:255;"></rect><rect id="44-22" x="2752" y="1344" width="64" height="64" shape-rendering="crispEdges" style="fill:#000000;opacity:255;"></rect><rect id="45-22" x="2816" y="1344" width="64" height="64" shape-rendering="crispEdges" style="fill:#000000;opacity:255;"></rect><rect id="46-22" x="2880" y="1344" width="64" height="64" shape-rendering="crispEdges" style="fill:#000000;opacity:255;"></rect><rect id="47-22" x="2944" y="1344" width="64" height="64" shape-rendering="crispEdges" style="fill:#000000;opacity:255;"></rect><rect id="4-23" x="192" y="1408" width="64" height="64" shape-rendering="crispEdges" style="fill:#000000;opacity:255;"></rect><rect id="5-23" x="256" y="1408" width="64" height="64" shape-rendering="crispEdges" style="fill:#000000;opacity:255;"></rect><rect id="6-23" x="320" y="1408" width="64" height="64" shape-rendering="crispEdges" style="fill:#000000;opacity:255;"></rect><rect id="7-23" x="384" y="1408" width="64" height="64" shape-rendering="crispEdges" style="fill:#000000;opacity:255;"></rect><rect id="44-23" x="2752" y="1408" width="64" height="64" shape-rendering="crispEdges" style="fill:#000000;opacity:255;"></rect><rect id="45-23" x="2816" y="1408" width="64" height="64" shape-rendering="crispEdges" style="fill:#000000;opacity:255;"></rect><rect id="46-23" x="2880" y="1408" width="64" height="64" shape-rendering="crispEdges" style="fill:#000000;opacity:255;"></rect><rect id="47-23" x="2944" y="1408" width="64" height="64" shape-rendering="crispEdges" style="fill:#000000;opacity:255;"></rect><rect id="4-24" x="192" y="1472" width="64" height="64" shape-rendering="crispEdges" style="fill:#000000;opacity:255;"></rect><rect id="5-24" x="256" y="1472" width="64" height="64" shape-rendering="crispEdges" style="fill:#000000;opacity:255;"></rect><rect id="6-24" x="320" y="1472" width="64" height="64" shape-rendering="crispEdges" style="fill:#000000;opacity:255;"></rect><rect id="7-24" x="384" y="1472" width="64" height="64" shape-rendering="crispEdges" style="fill:#000000;opacity:255;"></rect><rect id="44-24" x="2752" y="1472" width="64" height="64" shape-rendering="crispEdges" style="fill:#000000;opacity:255;"></rect><rect id="45-24" x="2816" y="1472" width="64" height="64" shape-rendering="crispEdges" style="fill:#000000;opacity:255;"></rect><rect id="46-24" x="2880" y="1472" width="64" height="64" shape-rendering="crispEdges" style="fill:#000000;opacity:255;"></rect><rect id="47-24" x="2944" y="1472" width="64" height="64" shape-rendering="crispEdges" style="fill:#000000;opacity:255;"></rect><rect id="4-25" x="192" y="1536" width="64" height="64" shape-rendering="crispEdges" style="fill:#000000;opacity:255;"></rect><rect id="5-25" x="256" y="1536" width="64" height="64" shape-rendering="crispEdges" style="fill:#000000;opacity:255;"></rect><rect id="6-25" x="320" y="1536" width="64" height="64" shape-rendering="crispEdges" style="fill:#000000;opacity:255;"></rect><rect id="7-25" x="384" y="1536" width="64" height="64" shape-rendering="crispEdges" style="fill:#000000;opacity:255;"></rect><rect id="44-25" x="2752" y="1536" width="64" height="64" shape-rendering="crispEdges" style="fill:#000000;opacity:255;"></rect><rect id="45-25" x="2816" y="1536" width="64" height="64" shape-rendering="crispEdges" style="fill:#000000;opacity:255;"></rect><rect id="46-25" x="2880" y="1536" width="64" height="64" shape-rendering="crispEdges" style="fill:#000000;opacity:255;"></rect><rect id="47-25" x="2944" y="1536" width="64" height="64" shape-rendering="crispEdges" style="fill:#000000;opacity:255;"></rect><rect id="8-26" x="448" y="1600" width="64" height="64" shape-rendering="crispEdges" style="fill:#000000;opacity:255;"></rect><rect id="9-26" x="512" y="1600" width="64" height="64" shape-rendering="crispEdges" style="fill:#000000;opacity:255;"></rect><rect id="10-26" x="576" y="1600" width="64" height="64" shape-rendering="crispEdges" style="fill:#000000;opacity:255;"></rect><rect id="11-26" x="640" y="1600" width="64" height="64" shape-rendering="crispEdges" style="fill:#000000;opacity:255;"></rect><rect id="40-26" x="2496" y="1600" width="64" height="64" shape-rendering="crispEdges" style="fill:#000000;opacity:255;"></rect><rect id="41-26" x="2560" y="1600" width="64" height="64" shape-rendering="crispEdges" style="fill:#000000;opacity:255;"></rect><rect id="42-26" x="2624" y="1600" width="64" height="64" shape-rendering="crispEdges" style="fill:#000000;opacity:255;"></rect><rect id="43-26" x="2688" y="1600" width="64" height="64" shape-rendering="crispEdges" style="fill:#000000;opacity:255;"></rect><rect id="8-27" x="448" y="1664" width="64" height="64" shape-rendering="crispEdges" style="fill:#000000;opacity:255;"></rect><rect id="9-27" x="512" y="1664" width="64" height="64" shape-rendering="crispEdges" style="fill:#000000;opacity:255;"></rect><rect id="10-27" x="576" y="1664" width="64" height="64" shape-rendering="crispEdges" style="fill:#000000;opacity:255;"></rect><rect id="11-27" x="640" y="1664" width="64" height="64" shape-rendering="crispEdges" style="fill:#000000;opacity:255;"></rect><rect id="40-27" x="2496" y="1664" width="64" height="64" shape-rendering="crispEdges" style="fill:#000000;opacity:255;"></rect><rect id="41-27" x="2560" y="1664" width="64" height="64" shape-rendering="crispEdges" style="fill:#000000;opacity:255;"></rect><rect id="42-27" x="2624" y="1664" width="64" height="64" shape-rendering="crispEdges" style="fill:#000000;opacity:255;"></rect><rect id="43-27" x="2688" y="1664" width="64" height="64" shape-rendering="crispEdges" style="fill:#000000;opacity:255;"></rect><rect id="8-28" x="448" y="1728" width="64" height="64" shape-rendering="crispEdges" style="fill:#000000;opacity:255;"></rect><rect id="9-28" x="512" y="1728" width="64" height="64" shape-rendering="crispEdges" style="fill:#000000;opacity:255;"></rect><rect id="10-28" x="576" y="1728" width="64" height="64" shape-rendering="crispEdges" style="fill:#000000;opacity:255;"></rect><rect id="11-28" x="640" y="1728" width="64" height="64" shape-rendering="crispEdges" style="fill:#000000;opacity:255;"></rect><rect id="40-28" x="2496" y="1728" width="64" height="64" shape-rendering="crispEdges" style="fill:#000000;opacity:255;"></rect><rect id="41-28" x="2560" y="1728" width="64" height="64" shape-rendering="crispEdges" style="fill:#000000;opacity:255;"></rect><rect id="42-28" x="2624" y="1728" width="64" height="64" shape-rendering="crispEdges" style="fill:#000000;opacity:255;"></rect><rect id="43-28" x="2688" y="1728" width="64" height="64" shape-rendering="crispEdges" style="fill:#000000;opacity:255;"></rect><rect id="8-29" x="448" y="1792" width="64" height="64" shape-rendering="crispEdges" style="fill:#000000;opacity:255;"></rect><rect id="9-29" x="512" y="1792" width="64" height="64" shape-rendering="crispEdges" style="fill:#000000;opacity:255;"></rect><rect id="10-29" x="576" y="1792" width="64" height="64" shape-rendering="crispEdges" style="fill:#000000;opacity:255;"></rect><rect id="11-29" x="640" y="1792" width="64" height="64" shape-rendering="crispEdges" style="fill:#000000;opacity:255;"></rect><rect id="40-29" x="2496" y="1792" width="64" height="64" shape-rendering="crispEdges" style="fill:#000000;opacity:255;"></rect><rect id="41-29" x="2560" y="1792" width="64" height="64" shape-rendering="crispEdges" style="fill:#000000;opacity:255;"></rect><rect id="42-29" x="2624" y="1792" width="64" height="64" shape-rendering="crispEdges" style="fill:#000000;opacity:255;"></rect><rect id="43-29" x="2688" y="1792" width="64" height="64" shape-rendering="crispEdges" style="fill:#000000;opacity:255;"></rect><rect id="12-30" x="704" y="1856" width="64" height="64" shape-rendering="crispEdges" style="fill:#000000;opacity:255;"></rect><rect id="13-30" x="768" y="1856" width="64" height="64" shape-rendering="crispEdges" style="fill:#000000;opacity:255;"></rect><rect id="14-30" x="832" y="1856" width="64" height="64" shape-rendering="crispEdges" style="fill:#000000;opacity:255;"></rect><rect id="15-30" x="896" y="1856" width="64" height="64" shape-rendering="crispEdges" style="fill:#000000;opacity:255;"></rect><rect id="36-30" x="2240" y="1856" width="64" height="64" shape-rendering="crispEdges" style="fill:#000000;opacity:255;"></rect><rect id="37-30" x="2304" y="1856" width="64" height="64" shape-rendering="crispEdges" style="fill:#000000;opacity:255;"></rect><rect id="38-30" x="2368" y="1856" width="64" height="64" shape-rendering="crispEdges" style="fill:#000000;opacity:255;"></rect><rect id="39-30" x="2432" y="1856" width="64" height="64" shape-rendering="crispEdges" style="fill:#000000;opacity:255;"></rect><rect id="12-31" x="704" y="1920" width="64" height="64" shape-rendering="crispEdges" style="fill:#000000;opacity:255;"></rect><rect id="13-31" x="768" y="1920" width="64" height="64" shape-rendering="crispEdges" style="fill:#000000;opacity:255;"></rect><rect id="14-31" x="832" y="1920" width="64" height="64" shape-rendering="crispEdges" style="fill:#000000;opacity:255;"></rect><rect id="15-31" x="896" y="1920" width="64" height="64" shape-rendering="crispEdges" style="fill:#000000;opacity:255;"></rect><rect id="36-31" x="2240" y="1920" width="64" height="64" shape-rendering="crispEdges" style="fill:#000000;opacity:255;"></rect><rect id="37-31" x="2304" y="1920" width="64" height="64" shape-rendering="crispEdges" style="fill:#000000;opacity:255;"></rect><rect id="38-31" x="2368" y="1920" width="64" height="64" shape-rendering="crispEdges" style="fill:#000000;opacity:255;"></rect><rect id="39-31" x="2432" y="1920" width="64" height="64" shape-rendering="crispEdges" style="fill:#000000;opacity:255;"></rect><rect id="12-32" x="704" y="1984" width="64" height="64" shape-rendering="crispEdges" style="fill:#000000;opacity:255;"></rect><rect id="13-32" x="768" y="1984" width="64" height="64" shape-rendering="crispEdges" style="fill:#000000;opacity:255;"></rect><rect id="14-32" x="832" y="1984" width="64" height="64" shape-rendering="crispEdges" style="fill:#000000;opacity:255;"></rect><rect id="15-32" x="896" y="1984" width="64" height="64" shape-rendering="crispEdges" style="fill:#000000;opacity:255;"></rect><rect id="36-32" x="2240" y="1984" width="64" height="64" shape-rendering="crispEdges" style="fill:#000000;opacity:255;"></rect><rect id="37-32" x="2304" y="1984" width="64" height="64" shape-rendering="crispEdges" style="fill:#000000;opacity:255;"></rect><rect id="38-32" x="2368" y="1984" width="64" height="64" shape-rendering="crispEdges" style="fill:#000000;opacity:255;"></rect><rect id="39-32" x="2432" y="1984" width="64" height="64" shape-rendering="crispEdges" style="fill:#000000;opacity:255;"></rect><rect id="12-33" x="704" y="2048" width="64" height="64" shape-rendering="crispEdges" style="fill:#000000;opacity:255;"></rect><rect id="13-33" x="768" y="2048" width="64" height="64" shape-rendering="crispEdges" style="fill:#000000;opacity:255;"></rect><rect id="14-33" x="832" y="2048" width="64" height="64" shape-rendering="crispEdges" style="fill:#000000;opacity:255;"></rect><rect id="15-33" x="896" y="2048" width="64" height="64" shape-rendering="crispEdges" style="fill:#000000;opacity:255;"></rect><rect id="36-33" x="2240" y="2048" width="64" height="64" shape-rendering="crispEdges" style="fill:#000000;opacity:255;"></rect><rect id="37-33" x="2304" y="2048" width="64" height="64" shape-rendering="crispEdges" style="fill:#000000;opacity:255;"></rect><rect id="38-33" x="2368" y="2048" width="64" height="64" shape-rendering="crispEdges" style="fill:#000000;opacity:255;"></rect><rect id="39-33" x="2432" y="2048" width="64" height="64" shape-rendering="crispEdges" style="fill:#000000;opacity:255;"></rect><rect id="16-34" x="960" y="2112" width="64" height="64" shape-rendering="crispEdges" style="fill:#000000;opacity:255;"></rect><rect id="17-34" x="1024" y="2112" width="64" height="64" shape-rendering="crispEdges" style="fill:#000000;opacity:255;"></rect><rect id="18-34" x="1088" y="2112" width="64" height="64" shape-rendering="crispEdges" style="fill:#000000;opacity:255;"></rect><rect id="19-34" x="1152" y="2112" width="64" height="64" shape-rendering="crispEdges" style="fill:#000000;opacity:255;"></rect><rect id="32-34" x="1984" y="2112" width="64" height="64" shape-rendering="crispEdges" style="fill:#000000;opacity:255;"></rect><rect id="33-34" x="2048" y="2112" width="64" height="64" shape-rendering="crispEdges" style="fill:#000000;opacity:255;"></rect><rect id="34-34" x="2112" y="2112" width="64" height="64" shape-rendering="crispEdges" style="fill:#000000;opacity:255;"></rect><rect id="35-34" x="2176" y="2112" width="64" height="64" shape-rendering="crispEdges" style="fill:#000000;opacity:255;"></rect><rect id="16-35" x="960" y="2176" width="64" height="64" shape-rendering="crispEdges" style="fill:#000000;opacity:255;"></rect><rect id="17-35" x="1024" y="2176" width="64" height="64" shape-rendering="crispEdges" style="fill:#000000;opacity:255;"></rect><rect id="18-35" x="1088" y="2176" width="64" height="64" shape-rendering="crispEdges" style="fill:#000000;opacity:255;"></rect><rect id="19-35" x="1152" y="2176" width="64" height="64" shape-rendering="crispEdges" style="fill:#000000;opacity:255;"></rect><rect id="32-35" x="1984" y="2176" width="64" height="64" shape-rendering="crispEdges" style="fill:#000000;opacity:255;"></rect><rect id="33-35" x="2048" y="2176" width="64" height="64" shape-rendering="crispEdges" style="fill:#000000;opacity:255;"></rect><rect id="34-35" x="2112" y="2176" width="64" height="64" shape-rendering="crispEdges" style="fill:#000000;opacity:255;"></rect><rect id="35-35" x="2176" y="2176" width="64" height="64" shape-rendering="crispEdges" style="fill:#000000;opacity:255;"></rect><rect id="16-36" x="960" y="2240" width="64" height="64" shape-rendering="crispEdges" style="fill:#000000;opacity:255;"></rect><rect id="17-36" x="1024" y="2240" width="64" height="64" shape-rendering="crispEdges" style="fill:#000000;opacity:255;"></rect><rect id="18-36" x="1088" y="2240" width="64" height="64" shape-rendering="crispEdges" style="fill:#000000;opacity:255;"></rect><rect id="19-36" x="1152" y="2240" width="64" height="64" shape-rendering="crispEdges" style="fill:#000000;opacity:255;"></rect><rect id="32-36" x="1984" y="2240" width="64" height="64" shape-rendering="crispEdges" style="fill:#000000;opacity:255;"></rect><rect id="33-36" x="2048" y="2240" width="64" height="64" shape-rendering="crispEdges" style="fill:#000000;opacity:255;"></rect><rect id="34-36" x="2112" y="2240" width="64" height="64" shape-rendering="crispEdges" style="fill:#000000;opacity:255;"></rect><rect id="35-36" x="2176" y="2240" width="64" height="64" shape-rendering="crispEdges" style="fill:#000000;opacity:255;"></rect><rect id="16-37" x="960" y="2304" width="64" height="64" shape-rendering="crispEdges" style="fill:#000000;opacity:255;"></rect><rect id="17-37" x="1024" y="2304" width="64" height="64" shape-rendering="crispEdges" style="fill:#000000;opacity:255;"></rect><rect id="18-37" x="1088" y="2304" width="64" height="64" shape-rendering="crispEdges" style="fill:#000000;opacity:255;"></rect><rect id="19-37" x="1152" y="2304" width="64" height="64" shape-rendering="crispEdges" style="fill:#000000;opacity:255;"></rect><rect id="32-37" x="1984" y="2304" width="64" height="64" shape-rendering="crispEdges" style="fill:#000000;opacity:255;"></rect><rect id="33-37" x="2048" y="2304" width="64" height="64" shape-rendering="crispEdges" style="fill:#000000;opacity:255;"></rect><rect id="34-37" x="2112" y="2304" width="64" height="64" shape-rendering="crispEdges" style="fill:#000000;opacity:255;"></rect><rect id="35-37" x="2176" y="2304" width="64" height="64" shape-rendering="crispEdges" style="fill:#000000;opacity:255;"></rect><rect id="20-38" x="1216" y="2368" width="64" height="64" shape-rendering="crispEdges" style="fill:#000000;opacity:255;"></rect><rect id="21-38" x="1280" y="2368" width="64" height="64" shape-rendering="crispEdges" style="fill:#000000;opacity:255;"></rect><rect id="22-38" x="1344" y="2368" width="64" height="64" shape-rendering="crispEdges" style="fill:#000000;opacity:255;"></rect><rect id="23-38" x="1408" y="2368" width="64" height="64" shape-rendering="crispEdges" style="fill:#000000;opacity:255;"></rect><rect id="28-38" x="1728" y="2368" width="64" height="64" shape-rendering="crispEdges" style="fill:#000000;opacity:255;"></rect><rect id="29-38" x="1792" y="2368" width="64" height="64" shape-rendering="crispEdges" style="fill:#000000;opacity:255;"></rect><rect id="30-38" x="1856" y="2368" width="64" height="64" shape-rendering="crispEdges" style="fill:#000000;opacity:255;"></rect><rect id="31-38" x="1920" y="2368" width="64" height="64" shape-rendering="crispEdges" style="fill:#000000;opacity:255;"></rect><rect id="20-39" x="1216" y="2432" width="64" height="64" shape-rendering="crispEdges" style="fill:#000000;opacity:255;"></rect><rect id="21-39" x="1280" y="2432" width="64" height="64" shape-rendering="crispEdges" style="fill:#000000;opacity:255;"></rect><rect id="22-39" x="1344" y="2432" width="64" height="64" shape-rendering="crispEdges" style="fill:#000000;opacity:255;"></rect><rect id="23-39" x="1408" y="2432" width="64" height="64" shape-rendering="crispEdges" style="fill:#000000;opacity:255;"></rect><rect id="28-39" x="1728" y="2432" width="64" height="64" shape-rendering="crispEdges" style="fill:#000000;opacity:255;"></rect><rect id="29-39" x="1792" y="2432" width="64" height="64" shape-rendering="crispEdges" style="fill:#000000;opacity:255;"></rect><rect id="30-39" x="1856" y="2432" width="64" height="64" shape-rendering="crispEdges" style="fill:#000000;opacity:255;"></rect><rect id="31-39" x="1920" y="2432" width="64" height="64" shape-rendering="crispEdges" style="fill:#000000;opacity:255;"></rect><rect id="20-40" x="1216" y="2496" width="64" height="64" shape-rendering="crispEdges" style="fill:#000000;opacity:255;"></rect><rect id="21-40" x="1280" y="2496" width="64" height="64" shape-rendering="crispEdges" style="fill:#000000;opacity:255;"></rect><rect id="22-40" x="1344" y="2496" width="64" height="64" shape-rendering="crispEdges" style="fill:#000000;opacity:255;"></rect><rect id="23-40" x="1408" y="2496" width="64" height="64" shape-rendering="crispEdges" style="fill:#000000;opacity:255;"></rect><rect id="28-40" x="1728" y="2496" width="64" height="64" shape-rendering="crispEdges" style="fill:#000000;opacity:255;"></rect><rect id="29-40" x="1792" y="2496" width="64" height="64" shape-rendering="crispEdges" style="fill:#000000;opacity:255;"></rect><rect id="30-40" x="1856" y="2496" width="64" height="64" shape-rendering="crispEdges" style="fill:#000000;opacity:255;"></rect><rect id="31-40" x="1920" y="2496" width="64" height="64" shape-rendering="crispEdges" style="fill:#000000;opacity:255;"></rect><rect id="20-41" x="1216" y="2560" width="64" height="64" shape-rendering="crispEdges" style="fill:#000000;opacity:255;"></rect><rect id="21-41" x="1280" y="2560" width="64" height="64" shape-rendering="crispEdges" style="fill:#000000;opacity:255;"></rect><rect id="22-41" x="1344" y="2560" width="64" height="64" shape-rendering="crispEdges" style="fill:#000000;opacity:255;"></rect><rect id="23-41" x="1408" y="2560" width="64" height="64" shape-rendering="crispEdges" style="fill:#000000;opacity:255;"></rect><rect id="28-41" x="1728" y="2560" width="64" height="64" shape-rendering="crispEdges" style="fill:#000000;opacity:255;"></rect><rect id="29-41" x="1792" y="2560" width="64" height="64" shape-rendering="crispEdges" style="fill:#000000;opacity:255;"></rect><rect id="30-41" x="1856" y="2560" width="64" height="64" shape-rendering="crispEdges" style="fill:#000000;opacity:255;"></rect><rect id="31-41" x="1920" y="2560" width="64" height="64" shape-rendering="crispEdges" style="fill:#000000;opacity:255;"></rect><rect id="24-42" x="1472" y="2624" width="64" height="64" shape-rendering="crispEdges" style="fill:#000000;opacity:255;"></rect><rect id="25-42" x="1536" y="2624" width="64" height="64" shape-rendering="crispEdges" style="fill:#000000;opacity:255;"></rect><rect id="26-42" x="1600" y="2624" width="64" height="64" shape-rendering="crispEdges" style="fill:#000000;opacity:255;"></rect><rect id="27-42" x="1664" y="2624" width="64" height="64" shape-rendering="crispEdges" style="fill:#000000;opacity:255;"></rect><rect id="24-43" x="1472" y="2688" width="64" height="64" shape-rendering="crispEdges" style="fill:#000000;opacity:255;"></rect><rect id="25-43" x="1536" y="2688" width="64" height="64" shape-rendering="crispEdges" style="fill:#000000;opacity:255;"></rect><rect id="26-43" x="1600" y="2688" width="64" height="64" shape-rendering="crispEdges" style="fill:#000000;opacity:255;"></rect><rect id="27-43" x="1664" y="2688" width="64" height="64" shape-rendering="crispEdges" style="fill:#000000;opacity:255;"></rect><rect id="24-44" x="1472" y="2752" width="64" height="64" shape-rendering="crispEdges" style="fill:#000000;opacity:255;"></rect><rect id="25-44" x="1536" y="2752" width="64" height="64" shape-rendering="crispEdges" style="fill:#000000;opacity:255;"></rect><rect id="26-44" x="1600" y="2752" width="64" height="64" shape-rendering="crispEdges" style="fill:#000000;opacity:255;"></rect><rect id="27-44" x="1664" y="2752" width="64" height="64" shape-rendering="crispEdges" style="fill:#000000;opacity:255;"></rect><rect id="24-45" x="1472" y="2816" width="64" height="64" shape-rendering="crispEdges" style="fill:#000000;opacity:255;"></rect><rect id="25-45" x="1536" y="2816" width="64" height="64" shape-rendering="crispEdges" style="fill:#000000;opacity:255;"></rect><rect id="26-45" x="1600" y="2816" width="64" height="64" shape-rendering="crispEdges" style="fill:#000000;opacity:255;"></rect><rect id="27-45" x="1664" y="2816" width="64" height="64" shape-rendering="crispEdges" style="fill:#000000;opacity:255;"></rect></svg>