<?xml version="1.0" encoding="UTF-8" standalone="no"?><svg xmlns="http://www.w3.org/2000/svg" id="icons8-information-50" width="3200" height="3200" viewBox="0 0 3200 3200" preserveAspectRatio="xMidYMid meet" rendering="crispEdges"><rect id="22-3" x="1344" y="128" width="64" height="64" shape-rendering="crispEdges" style="fill:#000000;opacity:32;"></rect><rect id="23-3" x="1408" y="128" width="64" height="64" shape-rendering="crispEdges" style="fill:#000000;opacity:153;"></rect><rect id="24-3" x="1472" y="128" width="64" height="64" shape-rendering="crispEdges" style="fill:#000000;opacity:227;"></rect><rect id="25-3" x="1536" y="128" width="64" height="64" shape-rendering="crispEdges" style="fill:#000000;opacity:250;"></rect><rect id="26-3" x="1600" y="128" width="64" height="64" shape-rendering="crispEdges" style="fill:#000000;opacity:227;"></rect><rect id="27-3" x="1664" y="128" width="64" height="64" shape-rendering="crispEdges" style="fill:#000000;opacity:152;"></rect><rect id="28-3" x="1728" y="128" width="64" height="64" shape-rendering="crispEdges" style="fill:#000000;opacity:32;"></rect><rect id="21-4" x="1280" y="192" width="64" height="64" shape-rendering="crispEdges" style="fill:#000000;opacity:70;"></rect><rect id="22-4" x="1344" y="192" width="64" height="64" shape-rendering="crispEdges" style="fill:#000000;opacity:242;"></rect><rect id="23-4" x="1408" y="192" width="64" height="64" shape-rendering="crispEdges" style="fill:#000000;opacity:255;"></rect><rect id="24-4" x="1472" y="192" width="64" height="64" shape-rendering="crispEdges" style="fill:#000000;opacity:255;"></rect><rect id="25-4" x="1536" y="192" width="64" height="64" shape-rendering="crispEdges" style="fill:#000000;opacity:255;"></rect><rect id="26-4" x="1600" y="192" width="64" height="64" shape-rendering="crispEdges" style="fill:#000000;opacity:255;"></rect><rect id="27-4" x="1664" y="192" width="64" height="64" shape-rendering="crispEdges" style="fill:#000000;opacity:255;"></rect><rect id="28-4" x="1728" y="192" width="64" height="64" shape-rendering="crispEdges" style="fill:#000000;opacity:242;"></rect><rect id="29-4" x="1792" y="192" width="64" height="64" shape-rendering="crispEdges" style="fill:#000000;opacity:69;"></rect><rect id="20-5" x="1216" y="256" width="64" height="64" shape-rendering="crispEdges" style="fill:#000000;opacity:33;"></rect><rect id="21-5" x="1280" y="256" width="64" height="64" shape-rendering="crispEdges" style="fill:#000000;opacity:242;"></rect><rect id="22-5" x="1344" y="256" width="64" height="64" shape-rendering="crispEdges" style="fill:#000000;opacity:255;"></rect><rect id="23-5" x="1408" y="256" width="64" height="64" shape-rendering="crispEdges" style="fill:#000000;opacity:177;"></rect><rect id="24-5" x="1472" y="256" width="64" height="64" shape-rendering="crispEdges" style="fill:#000000;opacity:52;"></rect><rect id="25-5" x="1536" y="256" width="64" height="64" shape-rendering="crispEdges" style="fill:#000000;opacity:11;"></rect><rect id="26-5" x="1600" y="256" width="64" height="64" shape-rendering="crispEdges" style="fill:#000000;opacity:52;"></rect><rect id="27-5" x="1664" y="256" width="64" height="64" shape-rendering="crispEdges" style="fill:#000000;opacity:178;"></rect><rect id="28-5" x="1728" y="256" width="64" height="64" shape-rendering="crispEdges" style="fill:#000000;opacity:255;"></rect><rect id="29-5" x="1792" y="256" width="64" height="64" shape-rendering="crispEdges" style="fill:#000000;opacity:241;"></rect><rect id="30-5" x="1856" y="256" width="64" height="64" shape-rendering="crispEdges" style="fill:#000000;opacity:31;"></rect><rect id="20-6" x="1216" y="320" width="64" height="64" shape-rendering="crispEdges" style="fill:#000000;opacity:153;"></rect><rect id="21-6" x="1280" y="320" width="64" height="64" shape-rendering="crispEdges" style="fill:#000000;opacity:255;"></rect><rect id="22-6" x="1344" y="320" width="64" height="64" shape-rendering="crispEdges" style="fill:#000000;opacity:177;"></rect><rect id="28-6" x="1728" y="320" width="64" height="64" shape-rendering="crispEdges" style="fill:#000000;opacity:178;"></rect><rect id="29-6" x="1792" y="320" width="64" height="64" shape-rendering="crispEdges" style="fill:#000000;opacity:255;"></rect><rect id="30-6" x="1856" y="320" width="64" height="64" shape-rendering="crispEdges" style="fill:#000000;opacity:151;"></rect><rect id="20-7" x="1216" y="384" width="64" height="64" shape-rendering="crispEdges" style="fill:#000000;opacity:227;"></rect><rect id="21-7" x="1280" y="384" width="64" height="64" shape-rendering="crispEdges" style="fill:#000000;opacity:255;"></rect><rect id="22-7" x="1344" y="384" width="64" height="64" shape-rendering="crispEdges" style="fill:#000000;opacity:51;"></rect><rect id="28-7" x="1728" y="384" width="64" height="64" shape-rendering="crispEdges" style="fill:#000000;opacity:53;"></rect><rect id="29-7" x="1792" y="384" width="64" height="64" shape-rendering="crispEdges" style="fill:#000000;opacity:255;"></rect><rect id="30-7" x="1856" y="384" width="64" height="64" shape-rendering="crispEdges" style="fill:#000000;opacity:225;"></rect><rect id="20-8" x="1216" y="448" width="64" height="64" shape-rendering="crispEdges" style="fill:#000000;opacity:249;"></rect><rect id="21-8" x="1280" y="448" width="64" height="64" shape-rendering="crispEdges" style="fill:#000000;opacity:255;"></rect><rect id="22-8" x="1344" y="448" width="64" height="64" shape-rendering="crispEdges" style="fill:#000000;opacity:12;"></rect><rect id="28-8" x="1728" y="448" width="64" height="64" shape-rendering="crispEdges" style="fill:#000000;opacity:13;"></rect><rect id="29-8" x="1792" y="448" width="64" height="64" shape-rendering="crispEdges" style="fill:#000000;opacity:255;"></rect><rect id="30-8" x="1856" y="448" width="64" height="64" shape-rendering="crispEdges" style="fill:#000000;opacity:248;"></rect><rect id="20-9" x="1216" y="512" width="64" height="64" shape-rendering="crispEdges" style="fill:#000000;opacity:226;"></rect><rect id="21-9" x="1280" y="512" width="64" height="64" shape-rendering="crispEdges" style="fill:#000000;opacity:255;"></rect><rect id="22-9" x="1344" y="512" width="64" height="64" shape-rendering="crispEdges" style="fill:#000000;opacity:51;"></rect><rect id="28-9" x="1728" y="512" width="64" height="64" shape-rendering="crispEdges" style="fill:#000000;opacity:53;"></rect><rect id="29-9" x="1792" y="512" width="64" height="64" shape-rendering="crispEdges" style="fill:#000000;opacity:255;"></rect><rect id="30-9" x="1856" y="512" width="64" height="64" shape-rendering="crispEdges" style="fill:#000000;opacity:224;"></rect><rect id="20-10" x="1216" y="576" width="64" height="64" shape-rendering="crispEdges" style="fill:#000000;opacity:152;"></rect><rect id="21-10" x="1280" y="576" width="64" height="64" shape-rendering="crispEdges" style="fill:#000000;opacity:255;"></rect><rect id="22-10" x="1344" y="576" width="64" height="64" shape-rendering="crispEdges" style="fill:#000000;opacity:178;"></rect><rect id="28-10" x="1728" y="576" width="64" height="64" shape-rendering="crispEdges" style="fill:#000000;opacity:179;"></rect><rect id="29-10" x="1792" y="576" width="64" height="64" shape-rendering="crispEdges" style="fill:#000000;opacity:255;"></rect><rect id="30-10" x="1856" y="576" width="64" height="64" shape-rendering="crispEdges" style="fill:#000000;opacity:150;"></rect><rect id="20-11" x="1216" y="640" width="64" height="64" shape-rendering="crispEdges" style="fill:#000000;opacity:32;"></rect><rect id="21-11" x="1280" y="640" width="64" height="64" shape-rendering="crispEdges" style="fill:#000000;opacity:242;"></rect><rect id="22-11" x="1344" y="640" width="64" height="64" shape-rendering="crispEdges" style="fill:#000000;opacity:255;"></rect><rect id="23-11" x="1408" y="640" width="64" height="64" shape-rendering="crispEdges" style="fill:#000000;opacity:179;"></rect><rect id="24-11" x="1472" y="640" width="64" height="64" shape-rendering="crispEdges" style="fill:#000000;opacity:53;"></rect><rect id="25-11" x="1536" y="640" width="64" height="64" shape-rendering="crispEdges" style="fill:#000000;opacity:12;"></rect><rect id="26-11" x="1600" y="640" width="64" height="64" shape-rendering="crispEdges" style="fill:#000000;opacity:53;"></rect><rect id="27-11" x="1664" y="640" width="64" height="64" shape-rendering="crispEdges" style="fill:#000000;opacity:179;"></rect><rect id="28-11" x="1728" y="640" width="64" height="64" shape-rendering="crispEdges" style="fill:#000000;opacity:255;"></rect><rect id="29-11" x="1792" y="640" width="64" height="64" shape-rendering="crispEdges" style="fill:#000000;opacity:241;"></rect><rect id="30-11" x="1856" y="640" width="64" height="64" shape-rendering="crispEdges" style="fill:#000000;opacity:30;"></rect><rect id="21-12" x="1280" y="704" width="64" height="64" shape-rendering="crispEdges" style="fill:#000000;opacity:69;"></rect><rect id="22-12" x="1344" y="704" width="64" height="64" shape-rendering="crispEdges" style="fill:#000000;opacity:241;"></rect><rect id="23-12" x="1408" y="704" width="64" height="64" shape-rendering="crispEdges" style="fill:#000000;opacity:255;"></rect><rect id="24-12" x="1472" y="704" width="64" height="64" shape-rendering="crispEdges" style="fill:#000000;opacity:255;"></rect><rect id="25-12" x="1536" y="704" width="64" height="64" shape-rendering="crispEdges" style="fill:#000000;opacity:255;"></rect><rect id="26-12" x="1600" y="704" width="64" height="64" shape-rendering="crispEdges" style="fill:#000000;opacity:255;"></rect><rect id="27-12" x="1664" y="704" width="64" height="64" shape-rendering="crispEdges" style="fill:#000000;opacity:255;"></rect><rect id="28-12" x="1728" y="704" width="64" height="64" shape-rendering="crispEdges" style="fill:#000000;opacity:241;"></rect><rect id="29-12" x="1792" y="704" width="64" height="64" shape-rendering="crispEdges" style="fill:#000000;opacity:68;"></rect><rect id="22-13" x="1344" y="768" width="64" height="64" shape-rendering="crispEdges" style="fill:#000000;opacity:31;"></rect><rect id="23-13" x="1408" y="768" width="64" height="64" shape-rendering="crispEdges" style="fill:#000000;opacity:151;"></rect><rect id="24-13" x="1472" y="768" width="64" height="64" shape-rendering="crispEdges" style="fill:#000000;opacity:225;"></rect><rect id="25-13" x="1536" y="768" width="64" height="64" shape-rendering="crispEdges" style="fill:#000000;opacity:249;"></rect><rect id="26-13" x="1600" y="768" width="64" height="64" shape-rendering="crispEdges" style="fill:#000000;opacity:225;"></rect><rect id="27-13" x="1664" y="768" width="64" height="64" shape-rendering="crispEdges" style="fill:#000000;opacity:150;"></rect><rect id="28-13" x="1728" y="768" width="64" height="64" shape-rendering="crispEdges" style="fill:#000000;opacity:30;"></rect><rect id="15-17" x="896" y="1024" width="64" height="64" shape-rendering="crispEdges" style="fill:#000000;opacity:197;"></rect><rect id="16-17" x="960" y="1024" width="64" height="64" shape-rendering="crispEdges" style="fill:#000000;opacity:255;"></rect><rect id="17-17" x="1024" y="1024" width="64" height="64" shape-rendering="crispEdges" style="fill:#000000;opacity:255;"></rect><rect id="18-17" x="1088" y="1024" width="64" height="64" shape-rendering="crispEdges" style="fill:#000000;opacity:255;"></rect><rect id="19-17" x="1152" y="1024" width="64" height="64" shape-rendering="crispEdges" style="fill:#000000;opacity:255;"></rect><rect id="20-17" x="1216" y="1024" width="64" height="64" shape-rendering="crispEdges" style="fill:#000000;opacity:255;"></rect><rect id="21-17" x="1280" y="1024" width="64" height="64" shape-rendering="crispEdges" style="fill:#000000;opacity:255;"></rect><rect id="22-17" x="1344" y="1024" width="64" height="64" shape-rendering="crispEdges" style="fill:#000000;opacity:255;"></rect><rect id="23-17" x="1408" y="1024" width="64" height="64" shape-rendering="crispEdges" style="fill:#000000;opacity:255;"></rect><rect id="24-17" x="1472" y="1024" width="64" height="64" shape-rendering="crispEdges" style="fill:#000000;opacity:255;"></rect><rect id="25-17" x="1536" y="1024" width="64" height="64" shape-rendering="crispEdges" style="fill:#000000;opacity:255;"></rect><rect id="26-17" x="1600" y="1024" width="64" height="64" shape-rendering="crispEdges" style="fill:#000000;opacity:255;"></rect><rect id="27-17" x="1664" y="1024" width="64" height="64" shape-rendering="crispEdges" style="fill:#000000;opacity:255;"></rect><rect id="28-17" x="1728" y="1024" width="64" height="64" shape-rendering="crispEdges" style="fill:#000000;opacity:255;"></rect><rect id="29-17" x="1792" y="1024" width="64" height="64" shape-rendering="crispEdges" style="fill:#000000;opacity:255;"></rect><rect id="30-17" x="1856" y="1024" width="64" height="64" shape-rendering="crispEdges" style="fill:#000000;opacity:195;"></rect><rect id="15-18" x="896" y="1088" width="64" height="64" shape-rendering="crispEdges" style="fill:#000000;opacity:255;"></rect><rect id="16-18" x="960" y="1088" width="64" height="64" shape-rendering="crispEdges" style="fill:#000000;opacity:255;"></rect><rect id="17-18" x="1024" y="1088" width="64" height="64" shape-rendering="crispEdges" style="fill:#000000;opacity:255;"></rect><rect id="18-18" x="1088" y="1088" width="64" height="64" shape-rendering="crispEdges" style="fill:#000000;opacity:255;"></rect><rect id="19-18" x="1152" y="1088" width="64" height="64" shape-rendering="crispEdges" style="fill:#000000;opacity:255;"></rect><rect id="20-18" x="1216" y="1088" width="64" height="64" shape-rendering="crispEdges" style="fill:#000000;opacity:255;"></rect><rect id="21-18" x="1280" y="1088" width="64" height="64" shape-rendering="crispEdges" style="fill:#000000;opacity:255;"></rect><rect id="22-18" x="1344" y="1088" width="64" height="64" shape-rendering="crispEdges" style="fill:#000000;opacity:255;"></rect><rect id="23-18" x="1408" y="1088" width="64" height="64" shape-rendering="crispEdges" style="fill:#000000;opacity:255;"></rect><rect id="24-18" x="1472" y="1088" width="64" height="64" shape-rendering="crispEdges" style="fill:#000000;opacity:255;"></rect><rect id="25-18" x="1536" y="1088" width="64" height="64" shape-rendering="crispEdges" style="fill:#000000;opacity:255;"></rect><rect id="26-18" x="1600" y="1088" width="64" height="64" shape-rendering="crispEdges" style="fill:#000000;opacity:255;"></rect><rect id="27-18" x="1664" y="1088" width="64" height="64" shape-rendering="crispEdges" style="fill:#000000;opacity:255;"></rect><rect id="28-18" x="1728" y="1088" width="64" height="64" shape-rendering="crispEdges" style="fill:#000000;opacity:255;"></rect><rect id="29-18" x="1792" y="1088" width="64" height="64" shape-rendering="crispEdges" style="fill:#000000;opacity:255;"></rect><rect id="30-18" x="1856" y="1088" width="64" height="64" shape-rendering="crispEdges" style="fill:#000000;opacity:255;"></rect><rect id="15-19" x="896" y="1152" width="64" height="64" shape-rendering="crispEdges" style="fill:#000000;opacity:255;"></rect><rect id="16-19" x="960" y="1152" width="64" height="64" shape-rendering="crispEdges" style="fill:#000000;opacity:255;"></rect><rect id="29-19" x="1792" y="1152" width="64" height="64" shape-rendering="crispEdges" style="fill:#000000;opacity:255;"></rect><rect id="30-19" x="1856" y="1152" width="64" height="64" shape-rendering="crispEdges" style="fill:#000000;opacity:255;"></rect><rect id="15-20" x="896" y="1216" width="64" height="64" shape-rendering="crispEdges" style="fill:#000000;opacity:255;"></rect><rect id="16-20" x="960" y="1216" width="64" height="64" shape-rendering="crispEdges" style="fill:#000000;opacity:255;"></rect><rect id="29-20" x="1792" y="1216" width="64" height="64" shape-rendering="crispEdges" style="fill:#000000;opacity:255;"></rect><rect id="30-20" x="1856" y="1216" width="64" height="64" shape-rendering="crispEdges" style="fill:#000000;opacity:255;"></rect><rect id="15-21" x="896" y="1280" width="64" height="64" shape-rendering="crispEdges" style="fill:#000000;opacity:255;"></rect><rect id="16-21" x="960" y="1280" width="64" height="64" shape-rendering="crispEdges" style="fill:#000000;opacity:255;"></rect><rect id="29-21" x="1792" y="1280" width="64" height="64" shape-rendering="crispEdges" style="fill:#000000;opacity:255;"></rect><rect id="30-21" x="1856" y="1280" width="64" height="64" shape-rendering="crispEdges" style="fill:#000000;opacity:255;"></rect><rect id="15-22" x="896" y="1344" width="64" height="64" shape-rendering="crispEdges" style="fill:#000000;opacity:255;"></rect><rect id="16-22" x="960" y="1344" width="64" height="64" shape-rendering="crispEdges" style="fill:#000000;opacity:255;"></rect><rect id="29-22" x="1792" y="1344" width="64" height="64" shape-rendering="crispEdges" style="fill:#000000;opacity:255;"></rect><rect id="30-22" x="1856" y="1344" width="64" height="64" shape-rendering="crispEdges" style="fill:#000000;opacity:255;"></rect><rect id="15-23" x="896" y="1408" width="64" height="64" shape-rendering="crispEdges" style="fill:#000000;opacity:255;"></rect><rect id="16-23" x="960" y="1408" width="64" height="64" shape-rendering="crispEdges" style="fill:#000000;opacity:255;"></rect><rect id="17-23" x="1024" y="1408" width="64" height="64" shape-rendering="crispEdges" style="fill:#000000;opacity:255;"></rect><rect id="18-23" x="1088" y="1408" width="64" height="64" shape-rendering="crispEdges" style="fill:#000000;opacity:255;"></rect><rect id="19-23" x="1152" y="1408" width="64" height="64" shape-rendering="crispEdges" style="fill:#000000;opacity:255;"></rect><rect id="20-23" x="1216" y="1408" width="64" height="64" shape-rendering="crispEdges" style="fill:#000000;opacity:255;"></rect><rect id="21-23" x="1280" y="1408" width="64" height="64" shape-rendering="crispEdges" style="fill:#000000;opacity:255;"></rect><rect id="22-23" x="1344" y="1408" width="64" height="64" shape-rendering="crispEdges" style="fill:#000000;opacity:195;"></rect><rect id="29-23" x="1792" y="1408" width="64" height="64" shape-rendering="crispEdges" style="fill:#000000;opacity:255;"></rect><rect id="30-23" x="1856" y="1408" width="64" height="64" shape-rendering="crispEdges" style="fill:#000000;opacity:255;"></rect><rect id="15-24" x="896" y="1472" width="64" height="64" shape-rendering="crispEdges" style="fill:#000000;opacity:195;"></rect><rect id="16-24" x="960" y="1472" width="64" height="64" shape-rendering="crispEdges" style="fill:#000000;opacity:255;"></rect><rect id="17-24" x="1024" y="1472" width="64" height="64" shape-rendering="crispEdges" style="fill:#000000;opacity:255;"></rect><rect id="18-24" x="1088" y="1472" width="64" height="64" shape-rendering="crispEdges" style="fill:#000000;opacity:255;"></rect><rect id="19-24" x="1152" y="1472" width="64" height="64" shape-rendering="crispEdges" style="fill:#000000;opacity:255;"></rect><rect id="20-24" x="1216" y="1472" width="64" height="64" shape-rendering="crispEdges" style="fill:#000000;opacity:255;"></rect><rect id="21-24" x="1280" y="1472" width="64" height="64" shape-rendering="crispEdges" style="fill:#000000;opacity:255;"></rect><rect id="22-24" x="1344" y="1472" width="64" height="64" shape-rendering="crispEdges" style="fill:#000000;opacity:255;"></rect><rect id="29-24" x="1792" y="1472" width="64" height="64" shape-rendering="crispEdges" style="fill:#000000;opacity:255;"></rect><rect id="30-24" x="1856" y="1472" width="64" height="64" shape-rendering="crispEdges" style="fill:#000000;opacity:255;"></rect><rect id="21-25" x="1280" y="1536" width="64" height="64" shape-rendering="crispEdges" style="fill:#000000;opacity:255;"></rect><rect id="22-25" x="1344" y="1536" width="64" height="64" shape-rendering="crispEdges" style="fill:#000000;opacity:255;"></rect><rect id="29-25" x="1792" y="1536" width="64" height="64" shape-rendering="crispEdges" style="fill:#000000;opacity:255;"></rect><rect id="30-25" x="1856" y="1536" width="64" height="64" shape-rendering="crispEdges" style="fill:#000000;opacity:255;"></rect><rect id="21-26" x="1280" y="1600" width="64" height="64" shape-rendering="crispEdges" style="fill:#000000;opacity:255;"></rect><rect id="22-26" x="1344" y="1600" width="64" height="64" shape-rendering="crispEdges" style="fill:#000000;opacity:255;"></rect><rect id="29-26" x="1792" y="1600" width="64" height="64" shape-rendering="crispEdges" style="fill:#000000;opacity:255;"></rect><rect id="30-26" x="1856" y="1600" width="64" height="64" shape-rendering="crispEdges" style="fill:#000000;opacity:255;"></rect><rect id="21-27" x="1280" y="1664" width="64" height="64" shape-rendering="crispEdges" style="fill:#000000;opacity:255;"></rect><rect id="22-27" x="1344" y="1664" width="64" height="64" shape-rendering="crispEdges" style="fill:#000000;opacity:255;"></rect><rect id="29-27" x="1792" y="1664" width="64" height="64" shape-rendering="crispEdges" style="fill:#000000;opacity:255;"></rect><rect id="30-27" x="1856" y="1664" width="64" height="64" shape-rendering="crispEdges" style="fill:#000000;opacity:255;"></rect><rect id="21-28" x="1280" y="1728" width="64" height="64" shape-rendering="crispEdges" style="fill:#000000;opacity:255;"></rect><rect id="22-28" x="1344" y="1728" width="64" height="64" shape-rendering="crispEdges" style="fill:#000000;opacity:255;"></rect><rect id="29-28" x="1792" y="1728" width="64" height="64" shape-rendering="crispEdges" style="fill:#000000;opacity:255;"></rect><rect id="30-28" x="1856" y="1728" width="64" height="64" shape-rendering="crispEdges" style="fill:#000000;opacity:255;"></rect><rect id="21-29" x="1280" y="1792" width="64" height="64" shape-rendering="crispEdges" style="fill:#000000;opacity:255;"></rect><rect id="22-29" x="1344" y="1792" width="64" height="64" shape-rendering="crispEdges" style="fill:#000000;opacity:255;"></rect><rect id="29-29" x="1792" y="1792" width="64" height="64" shape-rendering="crispEdges" style="fill:#000000;opacity:255;"></rect><rect id="30-29" x="1856" y="1792" width="64" height="64" shape-rendering="crispEdges" style="fill:#000000;opacity:255;"></rect><rect id="21-30" x="1280" y="1856" width="64" height="64" shape-rendering="crispEdges" style="fill:#000000;opacity:255;"></rect><rect id="22-30" x="1344" y="1856" width="64" height="64" shape-rendering="crispEdges" style="fill:#000000;opacity:255;"></rect><rect id="29-30" x="1792" y="1856" width="64" height="64" shape-rendering="crispEdges" style="fill:#000000;opacity:255;"></rect><rect id="30-30" x="1856" y="1856" width="64" height="64" shape-rendering="crispEdges" style="fill:#000000;opacity:255;"></rect><rect id="21-31" x="1280" y="1920" width="64" height="64" shape-rendering="crispEdges" style="fill:#000000;opacity:255;"></rect><rect id="22-31" x="1344" y="1920" width="64" height="64" shape-rendering="crispEdges" style="fill:#000000;opacity:255;"></rect><rect id="29-31" x="1792" y="1920" width="64" height="64" shape-rendering="crispEdges" style="fill:#000000;opacity:255;"></rect><rect id="30-31" x="1856" y="1920" width="64" height="64" shape-rendering="crispEdges" style="fill:#000000;opacity:255;"></rect><rect id="21-32" x="1280" y="1984" width="64" height="64" shape-rendering="crispEdges" style="fill:#000000;opacity:255;"></rect><rect id="22-32" x="1344" y="1984" width="64" height="64" shape-rendering="crispEdges" style="fill:#000000;opacity:255;"></rect><rect id="29-32" x="1792" y="1984" width="64" height="64" shape-rendering="crispEdges" style="fill:#000000;opacity:255;"></rect><rect id="30-32" x="1856" y="1984" width="64" height="64" shape-rendering="crispEdges" style="fill:#000000;opacity:255;"></rect><rect id="21-33" x="1280" y="2048" width="64" height="64" shape-rendering="crispEdges" style="fill:#000000;opacity:255;"></rect><rect id="22-33" x="1344" y="2048" width="64" height="64" shape-rendering="crispEdges" style="fill:#000000;opacity:255;"></rect><rect id="29-33" x="1792" y="2048" width="64" height="64" shape-rendering="crispEdges" style="fill:#000000;opacity:255;"></rect><rect id="30-33" x="1856" y="2048" width="64" height="64" shape-rendering="crispEdges" style="fill:#000000;opacity:255;"></rect><rect id="21-34" x="1280" y="2112" width="64" height="64" shape-rendering="crispEdges" style="fill:#000000;opacity:255;"></rect><rect id="22-34" x="1344" y="2112" width="64" height="64" shape-rendering="crispEdges" style="fill:#000000;opacity:255;"></rect><rect id="29-34" x="1792" y="2112" width="64" height="64" shape-rendering="crispEdges" style="fill:#000000;opacity:255;"></rect><rect id="30-34" x="1856" y="2112" width="64" height="64" shape-rendering="crispEdges" style="fill:#000000;opacity:255;"></rect><rect id="21-35" x="1280" y="2176" width="64" height="64" shape-rendering="crispEdges" style="fill:#000000;opacity:255;"></rect><rect id="22-35" x="1344" y="2176" width="64" height="64" shape-rendering="crispEdges" style="fill:#000000;opacity:255;"></rect><rect id="29-35" x="1792" y="2176" width="64" height="64" shape-rendering="crispEdges" style="fill:#000000;opacity:255;"></rect><rect id="30-35" x="1856" y="2176" width="64" height="64" shape-rendering="crispEdges" style="fill:#000000;opacity:255;"></rect><rect id="21-36" x="1280" y="2240" width="64" height="64" shape-rendering="crispEdges" style="fill:#000000;opacity:255;"></rect><rect id="22-36" x="1344" y="2240" width="64" height="64" shape-rendering="crispEdges" style="fill:#000000;opacity:255;"></rect><rect id="29-36" x="1792" y="2240" width="64" height="64" shape-rendering="crispEdges" style="fill:#000000;opacity:255;"></rect><rect id="30-36" x="1856" y="2240" width="64" height="64" shape-rendering="crispEdges" style="fill:#000000;opacity:255;"></rect><rect id="21-37" x="1280" y="2304" width="64" height="64" shape-rendering="crispEdges" style="fill:#000000;opacity:255;"></rect><rect id="22-37" x="1344" y="2304" width="64" height="64" shape-rendering="crispEdges" style="fill:#000000;opacity:255;"></rect><rect id="29-37" x="1792" y="2304" width="64" height="64" shape-rendering="crispEdges" style="fill:#000000;opacity:255;"></rect><rect id="30-37" x="1856" y="2304" width="64" height="64" shape-rendering="crispEdges" style="fill:#000000;opacity:255;"></rect><rect id="21-38" x="1280" y="2368" width="64" height="64" shape-rendering="crispEdges" style="fill:#000000;opacity:255;"></rect><rect id="22-38" x="1344" y="2368" width="64" height="64" shape-rendering="crispEdges" style="fill:#000000;opacity:255;"></rect><rect id="29-38" x="1792" y="2368" width="64" height="64" shape-rendering="crispEdges" style="fill:#000000;opacity:255;"></rect><rect id="30-38" x="1856" y="2368" width="64" height="64" shape-rendering="crispEdges" style="fill:#000000;opacity:255;"></rect><rect id="21-39" x="1280" y="2432" width="64" height="64" shape-rendering="crispEdges" style="fill:#000000;opacity:255;"></rect><rect id="22-39" x="1344" y="2432" width="64" height="64" shape-rendering="crispEdges" style="fill:#000000;opacity:255;"></rect><rect id="29-39" x="1792" y="2432" width="64" height="64" shape-rendering="crispEdges" style="fill:#000000;opacity:255;"></rect><rect id="30-39" x="1856" y="2432" width="64" height="64" shape-rendering="crispEdges" style="fill:#000000;opacity:255;"></rect><rect id="21-40" x="1280" y="2496" width="64" height="64" shape-rendering="crispEdges" style="fill:#000000;opacity:255;"></rect><rect id="22-40" x="1344" y="2496" width="64" height="64" shape-rendering="crispEdges" style="fill:#000000;opacity:255;"></rect><rect id="29-40" x="1792" y="2496" width="64" height="64" shape-rendering="crispEdges" style="fill:#000000;opacity:255;"></rect><rect id="30-40" x="1856" y="2496" width="64" height="64" shape-rendering="crispEdges" style="fill:#000000;opacity:255;"></rect><rect id="15-41" x="896" y="2560" width="64" height="64" shape-rendering="crispEdges" style="fill:#000000;opacity:197;"></rect><rect id="16-41" x="960" y="2560" width="64" height="64" shape-rendering="crispEdges" style="fill:#000000;opacity:255;"></rect><rect id="17-41" x="1024" y="2560" width="64" height="64" shape-rendering="crispEdges" style="fill:#000000;opacity:255;"></rect><rect id="18-41" x="1088" y="2560" width="64" height="64" shape-rendering="crispEdges" style="fill:#000000;opacity:255;"></rect><rect id="19-41" x="1152" y="2560" width="64" height="64" shape-rendering="crispEdges" style="fill:#000000;opacity:255;"></rect><rect id="20-41" x="1216" y="2560" width="64" height="64" shape-rendering="crispEdges" style="fill:#000000;opacity:255;"></rect><rect id="21-41" x="1280" y="2560" width="64" height="64" shape-rendering="crispEdges" style="fill:#000000;opacity:255;"></rect><rect id="22-41" x="1344" y="2560" width="64" height="64" shape-rendering="crispEdges" style="fill:#000000;opacity:255;"></rect><rect id="29-41" x="1792" y="2560" width="64" height="64" shape-rendering="crispEdges" style="fill:#000000;opacity:255;"></rect><rect id="30-41" x="1856" y="2560" width="64" height="64" shape-rendering="crispEdges" style="fill:#000000;opacity:255;"></rect><rect id="31-41" x="1920" y="2560" width="64" height="64" shape-rendering="crispEdges" style="fill:#000000;opacity:255;"></rect><rect id="32-41" x="1984" y="2560" width="64" height="64" shape-rendering="crispEdges" style="fill:#000000;opacity:255;"></rect><rect id="33-41" x="2048" y="2560" width="64" height="64" shape-rendering="crispEdges" style="fill:#000000;opacity:255;"></rect><rect id="34-41" x="2112" y="2560" width="64" height="64" shape-rendering="crispEdges" style="fill:#000000;opacity:255;"></rect><rect id="35-41" x="2176" y="2560" width="64" height="64" shape-rendering="crispEdges" style="fill:#000000;opacity:255;"></rect><rect id="36-41" x="2240" y="2560" width="64" height="64" shape-rendering="crispEdges" style="fill:#000000;opacity:195;"></rect><rect id="15-42" x="896" y="2624" width="64" height="64" shape-rendering="crispEdges" style="fill:#000000;opacity:255;"></rect><rect id="16-42" x="960" y="2624" width="64" height="64" shape-rendering="crispEdges" style="fill:#000000;opacity:255;"></rect><rect id="17-42" x="1024" y="2624" width="64" height="64" shape-rendering="crispEdges" style="fill:#000000;opacity:255;"></rect><rect id="18-42" x="1088" y="2624" width="64" height="64" shape-rendering="crispEdges" style="fill:#000000;opacity:255;"></rect><rect id="19-42" x="1152" y="2624" width="64" height="64" shape-rendering="crispEdges" style="fill:#000000;opacity:255;"></rect><rect id="20-42" x="1216" y="2624" width="64" height="64" shape-rendering="crispEdges" style="fill:#000000;opacity:255;"></rect><rect id="21-42" x="1280" y="2624" width="64" height="64" shape-rendering="crispEdges" style="fill:#000000;opacity:255;"></rect><rect id="22-42" x="1344" y="2624" width="64" height="64" shape-rendering="crispEdges" style="fill:#000000;opacity:194;"></rect><rect id="29-42" x="1792" y="2624" width="64" height="64" shape-rendering="crispEdges" style="fill:#000000;opacity:195;"></rect><rect id="30-42" x="1856" y="2624" width="64" height="64" shape-rendering="crispEdges" style="fill:#000000;opacity:255;"></rect><rect id="31-42" x="1920" y="2624" width="64" height="64" shape-rendering="crispEdges" style="fill:#000000;opacity:255;"></rect><rect id="32-42" x="1984" y="2624" width="64" height="64" shape-rendering="crispEdges" style="fill:#000000;opacity:255;"></rect><rect id="33-42" x="2048" y="2624" width="64" height="64" shape-rendering="crispEdges" style="fill:#000000;opacity:255;"></rect><rect id="34-42" x="2112" y="2624" width="64" height="64" shape-rendering="crispEdges" style="fill:#000000;opacity:255;"></rect><rect id="35-42" x="2176" y="2624" width="64" height="64" shape-rendering="crispEdges" style="fill:#000000;opacity:255;"></rect><rect id="36-42" x="2240" y="2624" width="64" height="64" shape-rendering="crispEdges" style="fill:#000000;opacity:255;"></rect><rect id="15-43" x="896" y="2688" width="64" height="64" shape-rendering="crispEdges" style="fill:#000000;opacity:255;"></rect><rect id="16-43" x="960" y="2688" width="64" height="64" shape-rendering="crispEdges" style="fill:#000000;opacity:255;"></rect><rect id="35-43" x="2176" y="2688" width="64" height="64" shape-rendering="crispEdges" style="fill:#000000;opacity:255;"></rect><rect id="36-43" x="2240" y="2688" width="64" height="64" shape-rendering="crispEdges" style="fill:#000000;opacity:255;"></rect><rect id="15-44" x="896" y="2752" width="64" height="64" shape-rendering="crispEdges" style="fill:#000000;opacity:255;"></rect><rect id="16-44" x="960" y="2752" width="64" height="64" shape-rendering="crispEdges" style="fill:#000000;opacity:255;"></rect><rect id="35-44" x="2176" y="2752" width="64" height="64" shape-rendering="crispEdges" style="fill:#000000;opacity:255;"></rect><rect id="36-44" x="2240" y="2752" width="64" height="64" shape-rendering="crispEdges" style="fill:#000000;opacity:255;"></rect><rect id="15-45" x="896" y="2816" width="64" height="64" shape-rendering="crispEdges" style="fill:#000000;opacity:255;"></rect><rect id="16-45" x="960" y="2816" width="64" height="64" shape-rendering="crispEdges" style="fill:#000000;opacity:255;"></rect><rect id="35-45" x="2176" y="2816" width="64" height="64" shape-rendering="crispEdges" style="fill:#000000;opacity:255;"></rect><rect id="36-45" x="2240" y="2816" width="64" height="64" shape-rendering="crispEdges" style="fill:#000000;opacity:255;"></rect><rect id="15-46" x="896" y="2880" width="64" height="64" shape-rendering="crispEdges" style="fill:#000000;opacity:255;"></rect><rect id="16-46" x="960" y="2880" width="64" height="64" shape-rendering="crispEdges" style="fill:#000000;opacity:255;"></rect><rect id="35-46" x="2176" y="2880" width="64" height="64" shape-rendering="crispEdges" style="fill:#000000;opacity:255;"></rect><rect id="36-46" x="2240" y="2880" width="64" height="64" shape-rendering="crispEdges" style="fill:#000000;opacity:255;"></rect><rect id="15-47" x="896" y="2944" width="64" height="64" shape-rendering="crispEdges" style="fill:#000000;opacity:255;"></rect><rect id="16-47" x="960" y="2944" width="64" height="64" shape-rendering="crispEdges" style="fill:#000000;opacity:255;"></rect><rect id="17-47" x="1024" y="2944" width="64" height="64" shape-rendering="crispEdges" style="fill:#000000;opacity:255;"></rect><rect id="18-47" x="1088" y="2944" width="64" height="64" shape-rendering="crispEdges" style="fill:#000000;opacity:255;"></rect><rect id="19-47" x="1152" y="2944" width="64" height="64" shape-rendering="crispEdges" style="fill:#000000;opacity:255;"></rect><rect id="20-47" x="1216" y="2944" width="64" height="64" shape-rendering="crispEdges" style="fill:#000000;opacity:255;"></rect><rect id="21-47" x="1280" y="2944" width="64" height="64" shape-rendering="crispEdges" style="fill:#000000;opacity:255;"></rect><rect id="22-47" x="1344" y="2944" width="64" height="64" shape-rendering="crispEdges" style="fill:#000000;opacity:255;"></rect><rect id="23-47" x="1408" y="2944" width="64" height="64" shape-rendering="crispEdges" style="fill:#000000;opacity:255;"></rect><rect id="24-47" x="1472" y="2944" width="64" height="64" shape-rendering="crispEdges" style="fill:#000000;opacity:255;"></rect><rect id="25-47" x="1536" y="2944" width="64" height="64" shape-rendering="crispEdges" style="fill:#000000;opacity:255;"></rect><rect id="26-47" x="1600" y="2944" width="64" height="64" shape-rendering="crispEdges" style="fill:#000000;opacity:255;"></rect><rect id="27-47" x="1664" y="2944" width="64" height="64" shape-rendering="crispEdges" style="fill:#000000;opacity:255;"></rect><rect id="28-47" x="1728" y="2944" width="64" height="64" shape-rendering="crispEdges" style="fill:#000000;opacity:255;"></rect><rect id="29-47" x="1792" y="2944" width="64" height="64" shape-rendering="crispEdges" style="fill:#000000;opacity:255;"></rect><rect id="30-47" x="1856" y="2944" width="64" height="64" shape-rendering="crispEdges" style="fill:#000000;opacity:255;"></rect><rect id="31-47" x="1920" y="2944" width="64" height="64" shape-rendering="crispEdges" style="fill:#000000;opacity:255;"></rect><rect id="32-47" x="1984" y="2944" width="64" height="64" shape-rendering="crispEdges" style="fill:#000000;opacity:255;"></rect><rect id="33-47" x="2048" y="2944" width="64" height="64" shape-rendering="crispEdges" style="fill:#000000;opacity:255;"></rect><rect id="34-47" x="2112" y="2944" width="64" height="64" shape-rendering="crispEdges" style="fill:#000000;opacity:255;"></rect><rect id="35-47" x="2176" y="2944" width="64" height="64" shape-rendering="crispEdges" style="fill:#000000;opacity:255;"></rect><rect id="36-47" x="2240" y="2944" width="64" height="64" shape-rendering="crispEdges" style="fill:#000000;opacity:255;"></rect><rect id="15-48" x="896" y="3008" width="64" height="64" shape-rendering="crispEdges" style="fill:#000000;opacity:195;"></rect><rect id="16-48" x="960" y="3008" width="64" height="64" shape-rendering="crispEdges" style="fill:#000000;opacity:255;"></rect><rect id="17-48" x="1024" y="3008" width="64" height="64" shape-rendering="crispEdges" style="fill:#000000;opacity:255;"></rect><rect id="18-48" x="1088" y="3008" width="64" height="64" shape-rendering="crispEdges" style="fill:#000000;opacity:255;"></rect><rect id="19-48" x="1152" y="3008" width="64" height="64" shape-rendering="crispEdges" style="fill:#000000;opacity:255;"></rect><rect id="20-48" x="1216" y="3008" width="64" height="64" shape-rendering="crispEdges" style="fill:#000000;opacity:255;"></rect><rect id="21-48" x="1280" y="3008" width="64" height="64" shape-rendering="crispEdges" style="fill:#000000;opacity:255;"></rect><rect id="22-48" x="1344" y="3008" width="64" height="64" shape-rendering="crispEdges" style="fill:#000000;opacity:255;"></rect><rect id="23-48" x="1408" y="3008" width="64" height="64" shape-rendering="crispEdges" style="fill:#000000;opacity:255;"></rect><rect id="24-48" x="1472" y="3008" width="64" height="64" shape-rendering="crispEdges" style="fill:#000000;opacity:255;"></rect><rect id="25-48" x="1536" y="3008" width="64" height="64" shape-rendering="crispEdges" style="fill:#000000;opacity:255;"></rect><rect id="26-48" x="1600" y="3008" width="64" height="64" shape-rendering="crispEdges" style="fill:#000000;opacity:255;"></rect><rect id="27-48" x="1664" y="3008" width="64" height="64" shape-rendering="crispEdges" style="fill:#000000;opacity:255;"></rect><rect id="28-48" x="1728" y="3008" width="64" height="64" shape-rendering="crispEdges" style="fill:#000000;opacity:255;"></rect><rect id="29-48" x="1792" y="3008" width="64" height="64" shape-rendering="crispEdges" style="fill:#000000;opacity:255;"></rect><rect id="30-48" x="1856" y="3008" width="64" height="64" shape-rendering="crispEdges" style="fill:#000000;opacity:255;"></rect><rect id="31-48" x="1920" y="3008" width="64" height="64" shape-rendering="crispEdges" style="fill:#000000;opacity:255;"></rect><rect id="32-48" x="1984" y="3008" width="64" height="64" shape-rendering="crispEdges" style="fill:#000000;opacity:255;"></rect><rect id="33-48" x="2048" y="3008" width="64" height="64" shape-rendering="crispEdges" style="fill:#000000;opacity:255;"></rect><rect id="34-48" x="2112" y="3008" width="64" height="64" shape-rendering="crispEdges" style="fill:#000000;opacity:255;"></rect><rect id="35-48" x="2176" y="3008" width="64" height="64" shape-rendering="crispEdges" style="fill:#000000;opacity:255;"></rect><rect id="36-48" x="2240" y="3008" width="64" height="64" shape-rendering="crispEdges" style="fill:#000000;opacity:194;"></rect></svg>