<?xml version="1.0" encoding="UTF-8" standalone="no"?><svg xmlns="http://www.w3.org/2000/svg" id="icons8-stall-24" width="1536" height="1536" viewBox="0 0 1536 1536" preserveAspectRatio="xMidYMid meet" rendering="crispEdges"><rect id="3-4" x="128" y="192" width="64" height="64" shape-rendering="crispEdges" style="fill:#000000;opacity:5;"></rect><rect id="4-4" x="192" y="192" width="64" height="64" shape-rendering="crispEdges" style="fill:#000000;opacity:250;"></rect><rect id="5-4" x="256" y="192" width="64" height="64" shape-rendering="crispEdges" style="fill:#000000;opacity:255;"></rect><rect id="6-4" x="320" y="192" width="64" height="64" shape-rendering="crispEdges" style="fill:#000000;opacity:255;"></rect><rect id="7-4" x="384" y="192" width="64" height="64" shape-rendering="crispEdges" style="fill:#000000;opacity:255;"></rect><rect id="8-4" x="448" y="192" width="64" height="64" shape-rendering="crispEdges" style="fill:#000000;opacity:255;"></rect><rect id="9-4" x="512" y="192" width="64" height="64" shape-rendering="crispEdges" style="fill:#000000;opacity:255;"></rect><rect id="10-4" x="576" y="192" width="64" height="64" shape-rendering="crispEdges" style="fill:#000000;opacity:255;"></rect><rect id="11-4" x="640" y="192" width="64" height="64" shape-rendering="crispEdges" style="fill:#000000;opacity:255;"></rect><rect id="12-4" x="704" y="192" width="64" height="64" shape-rendering="crispEdges" style="fill:#000000;opacity:255;"></rect><rect id="13-4" x="768" y="192" width="64" height="64" shape-rendering="crispEdges" style="fill:#000000;opacity:255;"></rect><rect id="14-4" x="832" y="192" width="64" height="64" shape-rendering="crispEdges" style="fill:#000000;opacity:255;"></rect><rect id="15-4" x="896" y="192" width="64" height="64" shape-rendering="crispEdges" style="fill:#000000;opacity:255;"></rect><rect id="16-4" x="960" y="192" width="64" height="64" shape-rendering="crispEdges" style="fill:#000000;opacity:255;"></rect><rect id="17-4" x="1024" y="192" width="64" height="64" shape-rendering="crispEdges" style="fill:#000000;opacity:255;"></rect><rect id="18-4" x="1088" y="192" width="64" height="64" shape-rendering="crispEdges" style="fill:#000000;opacity:255;"></rect><rect id="19-4" x="1152" y="192" width="64" height="64" shape-rendering="crispEdges" style="fill:#000000;opacity:255;"></rect><rect id="20-4" x="1216" y="192" width="64" height="64" shape-rendering="crispEdges" style="fill:#000000;opacity:255;"></rect><rect id="21-4" x="1280" y="192" width="64" height="64" shape-rendering="crispEdges" style="fill:#000000;opacity:250;"></rect><rect id="22-4" x="1344" y="192" width="64" height="64" shape-rendering="crispEdges" style="fill:#000000;opacity:6;"></rect><rect id="3-5" x="128" y="256" width="64" height="64" shape-rendering="crispEdges" style="fill:#000000;opacity:44;"></rect><rect id="4-5" x="192" y="256" width="64" height="64" shape-rendering="crispEdges" style="fill:#000000;opacity:214;"></rect><rect id="21-5" x="1280" y="256" width="64" height="64" shape-rendering="crispEdges" style="fill:#000000;opacity:214;"></rect><rect id="22-5" x="1344" y="256" width="64" height="64" shape-rendering="crispEdges" style="fill:#000000;opacity:43;"></rect><rect id="3-6" x="128" y="320" width="64" height="64" shape-rendering="crispEdges" style="fill:#000000;opacity:87;"></rect><rect id="4-6" x="192" y="320" width="64" height="64" shape-rendering="crispEdges" style="fill:#000000;opacity:171;"></rect><rect id="21-6" x="1280" y="320" width="64" height="64" shape-rendering="crispEdges" style="fill:#000000;opacity:172;"></rect><rect id="22-6" x="1344" y="320" width="64" height="64" shape-rendering="crispEdges" style="fill:#000000;opacity:86;"></rect><rect id="3-7" x="128" y="384" width="64" height="64" shape-rendering="crispEdges" style="fill:#000000;opacity:129;"></rect><rect id="4-7" x="192" y="384" width="64" height="64" shape-rendering="crispEdges" style="fill:#000000;opacity:129;"></rect><rect id="21-7" x="1280" y="384" width="64" height="64" shape-rendering="crispEdges" style="fill:#000000;opacity:130;"></rect><rect id="22-7" x="1344" y="384" width="64" height="64" shape-rendering="crispEdges" style="fill:#000000;opacity:128;"></rect><rect id="3-8" x="128" y="448" width="64" height="64" shape-rendering="crispEdges" style="fill:#000000;opacity:172;"></rect><rect id="4-8" x="192" y="448" width="64" height="64" shape-rendering="crispEdges" style="fill:#000000;opacity:87;"></rect><rect id="21-8" x="1280" y="448" width="64" height="64" shape-rendering="crispEdges" style="fill:#000000;opacity:88;"></rect><rect id="22-8" x="1344" y="448" width="64" height="64" shape-rendering="crispEdges" style="fill:#000000;opacity:171;"></rect><rect id="3-9" x="128" y="512" width="64" height="64" shape-rendering="crispEdges" style="fill:#000000;opacity:215;"></rect><rect id="4-9" x="192" y="512" width="64" height="64" shape-rendering="crispEdges" style="fill:#000000;opacity:45;"></rect><rect id="21-9" x="1280" y="512" width="64" height="64" shape-rendering="crispEdges" style="fill:#000000;opacity:45;"></rect><rect id="22-9" x="1344" y="512" width="64" height="64" shape-rendering="crispEdges" style="fill:#000000;opacity:214;"></rect><rect id="2-10" x="64" y="576" width="64" height="64" shape-rendering="crispEdges" style="fill:#000000;opacity:6;"></rect><rect id="3-10" x="128" y="576" width="64" height="64" shape-rendering="crispEdges" style="fill:#000000;opacity:250;"></rect><rect id="4-10" x="192" y="576" width="64" height="64" shape-rendering="crispEdges" style="fill:#000000;opacity:255;"></rect><rect id="5-10" x="256" y="576" width="64" height="64" shape-rendering="crispEdges" style="fill:#000000;opacity:255;"></rect><rect id="6-10" x="320" y="576" width="64" height="64" shape-rendering="crispEdges" style="fill:#000000;opacity:241;"></rect><rect id="7-10" x="384" y="576" width="64" height="64" shape-rendering="crispEdges" style="fill:#000000;opacity:175;"></rect><rect id="8-10" x="448" y="576" width="64" height="64" shape-rendering="crispEdges" style="fill:#000000;opacity:59;"></rect><rect id="9-10" x="512" y="576" width="64" height="64" shape-rendering="crispEdges" style="fill:#000000;opacity:9;"></rect><rect id="10-10" x="576" y="576" width="64" height="64" shape-rendering="crispEdges" style="fill:#000000;opacity:49;"></rect><rect id="11-10" x="640" y="576" width="64" height="64" shape-rendering="crispEdges" style="fill:#000000;opacity:155;"></rect><rect id="12-10" x="704" y="576" width="64" height="64" shape-rendering="crispEdges" style="fill:#000000;opacity:234;"></rect><rect id="13-10" x="768" y="576" width="64" height="64" shape-rendering="crispEdges" style="fill:#000000;opacity:233;"></rect><rect id="14-10" x="832" y="576" width="64" height="64" shape-rendering="crispEdges" style="fill:#000000;opacity:155;"></rect><rect id="15-10" x="896" y="576" width="64" height="64" shape-rendering="crispEdges" style="fill:#000000;opacity:49;"></rect><rect id="16-10" x="960" y="576" width="64" height="64" shape-rendering="crispEdges" style="fill:#000000;opacity:9;"></rect><rect id="17-10" x="1024" y="576" width="64" height="64" shape-rendering="crispEdges" style="fill:#000000;opacity:59;"></rect><rect id="18-10" x="1088" y="576" width="64" height="64" shape-rendering="crispEdges" style="fill:#000000;opacity:176;"></rect><rect id="19-10" x="1152" y="576" width="64" height="64" shape-rendering="crispEdges" style="fill:#000000;opacity:241;"></rect><rect id="20-10" x="1216" y="576" width="64" height="64" shape-rendering="crispEdges" style="fill:#000000;opacity:255;"></rect><rect id="21-10" x="1280" y="576" width="64" height="64" shape-rendering="crispEdges" style="fill:#000000;opacity:255;"></rect><rect id="22-10" x="1344" y="576" width="64" height="64" shape-rendering="crispEdges" style="fill:#000000;opacity:250;"></rect><rect id="23-10" x="1408" y="576" width="64" height="64" shape-rendering="crispEdges" style="fill:#000000;opacity:6;"></rect><rect id="6-11" x="320" y="640" width="64" height="64" shape-rendering="crispEdges" style="fill:#000000;opacity:13;"></rect><rect id="7-11" x="384" y="640" width="64" height="64" shape-rendering="crispEdges" style="fill:#000000;opacity:104;"></rect><rect id="8-11" x="448" y="640" width="64" height="64" shape-rendering="crispEdges" style="fill:#000000;opacity:208;"></rect><rect id="9-11" x="512" y="640" width="64" height="64" shape-rendering="crispEdges" style="fill:#000000;opacity:245;"></rect><rect id="10-11" x="576" y="640" width="64" height="64" shape-rendering="crispEdges" style="fill:#000000;opacity:214;"></rect><rect id="11-11" x="640" y="640" width="64" height="64" shape-rendering="crispEdges" style="fill:#000000;opacity:123;"></rect><rect id="12-11" x="704" y="640" width="64" height="64" shape-rendering="crispEdges" style="fill:#000000;opacity:25;"></rect><rect id="13-11" x="768" y="640" width="64" height="64" shape-rendering="crispEdges" style="fill:#000000;opacity:25;"></rect><rect id="14-11" x="832" y="640" width="64" height="64" shape-rendering="crispEdges" style="fill:#000000;opacity:123;"></rect><rect id="15-11" x="896" y="640" width="64" height="64" shape-rendering="crispEdges" style="fill:#000000;opacity:214;"></rect><rect id="16-11" x="960" y="640" width="64" height="64" shape-rendering="crispEdges" style="fill:#000000;opacity:245;"></rect><rect id="17-11" x="1024" y="640" width="64" height="64" shape-rendering="crispEdges" style="fill:#000000;opacity:208;"></rect><rect id="18-11" x="1088" y="640" width="64" height="64" shape-rendering="crispEdges" style="fill:#000000;opacity:104;"></rect><rect id="19-11" x="1152" y="640" width="64" height="64" shape-rendering="crispEdges" style="fill:#000000;opacity:13;"></rect><rect id="5-12" x="256" y="704" width="64" height="64" shape-rendering="crispEdges" style="fill:#000000;opacity:255;"></rect><rect id="20-12" x="1216" y="704" width="64" height="64" shape-rendering="crispEdges" style="fill:#000000;opacity:255;"></rect><rect id="5-13" x="256" y="768" width="64" height="64" shape-rendering="crispEdges" style="fill:#000000;opacity:255;"></rect><rect id="20-13" x="1216" y="768" width="64" height="64" shape-rendering="crispEdges" style="fill:#000000;opacity:255;"></rect><rect id="5-14" x="256" y="832" width="64" height="64" shape-rendering="crispEdges" style="fill:#000000;opacity:255;"></rect><rect id="20-14" x="1216" y="832" width="64" height="64" shape-rendering="crispEdges" style="fill:#000000;opacity:255;"></rect><rect id="4-15" x="192" y="896" width="64" height="64" shape-rendering="crispEdges" style="fill:#000000;opacity:255;"></rect><rect id="5-15" x="256" y="896" width="64" height="64" shape-rendering="crispEdges" style="fill:#000000;opacity:255;"></rect><rect id="6-15" x="320" y="896" width="64" height="64" shape-rendering="crispEdges" style="fill:#000000;opacity:255;"></rect><rect id="7-15" x="384" y="896" width="64" height="64" shape-rendering="crispEdges" style="fill:#000000;opacity:255;"></rect><rect id="8-15" x="448" y="896" width="64" height="64" shape-rendering="crispEdges" style="fill:#000000;opacity:255;"></rect><rect id="9-15" x="512" y="896" width="64" height="64" shape-rendering="crispEdges" style="fill:#000000;opacity:255;"></rect><rect id="10-15" x="576" y="896" width="64" height="64" shape-rendering="crispEdges" style="fill:#000000;opacity:255;"></rect><rect id="11-15" x="640" y="896" width="64" height="64" shape-rendering="crispEdges" style="fill:#000000;opacity:255;"></rect><rect id="12-15" x="704" y="896" width="64" height="64" shape-rendering="crispEdges" style="fill:#000000;opacity:255;"></rect><rect id="13-15" x="768" y="896" width="64" height="64" shape-rendering="crispEdges" style="fill:#000000;opacity:255;"></rect><rect id="14-15" x="832" y="896" width="64" height="64" shape-rendering="crispEdges" style="fill:#000000;opacity:255;"></rect><rect id="15-15" x="896" y="896" width="64" height="64" shape-rendering="crispEdges" style="fill:#000000;opacity:255;"></rect><rect id="16-15" x="960" y="896" width="64" height="64" shape-rendering="crispEdges" style="fill:#000000;opacity:255;"></rect><rect id="17-15" x="1024" y="896" width="64" height="64" shape-rendering="crispEdges" style="fill:#000000;opacity:255;"></rect><rect id="18-15" x="1088" y="896" width="64" height="64" shape-rendering="crispEdges" style="fill:#000000;opacity:255;"></rect><rect id="19-15" x="1152" y="896" width="64" height="64" shape-rendering="crispEdges" style="fill:#000000;opacity:255;"></rect><rect id="20-15" x="1216" y="896" width="64" height="64" shape-rendering="crispEdges" style="fill:#000000;opacity:255;"></rect><rect id="21-15" x="1280" y="896" width="64" height="64" shape-rendering="crispEdges" style="fill:#000000;opacity:255;"></rect><rect id="4-16" x="192" y="960" width="64" height="64" shape-rendering="crispEdges" style="fill:#000000;opacity:255;"></rect><rect id="21-16" x="1280" y="960" width="64" height="64" shape-rendering="crispEdges" style="fill:#000000;opacity:255;"></rect><rect id="4-17" x="192" y="1024" width="64" height="64" shape-rendering="crispEdges" style="fill:#000000;opacity:255;"></rect><rect id="21-17" x="1280" y="1024" width="64" height="64" shape-rendering="crispEdges" style="fill:#000000;opacity:255;"></rect><rect id="4-18" x="192" y="1088" width="64" height="64" shape-rendering="crispEdges" style="fill:#000000;opacity:255;"></rect><rect id="21-18" x="1280" y="1088" width="64" height="64" shape-rendering="crispEdges" style="fill:#000000;opacity:255;"></rect><rect id="4-19" x="192" y="1152" width="64" height="64" shape-rendering="crispEdges" style="fill:#000000;opacity:255;"></rect><rect id="21-19" x="1280" y="1152" width="64" height="64" shape-rendering="crispEdges" style="fill:#000000;opacity:255;"></rect><rect id="4-20" x="192" y="1216" width="64" height="64" shape-rendering="crispEdges" style="fill:#000000;opacity:255;"></rect><rect id="21-20" x="1280" y="1216" width="64" height="64" shape-rendering="crispEdges" style="fill:#000000;opacity:255;"></rect><rect id="4-21" x="192" y="1280" width="64" height="64" shape-rendering="crispEdges" style="fill:#000000;opacity:255;"></rect><rect id="5-21" x="256" y="1280" width="64" height="64" shape-rendering="crispEdges" style="fill:#000000;opacity:255;"></rect><rect id="6-21" x="320" y="1280" width="64" height="64" shape-rendering="crispEdges" style="fill:#000000;opacity:255;"></rect><rect id="7-21" x="384" y="1280" width="64" height="64" shape-rendering="crispEdges" style="fill:#000000;opacity:255;"></rect><rect id="8-21" x="448" y="1280" width="64" height="64" shape-rendering="crispEdges" style="fill:#000000;opacity:255;"></rect><rect id="9-21" x="512" y="1280" width="64" height="64" shape-rendering="crispEdges" style="fill:#000000;opacity:255;"></rect><rect id="10-21" x="576" y="1280" width="64" height="64" shape-rendering="crispEdges" style="fill:#000000;opacity:255;"></rect><rect id="11-21" x="640" y="1280" width="64" height="64" shape-rendering="crispEdges" style="fill:#000000;opacity:255;"></rect><rect id="12-21" x="704" y="1280" width="64" height="64" shape-rendering="crispEdges" style="fill:#000000;opacity:255;"></rect><rect id="13-21" x="768" y="1280" width="64" height="64" shape-rendering="crispEdges" style="fill:#000000;opacity:255;"></rect><rect id="14-21" x="832" y="1280" width="64" height="64" shape-rendering="crispEdges" style="fill:#000000;opacity:255;"></rect><rect id="15-21" x="896" y="1280" width="64" height="64" shape-rendering="crispEdges" style="fill:#000000;opacity:255;"></rect><rect id="16-21" x="960" y="1280" width="64" height="64" shape-rendering="crispEdges" style="fill:#000000;opacity:255;"></rect><rect id="17-21" x="1024" y="1280" width="64" height="64" shape-rendering="crispEdges" style="fill:#000000;opacity:255;"></rect><rect id="18-21" x="1088" y="1280" width="64" height="64" shape-rendering="crispEdges" style="fill:#000000;opacity:255;"></rect><rect id="19-21" x="1152" y="1280" width="64" height="64" shape-rendering="crispEdges" style="fill:#000000;opacity:255;"></rect><rect id="20-21" x="1216" y="1280" width="64" height="64" shape-rendering="crispEdges" style="fill:#000000;opacity:255;"></rect><rect id="21-21" x="1280" y="1280" width="64" height="64" shape-rendering="crispEdges" style="fill:#000000;opacity:255;"></rect></svg>