<?xml version="1.0" encoding="UTF-8" standalone="no"?><svg xmlns="http://www.w3.org/2000/svg" id="pixil-frame-0" width="1024" height="1024" viewBox="0 0 1024 1024" preserveAspectRatio="xMidYMid meet" rendering="crispEdges"><rect id="10-1" x="576" y="0" width="64" height="64" shape-rendering="crispEdges" style="fill:#000000;opacity:255;"></rect><rect id="11-1" x="640" y="0" width="64" height="64" shape-rendering="crispEdges" style="fill:#000000;opacity:255;"></rect><rect id="9-2" x="512" y="64" width="64" height="64" shape-rendering="crispEdges" style="fill:#000000;opacity:255;"></rect><rect id="11-2" x="640" y="64" width="64" height="64" shape-rendering="crispEdges" style="fill:#000000;opacity:255;"></rect><rect id="8-3" x="448" y="128" width="64" height="64" shape-rendering="crispEdges" style="fill:#000000;opacity:255;"></rect><rect id="10-3" x="576" y="128" width="64" height="64" shape-rendering="crispEdges" style="fill:#000000;opacity:255;"></rect><rect id="11-3" x="640" y="128" width="64" height="64" shape-rendering="crispEdges" style="fill:#000000;opacity:255;"></rect><rect id="7-4" x="384" y="192" width="64" height="64" shape-rendering="crispEdges" style="fill:#000000;opacity:255;"></rect><rect id="10-4" x="576" y="192" width="64" height="64" shape-rendering="crispEdges" style="fill:#000000;opacity:255;"></rect><rect id="6-5" x="320" y="256" width="64" height="64" shape-rendering="crispEdges" style="fill:#000000;opacity:255;"></rect><rect id="9-5" x="512" y="256" width="64" height="64" shape-rendering="crispEdges" style="fill:#000000;opacity:255;"></rect><rect id="5-6" x="256" y="320" width="64" height="64" shape-rendering="crispEdges" style="fill:#000000;opacity:255;"></rect><rect id="8-6" x="448" y="320" width="64" height="64" shape-rendering="crispEdges" style="fill:#000000;opacity:255;"></rect><rect id="4-7" x="192" y="384" width="64" height="64" shape-rendering="crispEdges" style="fill:#000000;opacity:255;"></rect><rect id="8-7" x="448" y="384" width="64" height="64" shape-rendering="crispEdges" style="fill:#000000;opacity:255;"></rect><rect id="9-7" x="512" y="384" width="64" height="64" shape-rendering="crispEdges" style="fill:#000000;opacity:255;"></rect><rect id="10-7" x="576" y="384" width="64" height="64" shape-rendering="crispEdges" style="fill:#000000;opacity:255;"></rect><rect id="11-7" x="640" y="384" width="64" height="64" shape-rendering="crispEdges" style="fill:#000000;opacity:255;"></rect><rect id="12-7" x="704" y="384" width="64" height="64" shape-rendering="crispEdges" style="fill:#000000;opacity:255;"></rect><rect id="13-7" x="768" y="384" width="64" height="64" shape-rendering="crispEdges" style="fill:#000000;opacity:255;"></rect><rect id="14-7" x="832" y="384" width="64" height="64" shape-rendering="crispEdges" style="fill:#000000;opacity:255;"></rect><rect id="15-7" x="896" y="384" width="64" height="64" shape-rendering="crispEdges" style="fill:#000000;opacity:255;"></rect><rect id="3-8" x="128" y="448" width="64" height="64" shape-rendering="crispEdges" style="fill:#000000;opacity:255;"></rect><rect id="15-8" x="896" y="448" width="64" height="64" shape-rendering="crispEdges" style="fill:#000000;opacity:255;"></rect><rect id="2-9" x="64" y="512" width="64" height="64" shape-rendering="crispEdges" style="fill:#000000;opacity:255;"></rect><rect id="14-9" x="832" y="512" width="64" height="64" shape-rendering="crispEdges" style="fill:#000000;opacity:255;"></rect><rect id="2-10" x="64" y="576" width="64" height="64" shape-rendering="crispEdges" style="fill:#000000;opacity:255;"></rect><rect id="3-10" x="128" y="576" width="64" height="64" shape-rendering="crispEdges" style="fill:#000000;opacity:255;"></rect><rect id="4-10" x="192" y="576" width="64" height="64" shape-rendering="crispEdges" style="fill:#000000;opacity:255;"></rect><rect id="5-10" x="256" y="576" width="64" height="64" shape-rendering="crispEdges" style="fill:#000000;opacity:255;"></rect><rect id="6-10" x="320" y="576" width="64" height="64" shape-rendering="crispEdges" style="fill:#000000;opacity:255;"></rect><rect id="7-10" x="384" y="576" width="64" height="64" shape-rendering="crispEdges" style="fill:#000000;opacity:255;"></rect><rect id="8-10" x="448" y="576" width="64" height="64" shape-rendering="crispEdges" style="fill:#000000;opacity:255;"></rect><rect id="9-10" x="512" y="576" width="64" height="64" shape-rendering="crispEdges" style="fill:#000000;opacity:255;"></rect><rect id="13-10" x="768" y="576" width="64" height="64" shape-rendering="crispEdges" style="fill:#000000;opacity:255;"></rect><rect id="9-11" x="512" y="640" width="64" height="64" shape-rendering="crispEdges" style="fill:#000000;opacity:255;"></rect><rect id="12-11" x="704" y="640" width="64" height="64" shape-rendering="crispEdges" style="fill:#000000;opacity:255;"></rect><rect id="8-12" x="448" y="704" width="64" height="64" shape-rendering="crispEdges" style="fill:#000000;opacity:255;"></rect><rect id="11-12" x="640" y="704" width="64" height="64" shape-rendering="crispEdges" style="fill:#000000;opacity:255;"></rect><rect id="7-13" x="384" y="768" width="64" height="64" shape-rendering="crispEdges" style="fill:#000000;opacity:255;"></rect><rect id="10-13" x="576" y="768" width="64" height="64" shape-rendering="crispEdges" style="fill:#000000;opacity:255;"></rect><rect id="6-14" x="320" y="832" width="64" height="64" shape-rendering="crispEdges" style="fill:#000000;opacity:255;"></rect><rect id="7-14" x="384" y="832" width="64" height="64" shape-rendering="crispEdges" style="fill:#000000;opacity:255;"></rect><rect id="9-14" x="512" y="832" width="64" height="64" shape-rendering="crispEdges" style="fill:#000000;opacity:255;"></rect><rect id="6-15" x="320" y="896" width="64" height="64" shape-rendering="crispEdges" style="fill:#000000;opacity:255;"></rect><rect id="8-15" x="448" y="896" width="64" height="64" shape-rendering="crispEdges" style="fill:#000000;opacity:255;"></rect><rect id="6-16" x="320" y="960" width="64" height="64" shape-rendering="crispEdges" style="fill:#000000;opacity:255;"></rect><rect id="7-16" x="384" y="960" width="64" height="64" shape-rendering="crispEdges" style="fill:#000000;opacity:255;"></rect></svg>